<svg width="64" height="40" viewBox="0 0 64 40" fill="none" xmlns="http://www.w3.org/2000/svg">
<path fill-rule="evenodd" clip-rule="evenodd" d="M0 21.2927C0 10.9612 8.31448 2.58548 18.5706 2.58548C28.8267 2.58548 37.1411 10.9612 37.1411 21.2927C37.1411 31.6243 28.8267 40 18.5706 40C12.2777 40 6.71681 36.8465 3.35803 32.0233L0.679411 33.9924L0.165852 23.7928L0.161421 23.7595C0.149663 23.6712 0.137906 23.583 0.127578 23.4943L0.151358 23.5052L0.15098 23.4981L0.426217 23.632L1.57178 24.1603L4.68273 25.6861L4.68922 25.7064L9.05882 27.8327L6.62456 29.6221C9.24052 33.3687 13.5648 35.8175 18.4573 35.8175C26.4412 35.8175 32.9137 29.2973 32.9137 21.2547C32.9137 13.2121 26.4412 6.69195 18.4573 6.69195C10.4735 6.69195 4.00098 13.2121 4.00098 21.2547C4.00098 22.066 4.06665 22.8623 4.19348 23.638L0.00150984 21.4806C0 21.4182 0 21.3551 0 21.2927ZM12.0205 15.7859L12.0469 27.5008C12.3476 29.8233 14.3524 28.8135 14.3524 28.8135C14.3524 28.8135 23.1203 23.9944 24.4768 22.8558C25.9804 21.5935 24.3765 20.5838 24.3765 20.5838C24.3765 20.5838 15.7056 15.3329 14.0016 14.626C12.3018 13.9209 12.0219 15.7766 12.0205 15.7859L12.0205 15.7859Z" fill="#DFFBFF"/>
<path fill-rule="evenodd" clip-rule="evenodd" d="M57.2299 6.75864L49.3922 0L48.8694 2.907C47.7543 2.69651 46.6045 2.58556 45.429 2.58556C35.1728 2.58556 26.8584 10.9612 26.8584 21.2927C26.8584 24.7426 27.7856 27.9743 29.4025 30.7491C29.4135 30.7433 29.4251 30.7382 29.4371 30.7337C29.5908 30.5635 31.3333 28.5995 32.0594 26.2843C31.4788 24.7189 31.1613 23.0242 31.1613 21.2547C31.1613 13.3171 37.5493 6.88214 45.429 6.88214C46.3452 6.88214 47.2407 6.97058 48.1087 7.1369L47.5168 10.4282L57.2299 6.75864ZM40.0693 27.5008L40.043 15.7859L40.043 15.7859C40.0444 15.7766 40.3242 13.9209 42.0241 14.626C43.7281 15.3329 52.399 20.5838 52.399 20.5838C52.399 20.5838 54.0028 21.5935 52.4991 22.8558C51.1427 23.9944 42.3749 28.8135 42.3749 28.8135C42.3749 28.8135 40.37 29.8233 40.0693 27.5008ZM54.0704 9.81742L58.6044 8.10944C61.9388 11.4912 63.9997 16.1497 63.9997 21.2927C63.9997 31.6243 55.6852 39.9999 45.4291 39.9999C40.1441 39.9999 35.375 37.7755 31.9932 34.2058C32.8631 33.4379 34.5299 30.8889 34.6624 30.6853C37.2782 33.7132 41.1317 35.6273 45.4291 35.6273C53.3088 35.6273 59.6968 29.1923 59.6968 21.2546C59.6968 16.5893 57.4901 12.4433 54.0704 9.81742Z" fill="#FFF1CE"/>
</svg>
