<?xml version="1.0" encoding="UTF-8"?>
<svg width="300px" height="800px" viewBox="0 0 300 800" version="1.1" xmlns="http://www.w3.org/2000/svg" xmlns:xlink="http://www.w3.org/1999/xlink">
    <!-- Generator: Sketch 47.1 (45422) - http://www.bohemiancoding.com/sketch -->
    <title>Artboard</title>
    <desc>Created with Sketch.</desc>
    <defs>
        <linearGradient x1="50%" y1="0%" x2="50%" y2="100%" id="linearGradient-1">
            <stop stop-color="#FB5632" offset="0%"></stop>
            <stop stop-color="#FA370C" offset="100%"></stop>
        </linearGradient>
    </defs>
    <g id="Page-1" stroke="none" stroke-width="1" fill="none" fill-rule="evenodd">
        <g id="Artboard">
            <g id="illustrations-sprite" transform="translate(3.000000, 2.000000)">
                <g id="Low-interest-rate" transform="translate(47.500000, 47.500000) rotate(-180.000000) translate(-47.500000, -47.500000) translate(2.000000, 15.000000)">
                    <rect id="Rectangle-path-Copy" stroke="url(#linearGradient-1)" stroke-width="2.268" opacity="0.8" x="10.1677877" y="-3.69482222e-13" width="69.4798829" height="5.13556231"></rect>
                    <g id="Rectangle-path" transform="translate(4.000000, 5.000000)">
                        <g id="path-2-link" stroke-width="2.268" stroke="url(#linearGradient-1)">
                            <rect id="path-2" x="0.23657823" y="0.13556231" width="81.3423019" height="5.99148936"></rect>
                        </g>
                        <rect id="path-2" x="0.23657823" y="0.13556231" width="81.3423019" height="5.99148936"></rect>
                    </g>
                    <rect id="Rectangle-path" stroke="url(#linearGradient-1)" stroke-width="2" x="0" y="11.1270517" width="90.7475056" height="52.6395137"></rect>
                    <g id="Group" transform="translate(0.000000, 10.271125)" stroke="url(#linearGradient-1)" stroke-width="2">
                        <path d="M90.8322372,11.4694225 C84.9857592,11.4694225 80.15606,6.5906383 80.15606,0.684741641" id="Shape"></path>
                        <path d="M80.15606,53.3242553 C80.15606,47.4183587 84.9857592,42.5395745 90.8322372,42.5395745" id="Shape"></path>
                        <path d="M0.0847315645,11.4694225 C5.93120952,11.4694225 10.7609087,6.5906383 10.7609087,0.684741641" id="Shape"></path>
                        <path d="M11.0151034,53.3242553 C11.0151034,47.4183587 6.18540421,42.5395745 0.338926258,42.5395745" id="Shape"></path>
                    </g>
                    <g id="%" transform="translate(33.000000, 21.000000)" font-size="30.1875" font-family="ArialRoundedMTBold, Arial Rounded MT Bold" fill="#FA441C" font-weight="normal">
                        <text>
                            <tspan x="0.1849776" y="29.2978723">%</tspan>
                        </text>
                    </g>
                </g>
                <g id="Timer" transform="translate(111.000000, 0.000000)">
                    <ellipse id="Oval" stroke="url(#linearGradient-1)" stroke-width="2" cx="36.5" cy="56.7241379" rx="35.9785714" ry="37.2758621"></ellipse>
                    <ellipse id="Oval" stroke="url(#linearGradient-1)" stroke-width="2" cx="36.5" cy="56.7241379" rx="29.7214286" ry="30.7931034"></ellipse>
                    <ellipse id="Oval" stroke="url(#linearGradient-1)" stroke-width="2" cx="36.5" cy="9.72413793" rx="9.38571429" ry="9.72413793"></ellipse>
                    <ellipse id="Oval" stroke="url(#linearGradient-1)" stroke-width="2" cx="36.5" cy="58.3448276" rx="3.12857143" ry="3.24137931"></ellipse>
                    <path d="M36.7871755,30.5674378 L36.7871755,56.4984723" id="Shape" stroke="url(#linearGradient-1)" stroke-width="2"></path>
                    <g id="Shape"></g>
                    <g id="Shape"></g>
                    <g id="Shape"></g>
                    <g id="Shape"></g>
                    <g id="Shape"></g>
                    <g id="Shape"></g>
                    <g id="Shape"></g>
                    <g id="Shape"></g>
                    <g id="Shape"></g>
                    <g id="Shape"></g>
                    <g id="Shape"></g>
                    <polyline id="Shape" stroke="url(#linearGradient-1)" stroke-width="2" points="34.9357143 19.4482759 34.9357143 11.3448276 38.0642857 11.3448276 38.0642857 19.4482759"></polyline>
                    <polygon id="Rectangle-path" stroke="url(#linearGradient-1)" stroke-width="2" points="64.6092301 22.6773949 66.1735158 21.0811686 72.5265537 27.5639273 70.962268 29.1601537"></polygon>
                    <path d="M67.7857143,25.9310345 L62.6692282,31.2320073" id="Shape" stroke="url(#linearGradient-1)" stroke-width="2"></path>
                    <polygon id="Rectangle-path" stroke="url(#linearGradient-1)" stroke-width="2" points="1.61412785 29.1600655 0.0498421614 27.5638391 6.40288004 21.0810804 7.96716573 22.6773068"></polygon>
                    <path d="M4.79065681,25.9310345 L9.90714286,31.2320073" id="Shape" stroke="url(#linearGradient-1)" stroke-width="2"></path>
                </g>
                <g id="House-Reconstruction" transform="translate(200.000000, 4.000000)" stroke="url(#linearGradient-1)" stroke-width="2">
                    <path d="M7.86866678,33.3232483 L7.86866678,87.2919007 C7.86866678,88.1191951 8.53498925,88.7898496 9.37372033,88.7898496 L83.4391508,88.7898496 C84.2703689,88.7898496 84.9442044,88.108558 84.9442044,87.2919007 L84.9442044,33.3232483 M0,39.8824559 L46.6431814,0.281776978 L93.1915596,39.8824559" id="Path-2" stroke-linecap="round" stroke-linejoin="round"></path>
                    <rect id="Rectangle-1" x="25.9760807" y="54.2222701" width="9.10110856" height="9.11670306" rx="0.15"></rect>
                    <path d="M48.5933131,88.350553 L48.5933131,54.0688273 C48.5933131,53.5689252 48.9996203,53.1636745 49.4935599,53.1636745 L68.0334625,53.1636745 C68.5306551,53.1636745 68.9337093,53.559782 68.9337093,54.0709858 L68.9337093,88.4344601" id="Path-3"></path>
                </g>
                <path d="M81.9990406,112.105727 L80.2347943,112.105727 C62.0407039,112.105727 48.2980018,101.058403 48.1588959,100.946641 L47.926733,100.757503 L47.0028781,100 L47.0009594,100.00191 L46.9971219,100 L46.0742264,100.757503 L45.8401447,100.946641 C45.7019982,101.058403 31.9592961,112.105727 13.7652057,112.105727 L12.0019187,112.105727 L12,112.105727 L12,157.534922 L12.0019187,157.534922 C12.0019187,184.296861 46.6565524,195.415828 46.9971219,195.52377 C47.3396102,195.416783 81.9990406,184.296861 81.9990406,157.534922 L82,157.534922 L81.9990406,112.105727 L81.9990406,112.105727 L81.9990406,112.105727 Z M47.0010165,192.697111 C42.721482,191.206871 15.0011356,180.669363 15.0011356,157.693596 L15.0011356,114.73323 C31.1100507,114.151673 43.3398994,106.254689 47.0010165,103.57461 C50.6599863,106.254689 62.8909087,114.151673 78.9998237,114.73323 L78.9998237,157.693596 C78.9998237,180.669363 51.2794773,191.20794 47.0010165,192.697111 L47.0010165,192.697111 Z M58.2014056,129.824501 L42.851112,129.824501 L35.8801071,129.824501 C34.6830659,129.824501 33.7676814,130.750091 33.7676814,131.889279 C33.7676814,133.028467 34.6830659,133.954057 35.8096929,133.954057 L42.851112,133.954057 C46.160579,133.954057 48.9771466,136.161233 49.8925311,139.151601 L35.7392787,139.151601 C34.6126517,139.151601 33.6972672,140.077191 33.6972672,141.216378 C33.6972672,142.355566 34.6126517,143.281156 35.7392787,143.281156 L50.1037737,143.281156 C49.3292176,146.556321 46.3718215,148.977095 42.9215262,148.977095 L35.5280361,148.977095 C34.6830659,148.977095 33.9789239,149.47549 33.626853,150.187482 C33.274782,150.970674 33.4156104,151.825064 33.9789239,152.394658 L45.8789222,165.352919 C46.3014073,165.780114 46.7943067,165.993712 47.3576202,165.993712 C47.8505195,165.993712 48.3434189,165.780114 48.765904,165.424118 C49.6108743,164.640927 49.6108743,163.35934 48.9067324,162.504949 L40.2457869,153.106651 L42.851112,153.106651 C45.8416247,153.106651 48.548806,151.96069 50.5911163,150.084238 C52.4920181,148.337711 53.8169321,145.958348 54.2582109,143.281156 L58.2014056,143.281156 C59.3280327,143.281156 60.2434171,142.355566 60.2434171,141.216378 C60.2434171,140.077191 59.3280327,139.151601 58.2014056,139.151601 L54.1877967,139.151601 C53.7653116,137.229221 52.9203413,135.44924 51.6528859,133.954057 L58.2014056,133.954057 C59.3280327,133.954057 60.2434171,133.028467 60.2434171,131.889279 C60.2434171,130.750091 59.3280327,129.824501 58.2014056,129.824501 Z" id="Shape" fill="url(#linearGradient-1)" fill-rule="nonzero"></path>
                <g id="Form-+-Shape-+-Shape-+-Shape" transform="translate(101.000000, 119.000000)" stroke-width="2" stroke="url(#linearGradient-1)">
                    <g id="Form-+-Shape-+-Shape" transform="translate(0.000000, 18.007465)">
                        <g id="Form" transform="translate(31.645833, 0.000000)">
                            <polygon id="Shape" points="29.2950787 37.1767016 0 37.1767016 0 0.0407764776 21.1575569 0.0407764776 29.2950787 8.11380367"></polygon>
                            <polyline id="Shape" points="21.1575569 0.0407764776 21.1575569 8.11380367 29.2950787 8.11380367"></polyline>
                            <path d="M7.12477837,13.8271605 L21.3989672,13.8271605" id="Line"></path>
                            <path d="M7.12477837,21.4320988 L21.3989672,21.4320988" id="Line-Copy"></path>
                            <path d="M7.12477837,29.037037 L21.3989672,29.037037" id="Line-Copy-2"></path>
                        </g>
                        <path d="M0.574767111,7.13828497 C-0.722066222,10.3018107 0.251204611,13.8357756 2.73378794,15.937504 C2.31916294,18.3833036 3.23753794,20.86962 5.09882961,22.4709982 C4.94318378,24.0280007 5.26932961,25.6133008 6.07726711,27.043608 C6.95818378,28.6038262 8.40743378,29.7704526 10.0717463,30.4463757 L11.6805171,31.1004325 C12.7674546,31.5422586 13.9028296,31.7943631 15.0621004,31.8522442 C19.3730379,32.0676907 23.4598713,29.5029132 25.1216004,25.5361259 C26.2330796,22.8813111 26.1898088,19.9460943 24.9937254,17.3176476 C23.8712671,14.8506249 21.7600379,12.9682017 19.2419338,11.9449918 C15.2003088,10.3024538 6.02430878,6.5729792 2.74412128,5.24042681 C2.08343378,4.9722442 1.33232961,5.28866109 1.06301711,5.94657668 L0.574767111,7.13828497 L0.574767111,7.13828497 Z" id="Shape"></path>
                        <path d="M72.9754022,12.0448651 C69.6409647,13.3999269 67.2584855,16.3364299 66.6449438,20.0485401 C66.5015688,20.9161141 66.481548,21.8049111 66.5894022,22.6782731 C67.2623605,28.1107394 71.7270063,31.8640096 76.8826938,31.8640096 C78.222798,31.8640096 79.5357772,31.6067601 80.784173,31.0993354 L82.3929438,30.4452786 C84.0572563,29.7687124 85.5058605,28.6027291 86.387423,27.0425109 C87.1953605,25.6122037 87.5221522,24.0262605 87.3658605,22.4692579 C89.2258605,20.8685229 90.1442355,18.3841359 89.731548,15.9396225 C90.611173,15.1981009 91.316423,14.2636421 91.7962772,13.187696 C92.6810688,11.202373 92.6216522,8.9231425 91.7975688,6.91145143 L91.401673,5.94547956 C91.1323605,5.28756397 90.3780272,4.97243334 89.7179855,5.24061594 L72.9754022,12.0448651 L72.9754022,12.0448651 Z" id="Shape"></path>
                    </g>
                    <path d="M30.3541667,5.14498995 C30.3541667,1.61038185 37.71925,0 44.5625,0 C51.40575,0 58.7708333,1.61038185 58.7708333,5.14498995 C58.7708333,7.41375477 55.7364245,8.88973982 51.7533072,9.65594147 C49.5309515,10.0834389 47.0132617,10.2899799 44.5625,10.2899799 C37.71925,10.2899799 30.3541667,8.67959805 30.3541667,5.14498995 Z" id="Shape"></path>
                </g>
                <path d="M291.324536,144.02574 C289.429015,142.044058 287.287322,141.094246 284.909715,141.180406 C279.987308,141.376318 276.050614,146.143841 275.884448,146.345907 C275.558271,146.746962 275.581862,147.328542 275.938811,147.701902 C277.072226,148.887629 279.891917,151.889897 281.205858,153.289998 L274.74693,159.465828 C271.852362,162.235258 270.65843,162.082427 269.464498,160.834132 C267.560771,158.844245 268.460323,156.275854 270.197884,154.61317 C270.578424,154.250067 270.62253,153.654127 270.29943,153.240763 L267.480765,149.629221 C267.283828,149.372792 266.961753,149.240475 266.646859,149.234321 C266.320681,149.243552 266.018095,149.406641 265.831415,149.675378 L255.388611,164.678512 L255.388611,116.41144 C255.388611,107.054868 248.773775,100 240.002886,100 C238.112493,100 236.316466,100.347717 234.642499,100.968275 L234.634293,100.935452 C234.058867,101.073924 220.5143,104.445449 220.5143,115.385725 L220.5143,131.611511 C220.49276,131.553045 220.468143,131.485348 220.446603,131.428934 C216.283226,120.606615 208.12674,107.7821 208.044683,107.653885 L207.481565,106.771771 L206.610733,107.352325 C206.34097,107.531825 200,111.917783 200,125.642875 C200,138.275581 222.737025,182.692119 223.704274,184.577383 L223.782228,184.704572 C223.822231,184.762012 224.532026,185.739518 225.674673,186.834982 C228.478977,192.127671 233.681404,195.391496 240.002886,195.391496 C245.018632,195.391496 249.259964,193.343143 252.010931,189.964438 L288.844357,158.884247 C289.037192,158.741673 293.564698,155.366045 293.970881,150.706222 C294.17705,148.327589 293.287755,146.080247 291.324536,144.02574 L291.324536,144.02574 Z M222.56573,115.385725 C222.56573,111.581348 224.637675,108.812943 227.096314,106.866136 C225.271567,109.458118 224.03558,112.666555 223.598625,116.28938 L223.595548,140.996803 C223.236548,139.798768 222.893959,138.680739 222.56573,137.639638 L222.56573,115.385725 L222.56573,115.385725 Z M207.116708,110.754529 C209.053205,113.893607 215.054149,123.89219 218.371721,132.516679 C219.609203,135.735531 221.261508,141.024499 223.295726,148.278881 L223.291737,178.818086 C217.824276,167.849261 202.351252,135.943938 202.351252,126.1757 C202.351252,116.815304 205.594036,112.340023 207.116708,110.754529 L207.116708,110.754529 Z M239.994327,192.578324 C232.543819,192.578324 226.876511,187.287223 225.873966,179.403019 L225.873966,116.995058 C226.918872,108.509729 232.587189,102.813172 239.994327,102.813172 C247.591081,102.813172 253.10609,108.751793 253.10609,116.933533 L253.10609,170.842045 C253.082893,170.886424 253.080875,170.914664 253.10609,170.92475 L253.10609,179.46656 C253.10609,187.063314 247.591081,192.578324 239.994327,192.578324 L239.994327,192.578324 Z M291.318932,150.965664 C291.008363,154.574416 287.199181,157.431054 287.10988,157.498526 L255.220504,184.401931 C255.703722,182.880838 255.972617,181.236708 255.972617,179.488393 L255.972617,168.13824 L266.93183,152.386542 L268.306073,154.143786 C266.061642,156.762289 265.963411,160.023759 268.155253,162.313833 C271.303608,165.607054 274.645449,162.417025 276.07228,161.052705 L283.03081,154.399782 C283.423734,154.023726 283.441594,153.400604 283.069507,153.004703 C283.069507,153.004703 279.722705,149.433656 277.924779,147.538491 C279.055925,146.374602 281.686334,144.029956 284.609453,143.913864 C286.314109,143.851354 287.876876,144.566754 289.301722,146.055103 C290.786103,147.607948 291.465782,149.261008 291.318932,150.965664 L291.318932,150.965664 Z M243.080031,111.282865 L235.900025,111.282865 L235.900025,115.385725 L231.797165,115.385725 L231.797165,122.56573 L235.900025,122.56573 L235.900025,126.66859 L243.080031,126.66859 L243.080031,122.56573 L247.182891,122.56573 L247.182891,115.385725 L243.080031,115.385725 L243.080031,111.282865 L243.080031,111.282865 Z M245.131461,117.437155 L245.131461,120.5143 L241.028601,120.5143 L241.028601,124.61716 L237.951456,124.61716 L237.951456,120.5143 L233.848595,120.5143 L233.848595,117.437155 L237.951456,117.437155 L237.951456,113.334295 L241.028601,113.334295 L241.028601,117.437155 L245.131461,117.437155 L245.131461,117.437155 Z M209.124761,139.065382 C209.578127,140.706526 209.996619,142.366133 210.25715,144.105746 C209.206818,142.695387 208.366757,141.181432 207.625165,139.626448 C206.884599,138.070438 206.236347,136.472374 205.707078,134.833282 C205.172681,133.196241 204.751112,131.520222 204.450577,129.81651 C204.156197,128.114849 203.960286,126.376262 204.10286,124.61716 C205.478344,127.824571 206.587142,130.982748 207.656963,134.197339 C208.185206,135.802583 208.669343,137.425264 209.124761,139.065382 L209.124761,139.065382 Z" id="Knife" fill="url(#linearGradient-1)" fill-rule="nonzero"></path>
                <g id="Shape-+-Shape" transform="translate(5.000000, 201.000000)" stroke="url(#linearGradient-1)" stroke-width="2">
                    <path d="M72.7885322,34.4840876 L62.7630751,24.4433209 L64.195669,23.0085393 C65.7713873,21.4304148 65.7713873,18.8488897 64.195669,17.2707652 L62.7630751,15.8359836 C61.1873567,14.257859 58.6097678,14.257859 57.0340495,15.8359836 L55.6014555,17.2707652 L47.0085923,8.66478008 L25.5264342,30.1797428 L34.1192975,38.7857279 L1.18178874,71.7775912 C-0.39392958,73.3557157 -0.39392958,75.9372408 1.18178874,77.5153653 L2.61438269,78.9501469 C4.19010101,80.5282715 6.76768993,80.5282715 8.34340825,78.9501469 L41.280917,45.9596359 L51.3063742,56.0004026 L72.7885322,34.4840876 L72.7885322,34.4840876 Z" id="Shape"></path>
                    <path d="M23.7903867,31.3045412 L48.1363824,6.92136756 C49.7121007,5.34324302 49.7121007,2.76171795 48.1363824,1.18359341 C46.5606641,-0.394531136 43.9830752,-0.394531136 42.4073568,1.18359341 L18.0627113,25.566767 C16.486993,27.1448916 16.486993,29.7264166 18.0627113,31.3045412 C19.6370794,32.8826657 22.2146683,32.8826657 23.7903867,31.3045412 L23.7903867,31.3045412 Z" id="Shape"></path>
                    <path d="M79.9447508,86.6947221 L77.9194059,86.6947221 L77.9194059,84.6662844 C77.9194059,82.4350029 76.0965955,80.609409 73.8687162,80.609409 L31.3364736,80.609409 C29.1085942,80.609409 27.2857838,82.4350029 27.2857838,84.6662844 L27.2857838,86.6947221 L25.260439,86.6947221 C23.0325596,86.6947221 21.2097492,88.0645937 21.2097492,89.7373787 C21.2097492,91.4101637 23.0325596,92.7800353 25.260439,92.7800353 L31.3364736,92.7800353 L73.8687162,92.7800353 L79.9447508,92.7800353 C82.1726302,92.7800353 83.9954406,91.4101637 83.9954406,89.7373787 C83.9954406,88.0645937 82.1726302,86.6947221 79.9447508,86.6947221 L79.9447508,86.6947221 Z" id="Shape"></path>
                    <path d="M80.1135296,33.3619938 C78.5378112,31.7838693 75.9602223,31.7838693 74.384504,33.3619938 L50.0385083,57.7465197 C48.4627899,59.3246443 48.4627899,61.9061693 50.0385083,63.4842939 C51.6142266,65.0624184 54.1918155,65.0624184 55.7675338,63.4842939 L80.1135296,39.099768 C81.6878977,37.5216434 81.6878977,34.9401183 80.1135296,33.3619938 L80.1135296,33.3619938 Z" id="Shape"></path>
                </g>
                <g id="Phone" transform="translate(101.000000, 209.000000)">
                    <path d="M0.863115187,16.0086474 L0.863115187,25.6742172 C0.863115187,29.5303669 4.20371778,32.5144064 7.9870046,32.0375001 L21.2887003,30.3605985 C24.1855245,29.9955803 26.4613528,27.6768025 26.8013255,24.7442304 L27.1504884,21.7328916 C27.5250086,18.5022776 30.23132,16.0671597 33.4471853,16.0671597 L60.2062398,16.0671597 C63.4220931,16.0671597 66.1284045,18.5022776 66.5029247,21.7328916 L66.8520876,24.7442304 C67.1920603,27.6768025 69.4678887,29.9955803 72.3647128,30.3605985 L85.6664205,32.0375001 C89.4496891,32.5144064 92.7902979,29.5303669 92.7902979,25.6742172 L92.7902979,16.0086474 C92.7902979,9.34879023 83.5452759,0.025 46.827021,0.025 C10.1086207,0.025 0.863115187,9.88166497 0.863115187,16.0086474 L0.863115187,16.0086474 Z" id="Shape" stroke="url(#linearGradient-1)" stroke-width="2"></path>
                    <path d="M72.3643984,30.3498844 C69.4675741,29.9846705 67.1917458,27.6658926 66.8517731,24.7333207 L66.5026102,21.7219818 C66.12809,18.4913679 63.4217786,16.05625 60.2060826,16.05625 L33.4467137,16.05625 C30.2310055,16.05625 27.5246942,18.4913679 27.150174,21.7219818 L26.8010111,24.7333207 C26.4610383,27.6658927 24.1852099,29.9846705 21.2883858,30.3498844 L13.5424121,31.3261527 L13.5424121,67.3453401 C13.5424121,72.6575997 17.8000706,76.9640901 23.0521207,76.9640901 L70.6006635,76.9640901 C75.8527135,76.9640901 80.110372,72.6575997 80.110372,67.3453401 L80.110372,31.3261527 L72.3643984,30.3498844 L72.3643984,30.3498844 Z" id="Shape" stroke="url(#linearGradient-1)" stroke-width="2"></path>
                    <rect id="Rectangle-path" stroke="url(#linearGradient-1)" stroke-width="2" x="35.7320466" y="22.46875" width="22.18932" height="6.4125"></rect>
                    <g id="Keypad" transform="translate(30.976878, 40.103125)" fill-rule="nonzero" fill="url(#linearGradient-1)">
                        <rect id="Rectangle-39" x="0.186464874" y="0" width="5.59394621" height="5.91923077"></rect>
                        <rect id="Rectangle-39-Copy-3" x="0.186464874" y="9.86538462" width="5.59394621" height="5.91923077"></rect>
                        <rect id="Rectangle-39-Copy-6" x="0.186464874" y="19.7307692" width="5.59394621" height="5.91923077"></rect>
                        <rect id="Rectangle-39-Copy" x="13.0525412" y="0" width="5.59394621" height="5.91923077"></rect>
                        <rect id="Rectangle-39-Copy-4" x="13.0525412" y="9.86538462" width="5.59394621" height="5.91923077"></rect>
                        <rect id="Rectangle-39-Copy-7" x="13.0525412" y="19.7307692" width="5.59394621" height="5.91923077"></rect>
                        <rect id="Rectangle-39-Copy-2" x="26.1050823" y="0" width="5.59394621" height="5.91923077"></rect>
                        <rect id="Rectangle-39-Copy-5" x="26.1050823" y="9.86538462" width="5.59394621" height="5.91923077"></rect>
                        <rect id="Rectangle-39-Copy-8" x="26.1050823" y="19.7307692" width="5.59394621" height="5.91923077"></rect>
                    </g>
                </g>
                <path d="M293,233.393171 C293,226.076365 290.150742,219.196562 284.97755,214.02245 C279.803438,208.849258 272.925475,206 265.608669,206 C258.604665,206 252.006384,208.616496 246.915992,213.378446 C241.84676,208.709417 235.311959,206.148121 228.379716,206.148121 C221.06291,206.148121 214.184027,208.997379 209.009915,214.171491 C198.329568,224.850918 198.330488,242.230746 209.009915,252.912013 L215.984479,259.888417 C215.288034,260.917903 214.911752,262.130471 214.911752,263.400079 C214.911752,265.077249 215.564036,266.654139 216.750843,267.839106 C217.935811,269.024994 219.511781,269.678198 221.189871,269.678198 C221.678394,269.678198 222.155877,269.617478 222.61956,269.508917 C222.511919,269.97352 222.450279,270.450083 222.450279,270.938606 C222.450279,272.615776 223.103483,274.191746 224.290291,275.376714 C225.474338,276.563521 227.051228,277.216725 228.728398,277.216725 C229.219681,277.216725 229.698084,277.154165 230.163607,277.045604 C229.687964,279.090777 230.239048,281.326391 231.827898,282.917081 C233.013785,284.102048 234.589755,284.755252 236.267845,284.755252 C236.756368,284.755252 237.235691,284.691772 237.700294,284.583211 C237.224651,286.626544 237.775735,288.863078 239.366425,290.451928 C240.551392,291.637815 242.127362,292.291019 243.806373,292.291019 C245.117381,292.291019 246.365829,291.888057 247.414635,291.145612 C248.430321,291.816296 249.618969,292.176939 250.863737,292.176939 C252.542747,292.176939 254.119637,291.525575 255.304604,290.340607 C256.675413,288.967959 257.278937,287.114147 257.113336,285.319216 C257.904541,285.673418 258.772106,285.857419 259.665432,285.857419 C261.342602,285.857419 262.921332,285.204215 264.106299,284.019248 C265.693309,282.432238 266.249913,280.200304 265.77979,278.159731 C266.241633,278.265532 266.719116,278.320732 267.203959,278.320732 C268.879289,278.320732 270.456179,277.667528 271.643907,276.483481 C272.828874,275.296673 273.482078,273.719783 273.482078,272.042613 C273.482078,271.158487 273.301757,270.303802 272.957675,269.519037 C274.782046,269.673598 276.622978,269.018554 277.941346,267.702946 C279.126313,266.516138 279.779517,264.940168 279.779517,263.262998 C279.779517,261.818589 279.292834,260.44962 278.401349,259.340093 L284.97939,252.762972 C290.150742,247.58978 293,240.710897 293,233.393171 L293,233.393171 Z M224.012449,266.224496 C223.718047,266.517978 223.379485,266.74246 223.020683,266.929221 C222.460399,267.222703 221.839395,267.394744 221.188031,267.394744 C220.120825,267.394744 219.118938,266.978901 218.365454,266.225416 C217.611049,265.471932 217.195206,264.468205 217.195206,263.400999 C217.195206,262.749635 217.367247,262.128631 217.660729,261.566507 C217.84749,261.208625 218.071052,260.870983 218.365454,260.578421 L219.133658,259.809296 L225.276537,253.665498 C226.030021,252.912013 227.032828,252.496171 228.099114,252.496171 C229.165401,252.496171 230.169127,252.912013 230.923532,253.665498 C232.481102,255.223068 232.481102,257.756763 230.925372,259.313413 L224.780654,265.459052 L224.012449,266.224496 L224.012449,266.224496 Z M231.550976,273.763024 C231.257494,274.056505 230.917092,274.281907 230.55737,274.469588 C229.996166,274.75939 229.377922,274.932351 228.725638,274.932351 C227.658432,274.932351 226.655625,274.517428 225.903061,273.763024 C224.642653,272.502616 224.420931,270.611084 225.198336,269.106874 C225.381417,268.750832 225.604059,268.41043 225.903061,268.113268 L226.669425,267.346903 L235.287119,258.73013 C236.040604,257.974805 237.04433,257.558962 238.111537,257.558962 C239.177824,257.558962 240.18063,257.974805 240.934115,258.73013 C241.688519,259.483614 242.103442,260.485501 242.103442,261.552707 C242.103442,262.618994 241.687599,263.62272 240.934115,264.377125 L232.316421,272.995739 L231.550976,273.763024 L231.550976,273.763024 Z M239.089503,281.299711 C238.794181,281.595952 238.453779,281.821354 238.093137,282.008115 C237.531933,282.300677 236.914609,282.471798 236.265085,282.471798 C235.197879,282.471798 234.195072,282.056875 233.440668,281.302471 C232.1821,280.044823 231.960379,278.153291 232.735943,276.648162 C232.919024,276.292119 233.142586,275.950797 233.440668,275.653635 L234.207033,274.887271 L239.853108,269.243035 L241.76672,267.329423 L242.105282,266.991781 C242.858767,266.237376 243.862493,265.822454 244.92786,265.822454 C245.995066,265.822454 246.997872,266.237376 247.751357,266.990861 C249.308007,268.549351 249.308007,271.083967 247.752277,272.639696 L247.412795,272.976419 L245.499183,274.890031 L239.853108,280.537946 L239.089503,281.299711 L239.089503,281.299711 Z M247.388875,288.075553 L246.62619,288.838238 C246.330868,289.13356 245.989546,289.359881 245.629824,289.547562 C245.06954,289.836444 244.452217,290.007565 243.803613,290.007565 C242.734566,290.007565 241.7336,289.591722 240.979195,288.838238 C239.720627,287.57967 239.497066,285.690898 240.27263,284.187609 C240.455712,283.829726 240.679273,283.487484 240.979195,283.190322 L241.7428,282.426718 L247.389795,276.780642 L247.511236,276.659202 C248.1764,275.991277 249.038445,275.610395 249.963051,275.525755 C250.088172,275.512874 250.209613,275.489874 250.333813,275.489874 C251.40102,275.489874 252.404746,275.904797 253.160071,276.658282 C254.032236,277.531367 254.396559,278.708974 254.290758,279.853462 C254.208878,280.748627 253.844555,281.623553 253.160071,282.307117 L253.03679,282.429478 L247.388875,288.075553 L247.388875,288.075553 Z M253.686314,288.725997 C252.93283,289.479482 251.930943,289.893484 250.861897,289.893484 C250.272173,289.893484 249.704529,289.755483 249.185646,289.512602 L254.471999,284.226249 C255.154643,285.701018 254.901642,287.508829 253.686314,288.725997 L253.686314,288.725997 Z M276.323976,266.087416 C275.568651,266.8409 274.566765,267.256743 273.499558,267.256743 C272.433271,267.256743 271.430465,266.8409 270.67698,266.087416 L255.495966,250.907321 C255.049763,250.461118 254.326638,250.460198 253.881356,250.905481 L253.606274,251.178722 C253.390992,251.392164 253.271392,251.682886 253.271392,251.987407 C253.271392,252.290089 253.390992,252.580811 253.604434,252.796092 L270.027456,269.217275 C270.780941,269.97168 271.196784,270.975406 271.196784,272.041693 C271.196784,273.108899 270.780941,274.112626 270.027456,274.86611 C269.272132,275.619595 268.270245,276.035438 267.203039,276.035438 C266.136752,276.035438 265.133946,275.619595 264.380461,274.86611 L247.956518,258.149606 C247.741237,257.935245 247.451435,257.520322 247.147833,257.520322 L247.145993,257.520322 C246.843312,257.520322 246.55167,257.937085 246.338228,258.153286 L246.064987,258.575569 C245.621544,259.021771 245.622464,259.817576 246.066827,260.261939 L262.488009,276.720842 C264.043739,278.275652 264.043739,280.829588 262.488009,282.387157 C261.734525,283.139722 260.730798,283.564765 259.663592,283.564765 C258.597305,283.564765 257.595419,283.153522 256.842854,282.399117 L256.18505,281.742233 C257.049855,279.498339 256.583412,276.851483 254.774681,275.041832 C253.587874,273.855024 252.010984,273.20274 250.333813,273.20274 C250.291493,273.20274 250.248253,273.20826 250.205933,273.2101 C251.768102,270.780365 251.490261,267.499624 249.365967,265.373491 C248.181,264.188524 246.60503,263.53532 244.92786,263.53532 C244.628858,263.53532 244.332616,263.56292 244.040054,263.60432 C244.266375,262.952036 244.389656,262.263872 244.389656,261.552707 C244.389656,259.875537 243.735532,258.298647 242.550565,257.113679 C241.364677,255.927792 239.788707,255.274588 238.111537,255.274588 C236.745328,255.274588 235.44904,255.714351 234.374474,256.515676 C234.380914,254.898306 233.77095,253.279095 232.539982,252.048128 C231.353175,250.86316 229.777205,250.209956 228.100034,250.209956 C226.423784,250.209956 224.845974,250.86316 223.661007,252.048128 L217.518128,258.191006 L210.625445,251.295563 C200.834744,241.505782 200.834744,225.575882 210.623605,215.787021 C215.367155,211.044392 221.671954,208.432495 228.377876,208.432495 C234.690956,208.432495 240.644313,210.75367 245.278382,214.982936 L224.765934,235.498144 C222.317798,237.94628 222.309518,241.921625 224.747533,244.35872 L225.83498,245.445247 C227.006148,246.616414 228.574757,247.261338 230.251928,247.261338 C231.929098,247.261338 233.505988,246.608134 234.690036,245.423166 L247.999759,232.115283 L276.323976,260.44042 C277.07746,261.193905 277.493303,262.195791 277.493303,263.262998 C277.494223,264.329285 277.07746,265.333931 276.323976,266.087416 L276.323976,266.087416 Z M276.919219,257.590242 L248.898604,229.599067 C248.767964,229.469347 248.612483,229.388386 248.448722,229.334106 C248.332801,229.295466 248.2132,229.264185 248.090839,229.264185 C247.799197,229.264185 247.506636,229.376426 247.283074,229.598147 L246.383309,230.498833 L233.074505,243.807636 C232.321021,244.561121 231.319134,244.976964 230.251928,244.976964 C229.169081,244.976964 228.201235,244.580441 227.45051,243.829716 L226.363984,242.74319 C224.816534,241.19666 224.825734,238.671244 226.383304,237.113674 L245.799105,217.693273 L247.854398,215.63798 C247.927998,215.56346 248.006199,215.494459 248.080719,215.421779 C252.797589,210.81899 259.005788,208.283454 265.608669,208.283454 C272.314591,208.283454 278.62123,210.895351 283.36202,215.63798 C288.104649,220.38061 290.715626,226.685409 290.715626,233.392251 C290.715626,240.099093 288.104649,246.403893 283.36202,251.146522 L276.919219,257.590242 L276.919219,257.590242 Z" id="Shape" fill="url(#linearGradient-1)" fill-rule="nonzero"></path>
                <g id="Others" transform="translate(0.000000, 311.000000)">
                    <g id="Rectangle-path-Copy" opacity="0.6" transform="translate(10.000000, 0.000000)">
                        <g id="path-3-link" stroke-width="2" stroke="#FB5632">
                            <rect id="path-3" x="0.499346" y="0" width="71.7455313" height="7.2"></rect>
                        </g>
                        <g id="path-3-link">
                            <rect id="path-3" x="0.499346" y="0" width="71.7455313" height="7.2"></rect>
                        </g>
                    </g>
                    <g id="Rectangle-path" opacity="0.8" transform="translate(4.000000, 7.000000)">
                        <g id="path-4-link" stroke-width="2" stroke="#FB5632">
                            <rect id="path-4" x="0.37472752" y="0.25816948" width="83.9947683" height="8.22857143"></rect>
                        </g>
                        <g id="path-4-link">
                            <rect id="path-4" x="0.37472752" y="0.25816948" width="83.9947683" height="8.22857143"></rect>
                        </g>
                    </g>
                    <rect id="Rectangle-path" stroke="#FB5632" stroke-width="2" x="0" y="15.3831767" width="93.7066634" height="53.3105229"></rect>
                    <g id="Group" transform="translate(0.000000, 14.516339)" stroke="#FB5632" stroke-width="2">
                        <path d="M93.7941579,11.6156261 C87.757034,11.6156261 82.7698446,6.67465083 82.7698446,0.693470216" id="Shape"></path>
                        <path d="M82.7698446,54.0039931 C82.7698446,48.0228125 87.757034,43.0818372 93.7941579,43.0818372" id="Shape"></path>
                        <path d="M0.0874945503,11.6156261 C6.12461852,11.6156261 11.1118079,6.67465083 11.1118079,0.693470216" id="Shape"></path>
                        <path d="M11.3742915,54.0039931 C11.3742915,48.0228125 6.38710217,43.0818372 0.349978201,43.0818372" id="Shape"></path>
                    </g>
                    <path d="M55.3386265,29.252581 L43.815964,29.252581 L38.5831953,29.252581 C37.6846391,29.252581 36.9975078,29.9402496 36.9975078,30.7866109 C36.9975078,31.6329722 37.6846391,32.3206407 38.5303391,32.3206407 L43.815964,32.3206407 C46.3002078,32.3206407 48.4144578,33.9604657 49.101589,36.1821641 L38.4774828,36.1821641 C37.6317828,36.1821641 36.9446516,36.8698326 36.9446516,37.7161939 C36.9446516,38.5625552 37.6317828,39.2502238 38.4774828,39.2502238 L49.2601578,39.2502238 C48.678739,41.6835125 46.4587765,43.4820302 43.8688203,43.4820302 L38.3189141,43.4820302 C37.6846391,43.4820302 37.1560766,43.8523133 36.8917953,44.3812891 C36.6275141,44.9631624 36.7332266,45.5979334 37.1560766,46.0211141 L46.0887828,55.6484737 C46.4059203,55.9658592 46.775914,56.1245519 47.198764,56.1245519 C47.5687578,56.1245519 47.9387515,55.9658592 48.255889,55.7013713 C48.890164,55.1194979 48.890164,54.1673414 48.3616015,53.5325705 L41.8602828,46.5500899 L43.815964,46.5500899 C46.0607855,46.5500899 48.0929248,45.6986965 49.6259804,44.3045837 C51.0528879,43.0069986 52.0474316,41.2392474 52.3786765,39.2502238 L55.3386265,39.2502238 C56.1843265,39.2502238 56.8714577,38.5625552 56.8714577,37.7161939 C56.8714577,36.8698326 56.1843265,36.1821641 55.3386265,36.1821641 L52.3258202,36.1821641 C52.0086827,34.7539294 51.3744077,33.4314899 50.4229952,32.3206407 L55.3386265,32.3206407 C56.1843265,32.3206407 56.8714577,31.6329722 56.8714577,30.7866109 C56.8714577,29.9402496 56.1843265,29.252581 55.3386265,29.252581 Z" id="Shape" fill="#FB5632" fill-rule="nonzero"></path>
                </g>
                <path d="M123.416689,387.321367 C122.67264,388.612512 121.972357,389.991193 121.097005,391.260454 C120.812515,391.654363 120.068465,392.004504 119.608905,391.938852 C119.171229,391.873201 118.689785,391.304222 118.49283,390.844661 C118.361528,390.516404 118.580366,389.969309 118.77732,389.597284 C119.433835,388.37179 120.134117,387.190064 120.790631,386.052106 C118.799204,384.695309 116.807777,383.491699 114.969536,382.069251 C107.047594,375.898014 102.430109,367.801002 101.357802,357.843865 C100.154192,346.683119 101.926781,336.0257 107.59469,326.156098 C108.776416,324.099019 108.360623,321.998173 106.544266,320.466306 C105.909636,319.91921 105.253121,319.350231 104.72791,318.693717 C103.589951,317.249385 103.480532,315.651866 104.706026,314.295069 C105.712681,313.178995 106.960059,312.194223 108.273088,311.428289 C111.271171,309.677584 114.597511,308.714696 117.967619,307.948762 C120.418606,307.379783 122.891478,306.985874 125.342465,306.460663 C125.736374,306.373128 126.130283,306.154289 126.45854,305.935451 C129.281552,304.053443 132.235868,302.499692 135.649743,302.062016 C136.525096,301.952597 137.4661,301.996364 138.341453,302.127667 C139.742017,302.346505 140.770556,303.134323 141.361419,304.469236 C141.470838,304.688074 141.820979,304.950679 142.061701,304.928796 C148.889452,304.688074 155.673436,305.081982 162.479303,305.519659 C169.175751,305.957335 175.609593,307.467318 181.977784,309.414978 C183.925443,310.005841 185.763684,310.990613 187.580041,311.953501 C188.521045,312.456829 189.35263,313.222762 190.074796,314.032464 C191.453477,315.608098 191.409709,317.271269 190.074796,318.868787 C189.615236,319.415883 189.046257,319.897327 188.499161,320.356887 C186.595269,321.954405 186.157593,324.033368 187.40497,326.177982 C192.897808,335.719326 194.757933,346.070372 193.729394,356.880977 C192.525784,369.529824 186.091941,378.939865 175.128149,385.308056 C174.821776,385.483126 174.515402,385.658197 174.121493,385.898919 C174.865543,387.190064 175.587709,388.437442 176.287991,389.706703 C176.747551,390.516404 176.594365,391.260454 175.959734,391.720014 C175.237568,392.26711 174.318448,392.048271 173.793236,391.194803 C173.027303,389.903657 172.283253,388.590628 171.539203,387.299483 C155.498365,393.667674 139.545062,393.667674 123.416689,387.321367 L123.416689,387.321367 Z M110.797474,322.723674 C111.149431,324.659434 110.907461,326.507205 109.917583,328.178998 C106.046064,334.69019 104.110304,341.773312 103.73635,349.318376 C103.472383,354.707708 103.912328,360.00905 105.760099,365.134415 C108.949703,373.955321 115.086942,380.09256 123.401911,384.184052 C129.099205,386.977706 135.148454,388.451523 141.439674,389.023452 C150.458556,389.837351 159.301459,389.023452 167.8364,385.81185 C174.149618,383.436145 179.670933,379.85059 183.938404,374.549247 C188.425847,369.005935 190.735561,362.604728 191.175506,355.521607 C191.747435,346.54672 190.361607,337.923789 185.98415,329.960777 C184.730305,327.673061 183.586447,325.451336 184.180374,322.745672 C172.235855,326.947151 159.93938,327.937028 147.510921,327.937028 C135.060465,327.915031 122.719996,326.925153 110.797474,322.723674 L110.797474,322.723674 Z M119.653016,313.445861 C120.25963,312.075363 120.843777,310.839668 121.382989,309.603974 C118.34992,309.806178 111.811971,311.715888 109.228246,313.243657 C108.441894,313.715467 107.700478,314.299614 107.048929,314.973629 C106.217644,315.849849 106.150242,316.838405 106.959061,317.737092 C107.67801,318.523443 108.509296,319.332262 109.475385,319.736671 C111.677168,320.680292 113.946353,321.601447 116.28294,322.185593 C125.179942,324.477246 134.279149,325.083859 143.423291,325.330998 C150.320714,325.510736 157.218138,325.263597 164.093094,324.589581 C169.46275,324.072836 174.832406,323.331419 180.044791,321.826119 C182.583582,321.107169 185.122373,320.320818 187.211821,318.590845 C188.919326,317.175413 188.964261,315.715046 187.279222,314.299614 C184.897701,312.277568 181.954501,311.536151 178.921432,310.659931 C180.4492,313.333525 180.494134,313.513263 179.977389,315.692579 C180.786208,316.456463 181.572559,317.220347 182.493713,318.096567 C181.415289,318.433575 180.584003,318.680714 179.775185,318.95032 C179.25844,319.130057 178.876498,319.062656 178.449621,318.658246 C178.135081,318.343706 177.550934,317.939297 177.236394,318.051633 C173.147367,319.287327 169.238078,318.456042 165.373724,317.175413 C164.654774,316.928274 163.958291,316.6362 163.261809,316.389061 C163.194407,316.47893 163.149473,316.568799 163.082071,316.658668 C164.138029,319.152524 166.699287,319.82654 169.058341,321.062234 C166.654353,321.331841 164.497504,321.556512 162.115983,321.803651 C162.542859,321.57898 162.767531,321.444176 163.059604,321.286906 C161.801442,320.163547 160.700551,319.040188 160.341076,317.400084 C160.138871,316.456463 159.959134,316.456463 159.060447,316.838405 C157.532678,317.489953 155.982443,318.23137 154.387274,318.590845 C152.163023,319.085123 149.871371,319.26486 147.512317,319.579401 C148.703077,321.623914 150.99473,321.556512 152.881973,322.275462 L144.119773,322.275462 C144.838723,320.657825 144.479248,319.916408 142.771742,319.579401 C142.187596,319.467065 141.603449,319.399663 141.019303,319.377196 C138.053635,319.332262 135.200303,319.938876 132.504242,321.129636 C130.549598,321.983389 128.774691,321.129636 126.909915,321.17457 C126.887448,321.084702 126.86498,320.994833 126.842513,320.904964 C127.718733,320.29835 128.61742,319.691737 129.49364,319.10759 C128.931961,317.984231 128.010806,317.467486 126.887448,317.669691 C124.820467,318.006698 122.798421,318.051633 121.068448,316.546332 C120.956113,316.433996 120.731441,316.411529 120.551703,316.411529 C117.967978,316.456463 115.40672,316.681135 113.025199,317.849428 C112.800527,317.961764 112.485986,318.051633 112.261315,317.961764 C111.407562,317.669691 110.598744,317.287749 109.767458,316.950741 C111.02562,315.041031 114.036222,313.985073 119.653016,313.445861 L119.653016,313.445861 Z M148.330777,316.788901 C149.243757,316.695262 150.976078,316.695262 152.638169,316.320706 C154.487538,315.899331 156.360317,315.384317 158.022408,314.518157 C160.620889,313.183802 160.55066,311.100335 158.022408,309.625522 C157.273297,309.180737 156.453956,308.829591 155.634615,308.595493 C150.7888,307.12068 145.896165,307.09727 140.98012,308.150708 C139.20098,308.525264 137.46866,309.087098 136.064075,310.304404 C134.72972,311.451481 134.706311,312.832656 136.087485,313.909504 C136.860006,314.518157 137.772986,315.009761 138.685966,315.360907 C141.495134,316.461165 144.491581,316.742082 148.330777,316.788901 L148.330777,316.788901 Z M159.260026,307.913843 C159.741381,309.438134 160.222736,310.668263 160.463414,311.925134 C160.570382,312.593683 160.757575,312.96807 161.345898,313.262232 C164.822351,315.134168 168.512739,316.230588 172.443805,316.471265 C173.968096,316.551491 175.545871,316.364297 177.016678,315.98991 C178.407259,315.642265 178.728162,314.412135 177.765452,313.315716 C177.04342,312.486715 176.160936,311.764683 175.224968,311.203102 C171.695031,309.11723 167.844191,308.02081 163.779415,307.699907 C162.228382,307.592939 160.677349,307.833617 159.260026,307.913843 L159.260026,307.913843 Z M124.764839,315.980668 C127.473124,315.79838 130.285574,314.418196 132.99386,312.855724 C133.176148,312.751559 133.280313,312.386982 133.306354,312.12657 C133.462601,310.590139 134.061549,309.209955 135.259444,308.298513 C136.535463,307.334988 137.96773,306.605835 139.347913,305.746475 C139.660408,305.564187 139.946861,305.303774 140.233314,305.095445 C139.92082,304.730868 139.634367,304.13192 139.26979,304.079838 C138.384389,303.923591 137.394823,303.819426 136.509422,304.027755 C131.457429,305.173568 127.212712,307.751648 123.645067,311.449499 C123.202367,311.91824 122.811749,312.465106 122.499254,313.011971 C121.431565,314.886938 122.108636,315.980668 124.764839,315.980668 L124.764839,315.980668 Z" id="XMLID_51_" fill="url(#linearGradient-1)" fill-rule="nonzero"></path>
                <g id="Group" transform="translate(1.000000, 411.000000)" fill-rule="nonzero" fill="#FB5632">
                    <path d="M66.0357927,29.4688831 L25.3963442,29.4688831 C18.0692218,29.4688831 12.1062564,35.4495584 12.1062564,42.8032332 L12.1062564,67.9179803 C12.1062564,69.6672 13.5223715,71.090294 15.2675552,71.090294 L76.1696758,71.090294 C77.9138406,71.090294 79.3309745,69.6672 79.3309745,67.9179803 L79.3309745,42.8032332 C79.3299558,35.4495584 73.3669903,29.4688831 66.0357927,29.4688831 L66.0357927,29.4688831 Z M31.3939485,67.4119231 L31.3939485,63.5464644 L34.4666127,63.5464644 L34.4666127,67.4119231 L31.3939485,67.4119231 L31.3939485,67.4119231 Z M17.1920455,67.4119231 L17.1920455,45.978614 L26.6667727,45.978614 L25.0010545,60.4354909 C24.9837352,60.5775958 25.0285618,60.7207231 25.1253467,60.8290909 C25.2200939,60.9364364 25.3576303,60.9998213 25.5012794,60.9998213 C26.6209273,60.9998213 27.5337612,61.9158358 27.5337612,63.0393849 C27.5337612,63.3174608 27.7578945,63.5464644 28.0360236,63.5464644 L30.3863673,63.5464644 L30.3863673,67.4119231 L17.1920455,67.4119231 L17.1920455,67.4119231 Z M13.1138376,43.3113351 L16.6632945,43.3113351 C16.6724636,43.3113351 16.6806139,43.3154244 16.689783,43.3154244 C16.6989521,43.3154244 16.7060836,43.3113351 16.7162715,43.3113351 L26.9744467,43.3113351 L26.7829145,44.9685444 L13.1138376,44.9685444 L13.1138376,43.3113351 L13.1138376,43.3113351 Z M29.4765897,30.4840644 C29.4827024,30.4840644 29.4867776,30.4779304 29.4949279,30.4779304 L56.9023594,30.4779304 C55.5962733,31.0207917 54.39716,31.7670982 53.3396582,32.6759564 L22.5009491,32.6759564 C24.4855479,31.2937558 26.8858121,30.4840644 29.4765897,30.4840644 L29.4765897,30.4840644 Z M21.2447836,33.686026 L52.2872503,33.686026 C51.659677,34.3566795 51.1013812,35.0937849 50.6215321,35.8840519 L19.3233497,35.8840519 C19.8734952,35.0764052 20.5245006,34.3423668 21.2447836,33.686026 L21.2447836,33.686026 Z M28.4975345,62.5333278 C28.2866455,61.2738078 27.3065715,60.2719169 26.0616127,60.0388239 L27.4492018,47.9772842 L38.4093218,47.9772842 L39.8009861,60.0388239 C38.5529709,60.2729392 37.5718782,61.2738078 37.3620079,62.5333278 L28.4975345,62.5333278 L28.4975345,62.5333278 Z M38.29318,46.9641475 L27.5684,46.9641475 L27.9871218,43.3154244 L27.9983285,43.3154244 L34.7793806,43.3154244 L37.8724206,43.3154244 L38.29318,46.9641475 L38.29318,46.9641475 Z M18.7049455,36.8941216 L50.0632364,36.8941216 C49.7148109,37.5974899 49.4244564,38.3284613 49.2023606,39.0931699 L17.765623,39.0931699 C18.0080945,38.3264166 18.3249376,37.5923782 18.7049455,36.8941216 L18.7049455,36.8941216 Z M17.5007382,40.1073288 L48.9425697,40.1073288 C48.7948455,40.8168312 48.7204739,41.5518919 48.6929667,42.3002431 L17.2185339,42.3002431 C17.2501164,41.5488249 17.3397697,40.8178535 17.5007382,40.1073288 L17.5007382,40.1073288 Z M35.4752127,63.5464644 L37.8245376,63.5464644 C38.1016479,63.5464644 38.3298564,63.3174608 38.3298564,63.0393849 C38.3298564,61.9158358 39.2396339,60.9998213 40.3603006,60.9998213 C40.5059873,60.9998213 40.6404673,60.9364364 40.7382709,60.8290909 C40.8319994,60.7217455 40.8778448,60.5775958 40.8605255,60.4354909 L39.1927697,45.978614 L48.6685158,45.978614 L48.6685158,67.4129455 L35.4752127,67.4129455 L35.4752127,63.5464644 L35.4752127,63.5464644 Z M39.0756091,44.9685444 L38.8850958,43.3154244 L40.9053521,43.3154244 L42.7829782,43.3154244 L44.3743248,43.3154244 L45.8454545,43.3154244 L47.317603,43.3154244 L48.9069121,43.3154244 L50.7865758,43.3154244 L52.7477424,43.3154244 L52.7477424,44.9685444 L39.0756091,44.9685444 L39.0756091,44.9685444 Z M52.7711745,42.3002431 L49.7015667,42.3002431 C49.9562636,36.1191896 54.7496606,31.1046234 60.8206176,30.5382483 C56.2258842,32.5154494 52.9718758,37.0198691 52.7711745,42.3002431 L52.7711745,42.3002431 Z M24.2807715,30.5321143 C22.9940424,31.0862213 21.8183612,31.8407065 20.7781788,32.7485423 C20.7150139,32.7843242 20.6630558,32.832374 20.6212855,32.8926919 C19.614723,33.7984831 18.7467158,34.8514909 18.0519024,36.0282016 C17.9958691,36.0823855 17.9581739,36.1519044 17.9306667,36.2265351 C17.3754273,37.2049122 16.9454988,38.2589423 16.6500503,39.3702234 C16.6143927,39.441787 16.5879042,39.5153953 16.5879042,39.5982047 C16.5879042,39.602294 16.588923,39.6043387 16.588923,39.6043387 C16.3749776,40.4743481 16.2476291,41.3740052 16.2119715,42.3002431 L13.1250442,42.3002431 C13.3736285,36.1089662 18.1945327,31.0862213 24.2807715,30.5321143 L24.2807715,30.5321143 Z M13.1138376,67.9190026 L13.1138376,45.978614 L16.185483,45.978614 L16.185483,67.9190026 C16.185483,68.1970784 16.4126727,68.4260821 16.6908018,68.4260821 L49.171797,68.4260821 C49.4509448,68.4260821 49.6771158,68.1970784 49.6771158,67.9190026 L49.6771158,45.978614 L52.7487612,45.978614 L52.7487612,70.0792021 L15.2675552,70.0792021 C14.0806673,70.0792021 13.1138376,69.1090036 13.1138376,67.9190026 L13.1138376,67.9190026 Z M78.3223745,67.9190026 C78.3223745,69.1090036 77.3555448,70.0792021 76.168657,70.0792021 L53.7553236,70.0792021 L53.7553236,42.8032332 C53.7553236,36.0097995 59.2639097,30.4779304 66.0357927,30.4779304 C72.8107321,30.4779304 78.3223745,36.0097995 78.3223745,42.8032332 L78.3223745,67.9190026 L78.3223745,67.9190026 Z" id="Shape"></path>
                    <path d="M35.9092164,52.2557673 C35.9092164,50.6057143 34.5735855,49.2644073 32.9292618,49.2644073 C31.2869758,49.2644073 29.9523636,50.6057143 29.9523636,52.2557673 C29.9523636,53.1615584 30.3578412,54.0039647 31.0546921,54.5703397 L29.9523636,59.5429901 C29.9167061,59.6932738 29.9544012,59.8496914 30.0501673,59.9682826 C30.1459333,60.0868738 30.29162,60.1594597 30.4444382,60.1594597 L35.4181606,60.1594597 C35.5719976,60.1594597 35.7156467,60.0878961 35.8114127,59.9682826 C35.9071788,59.8496914 35.9438552,59.6932738 35.9122727,59.5409455 L34.8068879,54.5703397 C35.5037388,54.0039647 35.9092164,53.1636031 35.9092164,52.2557673 L35.9092164,52.2557673 Z M31.0720115,59.1463231 L32.1101564,54.4629943 C32.1590582,54.2544374 32.0673673,54.0387242 31.8870418,53.9242223 C31.3073515,53.5582255 30.9599448,52.9356218 30.9599448,52.2567896 C30.9599448,51.168 31.8442527,50.2795886 32.9302806,50.2795886 C34.0183461,50.2795886 34.9006164,51.1669777 34.9006164,52.2567896 C34.9006164,52.9356218 34.5552473,53.5592478 33.9735194,53.9242223 C33.7931939,54.0387242 33.701503,54.2544374 33.7483673,54.4629943 L34.7885497,59.1463231 L31.0720115,59.1463231 L31.0720115,59.1463231 Z" id="Shape"></path>
                    <path d="M75.5380273,58.0882036 C75.8171752,58.0882036 76.0443648,57.8602223 76.0443648,57.5801018 L76.0443648,47.2923179 C76.0443648,47.0142421 75.8171752,46.7852384 75.5380273,46.7852384 C75.260917,46.7852384 75.0367836,47.0142421 75.0367836,47.2923179 L75.0367836,57.5801018 C75.0357648,57.8612447 75.2598982,58.0882036 75.5380273,58.0882036 L75.5380273,58.0882036 Z" id="Shape"></path>
                    <path d="M75.5380273,64.4052281 C75.8171752,64.4052281 76.0443648,64.1772468 76.0443648,63.8971262 L76.0443648,60.7115221 C76.0443648,60.4334462 75.8171752,60.2044426 75.5380273,60.2044426 C75.260917,60.2044426 75.0367836,60.4334462 75.0367836,60.7115221 L75.0367836,63.8971262 C75.0357648,64.1772468 75.2598982,64.4052281 75.5380273,64.4052281 L75.5380273,64.4052281 Z" id="Shape"></path>
                    <path d="M27.856717,23.213199 C27.6244333,23.3675719 27.5612685,23.6824519 27.7181618,23.9165673 L28.4038061,24.9440166 C28.5026285,25.0922556 28.6615594,25.1689309 28.8245655,25.1689309 C28.9203315,25.1689309 29.0171164,25.1423501 29.1037133,25.0850992 C29.3339594,24.9286816 29.3971242,24.6138016 29.2422685,24.3837756 L28.5556055,23.3501922 C28.4007497,23.1191439 28.0900194,23.0567813 27.856717,23.213199 L27.856717,23.213199 Z" id="Shape"></path>
                    <path d="M26.276577,21.7461444 C26.3713242,21.8943834 26.5322927,21.9710587 26.6952988,21.9710587 C26.7910648,21.9710587 26.8888685,21.9444779 26.9754655,21.8862047 C27.2077491,21.732854 27.2688764,21.417974 27.1140206,21.1838587 L22.1881812,13.7892904 C22.0343442,13.5582421 21.7205576,13.4928125 21.4872552,13.6482078 C21.2559903,13.8025808 21.194863,14.1154161 21.3517564,14.3515761 L26.276577,21.7461444 L26.276577,21.7461444 Z" id="Shape"></path>
                    <path d="M78.4374976,27.7646462 L77.2883048,28.5344665 C77.0550024,28.6898618 76.9928564,29.0047418 77.1497497,29.2368125 C77.2475533,29.3830068 77.4044467,29.4607044 77.5705091,29.4607044 C77.6642376,29.4607044 77.7620412,29.435146 77.8486382,29.3799397 L78.9978309,28.6070525 C79.228077,28.4547242 79.290223,28.1398442 79.1374048,27.9057288 C78.9835679,27.6746805 78.6708,27.6102732 78.4374976,27.7646462 L78.4374976,27.7646462 Z" id="Shape"></path>
                    <path d="M82.2976848,25.7854005 C82.1458855,25.5543522 81.8320988,25.4899449 81.5987964,25.6443179 L80.2825224,26.52864 C80.0502388,26.683013 79.9870739,26.997893 80.1439673,27.2320083 C80.2407521,27.3761579 80.399683,27.4569226 80.5637079,27.4569226 C80.6584552,27.4569226 80.7572776,27.4282971 80.841837,27.3700239 L82.1581109,26.4867242 C82.3914133,26.3333735 82.4515218,26.0184935 82.2976848,25.7854005 L82.2976848,25.7854005 Z" id="Shape"></path>
                    <path d="M51.4467503,21.959813 C51.4803703,21.969014 51.5139903,21.9710587 51.5476103,21.9710587 C51.7819315,21.9710587 51.9918018,21.80544 52.0396848,21.5651906 L54.7934685,7.67366649 C54.8474642,7.40070234 54.6691764,7.13284987 54.3961412,7.07866597 C54.1271812,7.01937039 53.85924,7.19930182 53.8042255,7.47635532 L51.0514606,21.3668571 C50.9974648,21.6428883 51.1737152,21.9066514 51.4467503,21.959813 L51.4467503,21.959813 Z" id="Shape"></path>
                    <path d="M50.8120455,25.1587075 C50.8446467,25.1658639 50.8792855,25.1679086 50.9118867,25.1679086 C51.1462079,25.1679086 51.3560782,25.0033122 51.40498,24.7620405 L51.6107752,23.7325465 C51.6657897,23.45856 51.4885206,23.1917299 51.2154855,23.137546 C50.9434691,23.0802951 50.6785842,23.2602265 50.6215321,23.5331906 L50.415737,24.563707 C50.36276,24.8356488 50.5390103,25.1035013 50.8120455,25.1587075 L50.8120455,25.1587075 Z" id="Shape"></path>
                    <path d="M7.46669636,42.0497704 L6.78716485,41.9168665 C6.51820485,41.8596156 6.24924485,42.039547 6.19524909,42.3166005 C6.14125333,42.5885423 6.31852242,42.8553725 6.59053879,42.9095564 L7.27108909,43.0445049 C7.3036903,43.0516613 7.33527273,43.053706 7.36991152,43.053706 C7.60423273,43.053706 7.81614061,42.8860426 7.86198606,42.6478379 C7.91598182,42.3718068 7.73769394,42.105999 7.46669636,42.0497704 L7.46669636,42.0497704 Z" id="Shape"></path>
                    <path d="M4.64159758,41.48544 L3.43840909,41.2472353 C3.17250545,41.1889621 2.90150788,41.3688935 2.84751212,41.6449247 C2.79249758,41.9199335 2.96976667,42.1836966 3.24178303,42.2378805 L4.44497152,42.4801745 C4.47757273,42.4873309 4.51119273,42.4893756 4.54481273,42.4893756 C4.78015273,42.4893756 4.99002303,42.3237569 5.03688727,42.0835075 C5.09190182,41.8074764 4.91463273,41.5416686 4.64159758,41.48544 L4.64159758,41.48544 Z" id="Shape"></path>
                    <path d="M40.1432988,21.9710587 C40.1769188,21.9710587 40.2105388,21.969014 40.2441588,21.959813 C40.5171939,21.9056291 40.6934442,21.641866 40.6404673,21.3668571 L37.8846461,7.47533299 C37.8306503,7.19827948 37.5596527,7.01937039 37.2906927,7.07764364 C37.0176576,7.13182753 36.8424261,7.39968 36.8964218,7.67264416 L39.6502055,21.5641683 C39.6991073,21.80544 39.9079588,21.9710587 40.1432988,21.9710587 L40.1432988,21.9710587 Z" id="Shape"></path>
                    <path d="M40.0791152,23.7305018 L40.2849103,24.7620405 C40.3327933,25.0033122 40.5426636,25.1679086 40.7780036,25.1679086 C40.8106048,25.1679086 40.8452436,25.1658639 40.8768261,25.1587075 C41.1488424,25.102479 41.3281491,24.8376935 41.2741533,24.563707 L41.0683582,23.5321683 C41.0143624,23.2592042 40.7423461,23.0802951 40.4754236,23.1365236 C40.2023885,23.1917299 40.0261382,23.4575377 40.0791152,23.7305018 L40.0791152,23.7305018 Z" id="Shape"></path>
                    <path d="M88.2525,41.2472353 L87.0513491,41.48544 C86.7772952,41.5416686 86.6010448,41.806454 86.6540218,42.0824852 C86.7029236,42.3227345 86.9117752,42.4883532 87.1471152,42.4883532 C87.1807352,42.4883532 87.2133364,42.4863086 87.2469564,42.4791522 L88.4501448,42.2368582 C88.7221612,42.1826743 88.8984115,41.9178888 88.8444158,41.6439023 C88.7894012,41.3688935 88.52146,41.1889621 88.2525,41.2472353 L88.2525,41.2472353 Z" id="Shape"></path>
                    <path d="M84.9037442,41.9168665 L83.8737497,42.1203117 C83.6007145,42.1744956 83.4214079,42.4433704 83.47846,42.7163345 C83.5243055,42.9555616 83.7341758,43.1242473 83.9715533,43.1242473 C84.0031358,43.1242473 84.035737,43.1181132 84.0703758,43.1109569 L85.1003703,42.908534 C85.3723867,42.8543501 85.548637,42.58752 85.4946412,42.3135335 C85.4406455,42.039547 85.1727042,41.8596156 84.9037442,41.9168665 L84.9037442,41.9168665 Z" id="Shape"></path>
                    <path d="M64.7154436,21.8862047 C64.8010218,21.9424332 64.8988255,21.9710587 64.9935727,21.9710587 C65.1586164,21.9710587 65.3185661,21.8943834 65.4133133,21.7461444 L70.3432279,14.3515761 C70.4970648,14.1164384 70.4359376,13.8036031 70.2036539,13.6482078 C69.9703515,13.4928125 69.6575836,13.5551751 69.5047655,13.7892904 L64.5758697,21.1838587 C64.4210139,21.417974 64.48316,21.732854 64.7154436,21.8862047 L64.7154436,21.8862047 Z" id="Shape"></path>
                    <path d="M63.1353036,23.3501922 L62.4506782,24.3837756 C62.2948036,24.6158462 62.3569497,24.9276592 62.5892333,25.0850992 C62.6737927,25.1423501 62.7726152,25.1689309 62.8683812,25.1689309 C63.0324061,25.1689309 63.1903182,25.0902109 63.2881218,24.9440166 L63.9727473,23.9165673 C64.1286218,23.6824519 64.0664758,23.3685943 63.8352109,23.213199 C63.6019085,23.0547366 63.2891406,23.1191439 63.1353036,23.3501922 L63.1353036,23.3501922 Z" id="Shape"></path>
                    <path d="M10.0910939,25.6484073 C9.86186667,25.4899449 9.54502364,25.5543522 9.39220545,25.7864229 C9.23938727,26.0205382 9.30255212,26.3343958 9.53279818,26.4897912 L10.8470345,27.3700239 C10.9326127,27.4303418 11.0304164,27.4569226 11.1251636,27.4569226 C11.2891885,27.4569226 11.4481194,27.3761579 11.545923,27.2320083 C11.69976,26.997893 11.6376139,26.6840353 11.4073679,26.52864 L10.0910939,25.6484073 L10.0910939,25.6484073 Z" id="Shape"></path>
                    <path d="M12.5535042,27.9057288 C12.4017048,28.1398442 12.4638509,28.4537018 12.6930782,28.6070525 L13.6446261,29.2449912 C13.7302042,29.3022421 13.8259703,29.3288229 13.9237739,29.3288229 C14.0847424,29.3288229 14.2457109,29.2501029 14.3445333,29.1039086 C14.4973515,28.8697932 14.4341867,28.5559356 14.2059782,28.4025849 L13.2534115,27.7646462 C13.0190903,27.6092509 12.7103976,27.6716135 12.5535042,27.9057288 L12.5535042,27.9057288 Z" id="Shape"></path>
                    <path d="M34.8293012,24.8571179 C34.9097855,25.0503397 35.0972424,25.1679086 35.2948873,25.1679086 C35.3580521,25.1679086 35.4222358,25.1556405 35.4874382,25.1300821 C35.7441727,25.0227366 35.8664273,24.727281 35.7604733,24.4676073 L27.5307048,4.53611221 C27.4237321,4.27950545 27.1293024,4.15171325 26.8715491,4.26314805 C26.6137958,4.36947117 26.49256,4.66390442 26.5995327,4.92357818 L34.8293012,24.8571179 L34.8293012,24.8571179 Z" id="Shape"></path>
                    <path d="M91.6521952,31.1864104 C91.54726,30.927759 91.2528303,30.8020114 90.9940582,30.9134462 L82.0674388,34.6245319 C81.8107042,34.7308551 81.6894685,35.0252883 81.7964412,35.2849621 C81.8779442,35.4792062 82.0654012,35.5967751 82.2630461,35.5967751 C82.3262109,35.5967751 82.3914133,35.5855294 82.455597,35.5569039 L91.3811976,31.8478629 C91.6369133,31.7425621 91.7591679,31.4460842 91.6521952,31.1864104 L91.6521952,31.1864104 Z" id="Shape"></path>
                    <path d="M56.2044897,25.1300821 C56.2676545,25.1556405 56.332857,25.1679086 56.3970406,25.1679086 C56.5957042,25.1679086 56.7821424,25.0513621 56.8626267,24.8571179 L65.0913764,4.92153351 C65.1983491,4.66288208 65.0781321,4.36640416 64.8203788,4.2590587 C64.5626255,4.15171325 64.2681958,4.27746078 64.1602042,4.53508987 L55.9314545,24.4676073 C55.8265194,24.7283034 55.9487739,25.0227366 56.2044897,25.1300821 L56.2044897,25.1300821 Z" id="Shape"></path>
                    <path d="M9.32904061,34.5008291 L0.697869697,30.9134462 C0.439097576,30.8020114 0.145686667,30.927759 0.0397327273,31.1864104 C-0.06724,31.4460842 0.0539957576,31.7425621 0.311749091,31.8478629 L8.94190121,35.4352457 C9.00608485,35.4618265 9.07128727,35.4710275 9.13445212,35.4710275 C9.33311576,35.4710275 9.51955394,35.354481 9.60003818,35.1612592 C9.70599212,34.9036301 9.58577515,34.6091969 9.32904061,34.5008291 L9.32904061,34.5008291 Z" id="Shape"></path>
                    <path d="M45.8454545,25.1679086 C46.1235836,25.1679086 46.3497545,24.9409496 46.3497545,24.6628738 L46.3497545,0.979399481 C46.3497545,0.701323636 46.1246024,0.473342338 45.8454545,0.473342338 C45.5663067,0.473342338 45.3431921,0.701323636 45.3431921,0.979399481 L45.3431921,24.6628738 C45.3431921,24.9409496 45.5673255,25.1679086 45.8454545,25.1679086 L45.8454545,25.1679086 Z" id="Shape"></path>
                    <path d="M70.3208145,25.6678317 C70.4186182,25.7669984 70.5500418,25.8150483 70.6763715,25.8150483 C70.8047388,25.8150483 70.9351436,25.7669984 71.0339661,25.6678317 L80.9050018,15.7603574 C81.1016279,15.5630462 81.1016279,15.2450992 80.9050018,15.0477881 C80.7083758,14.8504769 80.3905139,14.8504769 80.1928691,15.0477881 L70.3208145,24.9521953 C70.1241885,25.1505288 70.1241885,25.4705205 70.3208145,25.6678317 L70.3208145,25.6678317 Z" id="Shape"></path>
                    <path d="M20.5825715,25.590134 C20.6813939,25.6893008 20.8097612,25.7393953 20.9391473,25.7393953 C21.0675145,25.7393953 21.194863,25.6882784 21.2947042,25.590134 C21.4913303,25.3928229 21.4913303,25.0748758 21.2947042,24.8775647 L11.4990588,15.0477881 C11.3024327,14.8504769 10.9835521,14.8504769 10.7879448,15.0477881 C10.5913188,15.2450992 10.5913188,15.5630462 10.7879448,15.7603574 L20.5825715,25.590134 L20.5825715,25.590134 Z" id="Shape"></path>
                </g>
                <g id="Group-+-Group" transform="translate(223.000000, 300.000000)" fill-rule="nonzero" fill="url(#linearGradient-1)">
                    <g id="Group">
                        <path d="M44.2042553,0.988549451 L5.57765957,0.988549451 C2.98274468,0.988549451 0.871574468,3.08030769 0.871574468,5.65032967 L0.871574468,12.8563077 L0.871574468,14.8344396 L0.871574468,80.1086593 L0.871574468,82.0867912 L0.871574468,89.2927692 C0.871574468,91.8638242 2.98274468,93.9555824 5.57765957,93.9555824 L44.2042553,93.9555824 C46.7981277,93.9555824 48.9092979,91.8648571 48.9092979,89.2927692 L48.9092979,82.0867912 L48.9092979,80.1086593 L48.9092979,14.8344396 L48.9092979,12.8563077 L48.9092979,5.65032967 C48.9092979,3.08030769 46.7991702,0.988549451 44.2042553,0.988549451 L44.2042553,0.988549451 Z M2.86702128,14.8344396 L46.9128085,14.8344396 L46.9128085,80.1086593 L2.86702128,80.1086593 L2.86702128,14.8344396 L2.86702128,14.8344396 Z M46.9128085,89.2927692 C46.9128085,90.7761099 45.7003191,91.9774505 44.2042553,91.9774505 L5.57765957,91.9774505 C4.0826383,91.9774505 2.86806383,90.7761099 2.86806383,89.2927692 L2.86806383,82.0867912 L46.9138511,82.0867912 L46.9138511,89.2927692 L46.9128085,89.2927692 Z M2.86702128,12.8563077 L2.86702128,5.65032967 C2.86702128,4.16802198 4.08159574,2.96668132 5.57661702,2.96668132 L44.2042553,2.96668132 C45.7003191,2.96668132 46.9128085,4.16905495 46.9128085,5.65032967 L46.9128085,12.8563077 L2.86702128,12.8563077 L2.86702128,12.8563077 Z" id="Shape"></path>
                        <ellipse id="Oval" cx="24.8899149" cy="87.0326374" rx="2.99421277" ry="2.96668132"></ellipse>
                        <path d="M29.880617,6.92294505 L19.8992128,6.92294505 C19.3477021,6.92294505 18.9004468,7.36608791 18.9004468,7.91252747 C18.9004468,8.45896703 19.3477021,8.90210989 19.8992128,8.90210989 L29.880617,8.90210989 C30.4321277,8.90210989 30.879383,8.45896703 30.879383,7.91252747 C30.879383,7.36608791 30.4321277,6.92294505 29.880617,6.92294505 L29.880617,6.92294505 Z" id="Shape"></path>
                    </g>
                    <g id="Group" transform="translate(13.363636, 34.690476)">
                        <path d="M2.92194918,23.5697791 C2.55576314,23.5697791 2.19065412,23.4728416 1.86000967,23.2789666 C1.22026112,22.9039995 0.837919817,22.2403505 0.837919817,21.5042647 L0.837919817,2.16789652 C0.837919817,1.43181067 1.22026112,0.76816163 1.86000967,0.393194597 C2.50083524,0.0182275641 3.27305697,0.00544459707 3.92465272,0.359106685 L21.774068,10.0272908 C22.4525892,10.3948011 22.8575479,11.0712331 22.8575479,11.8360806 C22.8575479,12.6009281 22.4525892,13.2784254 21.774068,13.6448704 L3.92465272,23.3130545 C3.6080095,23.483494 3.26444083,23.5697791 2.92194918,23.5697791 L2.92194918,23.5697791 Z M2.92194918,1.16975984 C2.74424125,1.16975984 2.56761034,1.21663072 2.40821171,1.31037248 C2.0980306,1.49146451 1.91386056,1.81210394 1.91386056,2.16789652 L1.91386056,21.5031994 C1.91386056,21.858992 2.0980306,22.1796314 2.40821171,22.3617887 C2.71839283,22.5418155 3.09104097,22.548207 3.40660717,22.3788326 L21.2560225,12.7106486 C21.5845129,12.5327523 21.7805302,12.2057214 21.7805302,11.8360806 C21.7805302,11.4664398 21.5845129,11.1394089 21.2560225,10.9615126 L3.40660717,1.29332853 C3.25474767,1.21023924 3.08780992,1.16975984 2.92194918,1.16975984 L2.92194918,1.16975984 Z" id="Shape"></path>
                        <path d="M16.9921092,15.564446 C16.857482,15.564446 16.7228548,15.5154446 16.618384,15.4153114 L2.07864428,1.56709707 C1.86431774,1.3625696 1.85785564,1.02595147 2.06464305,0.813967262 C2.27143046,0.601983059 2.6139221,0.596656822 2.8260946,0.7990538 L17.3658344,14.6472681 C17.5801609,14.8517956 17.586623,15.1884137 17.3809126,15.4003979 C17.2742878,15.5101184 17.1331985,15.564446 16.9921092,15.564446 L16.9921092,15.564446 Z" id="Shape"></path>
                        <path d="M2.45236944,23.0211767 C2.31128011,23.0211767 2.17019079,22.9668491 2.06464305,22.8581939 C1.85893265,22.6462097 1.86431774,22.3095916 2.07972129,22.1050641 L16.6194611,8.25684982 C16.8327106,8.05445284 17.1752022,8.05871383 17.3809126,8.27176328 C17.586623,8.48374748 17.5812379,8.82036561 17.3658344,9.02489309 L2.8260946,22.8731074 C2.72162388,22.9721754 2.58699666,23.0211767 2.45236944,23.0211767 L2.45236944,23.0211767 Z" id="Shape"></path>
                    </g>
                </g>
                <g id="Low-interest" transform="translate(147.000000, 450.707107) rotate(135.000000) translate(-147.000000, -450.707107) translate(111.500000, 407.207107)" stroke="url(#linearGradient-1)">
                    <polygon id="Polygon-2" stroke-width="2.88" fill="#E63F46" fill-rule="nonzero" points="33.3965266 15.0672509 47.9002799 15.0672509 33.3862854 0.61874156 18.872291 15.0672509 33.3965266 15.0672509 34.4125799 86.7413958"></polygon>
                    <path d="M13.5930967,42.7352011 C10.4903524,39.6268052 5.47571116,39.6108751 2.39258194,42.6996202 C-0.690547278,45.7883653 -0.674646138,50.8121407 2.42809813,53.9205366 C5.5308424,57.0289325 10.5454837,57.0448626 13.6286129,53.9561175 C16.7117421,50.8673724 16.695841,45.843597 13.5930967,42.7352011 L13.5930967,42.7352011 Z" id="Oval-10" stroke-width="2.0736"></path>
                    <path d="M67.9213045,42.7352011 C64.8185602,39.6268052 59.8039189,39.6108751 56.7207897,42.6996202 C53.6376605,45.7883653 53.6535616,50.8121407 56.7563059,53.9205366 C59.8590502,57.0289325 64.8736914,57.0448626 67.9568206,53.9561175 C71.0399499,50.8673724 71.0240487,45.843597 67.9213045,42.7352011 L67.9213045,42.7352011 Z" id="Oval-10-Copy" stroke-width="2.0736"></path>
                </g>
            </g>
            <g id="noun_445415_fb5632" transform="translate(209.000000, 418.000000)" fill-rule="nonzero" fill="#FB5632">
                <path d="M63,1 C62.393695,1.03446 61.970131,1.310132 62,2 L62,17 L56.84375,17 C52.613846,13.271717 47.076619,11 41,11 C34.923382,11 29.386154,13.271717 25.15625,17 L6.8125,17 C6.354098,17.087467 5.991777,17.5334 6,18 L6,30 C6.000052,30.523584 6.476416,30.999948 7,31 L17.34375,31 C17.125478,32.299999 17,33.638335 17,35 C17,36.361657 17.125478,37.700006 17.34375,39 L0.8125,39 C0.1670167,39.11852 -0.2030859,39.982093 0.15625,40.53125 L18.15625,68.53125 C18.616131,69.253686 19.995031,68.856376 20,68 L20,53 L25.15625,53 C29.386154,56.728288 34.923382,59 41,59 C47.076619,59 52.613846,56.728288 56.84375,53 L75,53 C75.523584,52.999948 75.999948,52.523584 76,52 L76,40 C75.999948,39.476416 75.523584,39.000052 75,39 L64.65625,39 C64.874522,37.700006 65,36.361657 65,35 C65,33.638335 64.874522,32.299999 64.65625,31 L81,31 C81.728318,31.01228 82.253477,30.039764 81.84375,29.4375 L63.84375,1.4375 C63.665369,1.153056 63.335748,1.001183 63,1 Z M64,5.40625 L79.1875,29 L64.25,29 C63.277747,25.224582 61.399372,21.817549 58.875,19 L63,19 C63.523584,18.999948 63.999948,18.523584 64,18 L64,5.40625 Z M39.875,13 C40.250417,12.981 40.619826,13 41,13 C53.165566,13 63,22.83442 63,35 C63,47.1655 53.165566,57 41,57 C28.834435,57 19,47.1655 19,35 C19,23.214594 28.237083,13.589113 39.875,13 Z M8,19 L23.125,19 C20.600628,21.817549 18.722253,25.224582 17.75,29 L8,29 L8,19 Z M30.8125,23 C30.288901,23.04909 29.857163,23.570151 29.90625,24.09375 C29.955338,24.617349 30.476401,25.049087 31,25 L40.78125,25 C42.794724,25 45.38375,27.172165 45.90625,30 C40.881391,29.999995 35.822809,30 30.8125,30 C30.288901,30.04909 29.857163,30.570151 29.90625,31.09375 C29.955338,31.617349 30.476401,32.049087 31,32 L45.90625,32 C45.396784,34.842861 42.801946,37 40.78125,37 C37.498276,36.97864 34.123899,37.04462 30.875,36.96875 C30.117728,37.04245 29.730942,38.162092 30.28125,38.6875 L42.28125,50.6875 C42.650233,51.060265 43.324064,51.065685 43.698995,50.6989 C44.073927,50.332118 44.083317,49.658332 43.718755,49.281246 L33.4375,39 L40.78125,39 C44.165645,39 47.461168,35.970266 47.9375,32 L51,32 C51.528313,32.0075 52.014242,31.528365 52.014242,31 C52.014242,30.471635 51.528313,29.992528 51,30 L47.9375,30 C47.690315,28.004476 46.730667,26.254094 45.40625,25 L51,25 C51.528313,25.0075 52.014242,24.528365 52.014242,24 C52.014242,23.471635 51.528313,22.992528 51,23 C44.276542,22.999997 37.521679,23 30.8125,23 Z M2.84375,41 L17.75,41 C18.722253,44.775407 20.600628,48.182449 23.125,51 L19,51 C18.476416,51.000052 18.000052,51.476416 18,52 L18,64.5625 L2.84375,41 Z M64.25,41 L74,41 L74,51 L58.875,51 C61.399372,48.182449 63.277747,44.775407 64.25,41 Z" id="Shape"></path>
            </g>
            <g id="noun_472629_fb5632" transform="translate(8.000000, 506.000000)" fill-rule="nonzero" fill="#FB5632">
                <path d="M29.07537,1.07465 C21.65147,1.07465 14.23367,3.88485 8.57537,9.54335 C-2.7411297,20.85995 -2.7416297,39.25785 8.57537,50.57472 C19.17417,61.17372 35.97337,61.86002 47.35657,52.60602 L51.70037,56.91842 C51.21897,57.42712 50.69447,57.94132 50.20037,58.41842 C49.89477,58.80482 49.93767,59.42202 50.29437,59.76222 L77.138067,86.63722 C77.509867,87.02142 78.203767,87.02142 78.575567,86.63722 L85.638067,79.54342 C86.003567,79.17372 86.003567,78.50692 85.638067,78.13722 L58.76307,51.26222 C58.39337,50.89672 57.72657,50.89672 57.35677,51.26222 L55.95057,52.69972 L51.60677,48.35602 C60.86097,36.96905 60.17437,20.14225 49.57557,9.54335 C43.91707,3.88475 36.49947,1.07465 29.07557,1.07465 L29.07537,1.07465 Z M29.07537,3.04335 C35.98327,3.04335 42.89267,5.70475 48.16917,10.98095 C58.39177,21.20385 58.72177,37.56245 49.13787,48.16842 L47.16917,50.13722 C36.56337,59.72092 20.20437,59.39132 9.98157,49.16842 C-0.5709297,38.61585 -0.5706297,21.53345 9.98157,10.98095 C15.25777,5.70475 22.16757,3.04335 29.07537,3.04335 Z M17.57537,15.13715 C17.02307,15.13715 16.57537,15.58475 16.57537,16.13715 C16.57537,16.68955 17.02307,17.13715 17.57537,17.13715 L28.57537,17.13715 C30.95357,17.13715 33.96537,19.73865 34.48157,23.13715 L17.57537,23.13715 C17.02307,23.13715 16.57537,23.58485 16.57537,24.13715 C16.57537,24.68955 17.02307,25.13715 17.57537,25.13715 L34.48157,25.13715 C33.97077,28.54155 30.95647,31.13715 28.57537,31.13715 C24.88567,31.11415 21.10627,31.18415 17.45037,31.10615 C16.69307,31.18015 16.30617,32.29935 16.85657,32.82485 L30.85657,46.82492 C31.22477,47.20152 31.92977,47.27672 32.29417,46.85592 C32.63887,46.45782 32.66297,45.79472 32.29417,45.41832 L20.01287,33.13715 L28.57537,33.13715 C32.34557,33.13715 36.06737,29.65695 36.54417,25.13715 L41.57537,25.13715 C42.12767,25.13715 42.57537,24.68955 42.57537,24.13715 C42.57537,23.58485 42.12767,23.13715 41.57537,23.13715 L36.51287,23.13715 C36.24827,20.71825 35.07617,18.58465 33.45037,17.13715 L41.57537,17.13715 C42.12767,17.13715 42.57537,16.68955 42.57537,16.13715 C42.57537,15.58485 42.12767,15.13715 41.57537,15.13715 C33.21567,15.13705 24.72847,15.13725 17.57537,15.13715 L17.57537,15.13715 Z M50.29417,49.85602 L54.51287,54.10602 L53.10657,55.51222 L48.85657,51.26222 C49.32147,50.79632 49.80787,50.32912 50.29417,49.85602 Z M58.07537,53.38722 L83.512867,78.85602 L77.856567,84.51222 L52.41917,59.04342 C54.54067,56.92182 56.18307,55.27922 58.07537,53.38722 L58.07537,53.38722 Z" id="Shape"></path>
            </g>
            <g id="noun_683710_fb5632" transform="translate(111.000000, 511.000000)" stroke="#FB5632" stroke-width="2" stroke-linecap="round" stroke-linejoin="round">
                <rect id="Rectangle-path" x="29.999" y="0" width="6.668" height="8.888"></rect>
                <rect id="Rectangle-path" x="9.999" y="0" width="6.667" height="8.888"></rect>
                <rect id="Rectangle-path" x="50" y="0" width="6.667" height="8.888"></rect>
                <rect id="Rectangle-path" x="6.667" y="24.443" width="13.333" height="8.89"></rect>
                <rect id="Rectangle-path" x="6.667" y="33.333" width="13.333" height="8.89"></rect>
                <rect id="Rectangle-path" x="6.667" y="42.223" width="13.333" height="8.888"></rect>
                <rect id="Rectangle-path" x="6.667" y="51.11" width="13.333" height="8.888"></rect>
                <rect id="Rectangle-path" x="20" y="24.443" width="13.333" height="8.89"></rect>
                <rect id="Rectangle-path" x="20" y="33.333" width="13.333" height="8.89"></rect>
                <rect id="Rectangle-path" x="20" y="42.223" width="13.333" height="8.888"></rect>
                <rect id="Rectangle-path" x="20" y="51.11" width="13.333" height="8.888"></rect>
                <rect id="Rectangle-path" x="33.333" y="24.443" width="13.336" height="8.89"></rect>
                <rect id="Rectangle-path" x="33.333" y="33.333" width="13.336" height="8.89"></rect>
                <rect id="Rectangle-path" x="33.333" y="42.223" width="13.336" height="8.888"></rect>
                <rect id="Rectangle-path" x="33.333" y="51.11" width="13.336" height="8.888"></rect>
                <rect id="Rectangle-path" x="46.669" y="24.443" width="13.332" height="8.89"></rect>
                <rect id="Rectangle-path" x="46.669" y="33.333" width="13.332" height="8.89"></rect>
                <polygon id="Shape" points="56.667 4.444 56.667 8.888 50 8.888 50 4.444 36.667 4.444 36.667 8.888 29.999 8.888 29.999 4.444 16.666 4.444 16.666 8.888 9.999 8.888 9.999 4.444 0 4.444 0 17.777 66.668 17.777 66.668 4.444"></polygon>
                <path d="M63.333,53.33 L63.333,63.332 L63.333,53.33 Z" id="Shape"></path>
                <path d="M63.333,63.332 L57.05,69.617 L63.333,63.332 Z" id="Shape"></path>
                <path d="M63.333,63.332 L71.114,63.332 L63.333,63.332 Z" id="Shape"></path>
                <path d="M60.001,47.001 L60.001,42.223 L46.669,42.223 L46.669,51.111 L52.031,51.111 C54.226,49.078 56.958,47.619 60.001,47.001 Z" id="Shape"></path>
                <path d="M52.031,51.11 L46.669,51.11 L46.669,59.998 L47.005,59.998 C47.713,56.514 49.52,53.436 52.031,51.11 Z" id="Shape"></path>
                <path d="M46.669,63.334 C46.669,62.191 46.786,61.076 47.005,60 L6.667,60 L6.667,24.443 L60,24.443 L60,47.002 C61.076,46.783 62.191,46.667 63.333,46.667 C64.476,46.667 65.59,46.783 66.668,47.002 L66.668,17.777 L0,17.777 L0,66.668 L47.004,66.668 C46.786,65.591 46.669,64.476 46.669,63.334 Z" id="Shape"></path>
                <polygon id="Shape" points="73.818 45.009 75.119 51.547 68.58 52.847 75.119 51.547"></polygon>
                <path d="M78.73,56.956 C79.545,58.92 80,61.072 80,63.332 C80,72.541 72.539,80 63.333,80 C54.13,80 46.669,72.541 46.669,63.332 C46.669,54.128 54.13,46.665 63.333,46.665 C67.937,46.665 72.103,48.531 75.119,51.547 C72.102,48.531 67.936,46.665 63.333,46.665 C54.13,46.665 46.669,54.128 46.669,63.332 C46.669,72.541 54.13,80 63.333,80 C72.539,80 80,72.541 80,63.332 C80,61.072 79.545,58.92 78.73,56.956 Z" id="Shape"></path>
            </g>
            <g id="noun_895709_fb5632" transform="translate(7.000000, 615.000000)" fill-rule="nonzero" fill="#FB5632">
                <path d="M58.0616792,49 L73.9393762,49 C74.5272045,49 75,48.5207968 75,47.9297795 C75,47.3376973 74.5272045,46.8584941 73.9393762,46.8584941 L72.6307458,46.8584941 L72.6307458,33.0702205 C72.6307458,32.4792032 72.1558396,32 71.570122,32 L60.299015,32 C59.7111867,32 59.2383912,32.4792032 59.2383912,33.0702205 L59.2383912,46.8584941 L58.0616792,46.8584941 C57.4759615,46.8584941 57,47.3376973 57,47.9297795 C57,48.5207968 57.4759615,49 58.0616792,49 Z M61.3596388,34.140441 L70.5084428,34.140441 L70.5084428,38.1369957 L61.3596388,38.1369957 L61.3596388,34.140441 Z M61.3596388,40.2774367 L70.5084428,40.2774367 L70.5084428,46.859559 L61.3596388,46.859559 L61.3596388,40.2774367 Z" id="Shape"></path>
                <path d="M29.939314,46.8584941 L28.7614776,46.8584941 L28.7614776,33.0702205 C28.7614776,32.4792032 28.2886544,32 27.7007916,32 L16.4300792,32 C15.8443272,32 15.3693931,32.4792032 15.3693931,33.0702205 L15.3693931,46.8584941 L14.060686,46.8584941 C13.474934,46.8584941 13,47.3376973 13,47.9297795 C13,48.5207968 13.474934,49 14.060686,49 L29.939314,49 C30.525066,49 31,48.5207968 31,47.9297795 C31,47.3376973 30.525066,46.8584941 29.939314,46.8584941 Z M26.6401055,46.8584941 L17.4907652,46.8584941 L17.4907652,40.2763718 L26.6401055,40.2763718 L26.6401055,46.8584941 Z M26.6401055,38.1359308 L17.4907652,38.1359308 L17.4907652,34.1393761 L26.6401055,34.1393761 L26.6401055,38.1359308 Z" id="Shape"></path>
                <path d="M16.1164307,58 C13.2710919,58 12.1857676,60.502073 12.0090117,61.8246269 C11.9324894,62.3957297 12.3517457,62.9181177 12.9456024,62.9906716 C12.991947,62.9968905 13.0393693,63 13.084636,63 C13.6213704,63 14.088049,62.6154643 14.1581047,62.0899668 C14.1688825,62.0080846 14.4447942,60.0822968 16.1164307,60.0822968 C17.6296336,60.0822968 17.8139339,61.6940299 17.8344117,62.0101575 C17.8656673,62.5854063 18.3711461,63.0290216 18.9725472,62.9968905 C19.5696373,62.967869 20.0287715,62.4776119 19.9985936,61.9033997 C19.9263824,60.5538972 19.0221251,58 16.1164307,58 Z" id="Shape"></path>
                <path d="M72.8840972,58 C69.9780149,58 69.0736369,60.5528388 69.001416,61.9038541 C68.9712341,62.4757563 69.4271959,62.9606299 70.0200539,62.9927476 C70.6161457,63.0269374 71.1260036,62.5876502 71.1648089,62.0167841 C71.1863673,61.693535 71.3696144,60.083506 72.8840972,60.083506 C74.5020607,60.083506 74.8135806,61.8903854 74.8426846,62.090344 C74.9116717,62.6156237 75.3784126,63 75.9152187,63 C75.9615694,63 76.0079201,62.9968918 76.0553487,62.9906755 C76.6482068,62.9181517 77.0675191,62.3959801 76.9909865,61.825114 C76.814207,60.5010361 75.7298158,58 72.8840972,58 Z" id="Shape"></path>
                <path d="M85.3436339,62.3076642 C84.0836887,60.8374101 82.20733,60.0260905 79.7646218,59.8926222 C79.4611085,59.1580206 78.869727,58.006199 77.852801,56.9479103 L77.852801,30.7008803 L82.9739357,30.7008803 C83.5528013,30.7008803 84.0221517,30.2279609 84.0221517,29.6446936 L84.0221517,22.1368344 C84.0221517,21.7196144 83.7780895,21.338126 83.3973941,21.1720787 L75.4413828,17.6419977 L75.4413828,8.93712684 L76.4624808,8.93712684 C77.0444753,8.93712684 77.5117397,8.46525832 77.5117397,7.88094005 L77.5117397,1.05618679 C77.5117397,0.472919459 77.0444753,0 76.4624808,0 L63.2935507,0 C62.7146851,0 62.2453347,0.472919459 62.2453347,1.05618679 L62.2453347,7.88094005 C62.2453347,8.46525832 62.7146851,8.93712684 63.2935507,8.93712684 L64.3146486,8.93712684 L64.3146486,12.7089223 L51.8434862,7.17681552 L49.9045474,6.31820397 L44.4110613,3.88214329 C44.2765142,3.82329109 44.1346661,3.79386499 43.9876029,3.79386499 L43.009268,3.79386499 C42.8642909,3.79386499 42.7224428,3.82329109 42.5878957,3.88214329 L37.0912806,6.32030584 L35.1502558,7.18101925 L3.60364889,21.1731296 C3.22191054,21.3391769 2.97680531,21.7206653 2.97680531,22.1389363 L2.97680531,29.6457445 C2.97680531,30.2300628 3.44615574,30.7029822 4.02502127,30.7029822 L9.14928497,30.7029822 L9.14928497,56.9489613 C8.13027304,58.0072499 7.5399345,59.1590715 7.23537822,59.8936731 C4.79266998,60.0271415 2.91631125,60.8374101 1.6563661,62.3087151 C-0.408775797,64.7142988 0.033456609,67.9595772 0.0522306262,68.0961984 C0.127326695,68.6164098 0.569559101,69 1.09001658,69 L32.9244918,69 C32.9244918,69 32.9244918,69 32.9265778,69 L85.9110264,69 C86.4304409,69 86.8726733,68.6164098 86.9477694,68.0961984 C86.9665434,67.9574753 87.4087758,64.7132478 85.3436339,62.3076642 Z M64.3428096,2.11237358 L75.4153078,2.11237358 L75.4153078,6.82475326 L64.3428096,6.82475326 L64.3428096,2.11237358 L64.3428096,2.11237358 Z M73.3459939,8.93817778 L73.3459939,16.7140246 L66.4110805,13.6379463 L66.4110805,8.93712684 L73.3459939,8.93712684 L73.3459939,8.93817778 Z M9.14719897,24.8703089 L9.14719897,28.5895577 L5.07219423,28.5895577 L5.07219423,22.8272968 L36.2808689,8.98757159 L38.2218937,8.1279091 L43.2303843,5.90623858 L43.7675297,5.90623858 L48.7718483,8.12580724 L50.7128731,8.98546972 L64.9508792,15.29947 C64.9540082,15.3015718 64.9560942,15.3015718 64.9581802,15.3036737 L73.9801385,19.3045723 C73.9822245,19.3066742 73.9863965,19.3066742 73.9884825,19.308776 L81.9257198,22.8283478 L81.9257198,28.5906086 L77.852801,28.5906086 L77.852801,24.8713598 C77.852801,24.4488851 77.6035238,24.0673967 77.2196994,23.9013495 L49.0388566,11.6579901 L47.0915738,10.8109388 L44.4027173,9.64335324 C44.2723422,9.58555197 44.1294511,9.55612587 43.9876029,9.55612587 L43.0103111,9.55612587 C42.8674199,9.55612587 42.7255718,9.58555197 42.5951967,9.64335324 L39.9032112,10.8130407 L37.9527994,11.660092 L9.77925755,23.9013495 C9.3954332,24.0663458 9.14719897,24.4467832 9.14719897,24.8703089 Z M2.10172751,66.8865755 L2.10172751,66.8865755 C2.14136154,66.0206074 2.36143475,64.7027385 3.25111456,63.6749269 C4.22423446,62.5535823 5.81272491,61.9839771 7.9759089,61.9839771 C8.44525933,61.9839771 8.85828771,61.6644937 8.98657683,61.2083892 C8.99074883,61.1915743 9.47261527,59.4995735 10.9067416,58.1669916 C12.0769887,57.076124 13.55805,56.5233337 15.3134206,56.5233337 C20.3093952,56.5233337 21.9187457,61.7811472 21.9844548,62.0028939 C22.0762388,62.3181735 22.3098711,62.57355 22.6133843,62.6912544 C22.9179406,62.8100097 23.2610879,62.7784818 23.5374832,62.6071798 C23.5625152,62.5924668 25.9050954,61.1716066 28.1225154,62.1058852 C29.6359098,62.743801 30.7894688,64.3496253 31.5602465,66.8865755 L2.10172751,66.8865755 Z M53.0252062,66.8865755 L33.9727078,66.8865755 L33.9727078,33.8589314 L53.0252062,33.8589314 L53.0252062,66.8865755 Z M54.0734222,31.7476087 L32.9255348,31.7476087 C32.3466693,31.7476087 31.8773188,32.2205282 31.8773188,32.8037955 L31.8773188,62.635555 C31.0637781,61.4711222 30.0802282,60.6429877 28.9318841,60.1595589 C26.8583982,59.2830815 24.7974283,59.7822743 23.5708592,60.2636012 C22.4684072,57.7770958 19.8264858,54.413062 15.3134206,54.413062 C13.8062842,54.413062 12.445168,54.7346473 11.2446739,55.3652065 L11.2446739,25.5670769 L39.0865414,13.4687462 L41.0359102,12.6216949 L41.0359102,12.6216949 L43.2262122,11.6695504 L43.7717017,11.6695504 L45.9599178,12.619593 L45.9599178,12.619593 L47.9072005,13.4666443 L75.7553261,25.5670769 L75.7553261,29.637337 C75.7553261,29.6415408 75.7532401,29.6457445 75.7532401,29.6478464 C75.7532401,29.653101 75.7553261,29.6541519 75.7553261,29.6594066 L75.7553261,55.3662575 C74.552746,54.7346473 73.1916297,54.414113 71.6844934,54.414113 C67.1714282,54.414113 64.5305498,57.7791976 63.4270548,60.2646521 C62.2004857,59.7833252 60.1405588,59.2841324 58.0660299,60.1606098 C56.9166428,60.6450896 55.9341359,61.4721731 55.1205952,62.6366059 L55.1205952,32.8048465 C55.1216382,32.2205282 54.6522877,31.7476087 54.0734222,31.7476087 Z M55.4387105,66.8865755 C56.2084452,64.3580328 57.3567892,62.7543103 58.8639256,62.1121908 C61.0604856,61.1737084 63.4406138,62.5935177 63.4614738,62.6071798 C63.7389121,62.7784818 64.0820594,62.8089588 64.3866157,62.6912544 C64.6901289,62.57355 64.9237612,62.3181735 65.0155452,62.0028939 C65.0332763,61.9471945 66.6593148,56.5233337 71.6865794,56.5233337 C73.44195,56.5233337 74.9240543,57.076124 76.0963874,58.1659407 C77.5273847,59.4995735 78.0102942,61.1915743 78.0144662,61.2041855 C78.1375403,61.6644937 78.5536977,61.9829262 79.0251341,61.9829262 C81.1883181,61.9829262 82.7799375,62.5535823 83.7499284,63.6749269 C84.6396083,64.7037894 84.8586385,66.0216583 84.8993155,66.8865755 L55.4387105,66.8865755 Z" id="Shape"></path>
                <circle id="Oval" cx="39.5" cy="50.5" r="1.5"></circle>
            </g>
            <g id="noun_821733_fb5632" transform="translate(216.000000, 507.000000)" fill-rule="nonzero" fill="#FB5632">
                <path d="M57.365,58.727 C60.653,49.068 69.613,16.608 46.819,3.766 C37.022,-1.754 22.754,1.051 18.926,7.164 C12.174,11.228 2.738,32.889 13.351,58.85 C6.505,61.834 0.544,66.373 0.544,77.129 C0.544,84.385 2.243,85.674 3.379,85.803 L35.525,85.803 L67.79,85.787 C68.781,85.608 70.442,84.246 70.442,77.129 C70.443,66.23 64.326,61.712 57.365,58.727 Z M20.161,8.829 L20.419,8.688 L20.565,8.435 C23.348,3.562 36.302,0.203 45.809,5.56 C67.133,17.577 58.656,48.505 55.455,57.949 L55.049,57.789 C50.524,56.011 46.618,54.477 45.383,51.145 C44.673,49.216 45.062,47.346 45.415,46.279 C48.422,43.377 50.688,39.442 51.302,35.397 C52.631,35.061 53.927,33.696 54.656,31.785 C55.694,29.066 55.205,26.46 53.524,25.728 C52.892,25.446 52.169,25.475 51.48,25.784 L51.48,24.694 C51.48,18.355 43.598,18.13 36.646,17.933 C27.429,17.667 25.25,15.483 22.759,11.921 L21.874,10.656 L21.045,11.959 C18.617,15.78 18.531,22.224 18.696,25.711 C18.062,25.474 17.398,25.474 16.828,25.725 C15.137,26.463 14.649,29.069 15.693,31.789 C15.881,32.271 16.101,32.718 16.351,33.124 C16.395,38.729 18.458,40.296 20.856,40.706 C22.066,43.033 23.755,45.166 25.701,46.879 C25.996,47.75 26.292,49.278 25.602,51.145 C24.373,54.474 20.471,56.006 15.953,57.785 L15.253,58.06 C4.342,31.449 15.1,11.572 20.161,8.829 Z M23.288,58.003 L31.45,83.523 L22.044,70.402 L25.235,65.495 L21.028,61.026 L23.288,58.003 Z M24.706,55.67 C25.968,54.649 26.957,53.424 27.534,51.859 C27.969,50.688 28.095,49.612 28.075,48.672 C30.287,50.088 32.673,50.945 34.971,50.945 L35.377,50.945 C37.939,50.945 40.571,49.943 42.95,48.298 C42.886,49.378 42.986,50.599 43.451,51.859 C44.022,53.399 44.998,54.61 46.232,55.624 L40.611,73.205 L30.315,73.205 L24.706,55.67 Z M26.188,40.85 C26.707,42.133 28.149,43.067 29.859,43.067 C32.008,43.067 33.756,41.611 33.756,39.821 C33.756,38.029 32.008,36.571 29.859,36.571 C28.149,36.571 26.707,37.507 26.188,38.791 L22.832,38.791 C22.61,38.791 22.395,38.789 22.183,38.783 C21.557,37.359 21.129,35.859 20.991,34.32 L20.822,33.152 L19.674,33.416 C19.193,33.416 18.213,32.593 17.618,31.049 C16.92,29.233 17.244,27.79 17.751,27.592 C18.032,27.592 18.551,27.907 19.074,28.612 L21.367,31.701 L20.925,27.88 C20.912,27.789 19.986,19.494 22.075,14.452 C24.951,18.064 28.226,19.751 36.587,19.993 C44.34,20.214 49.422,20.661 49.422,24.695 L49.422,31.121 L51.278,28.613 C51.799,27.909 52.27,27.607 52.696,27.613 C53.104,27.792 53.428,29.232 52.734,31.052 C52.145,32.588 51.168,33.41 50.621,33.41 C50.619,33.41 50.617,33.41 50.615,33.41 L49.467,33.149 L49.361,34.321 C48.709,41.536 41.654,48.888 35.38,48.888 L34.974,48.888 C31.064,48.888 26.12,45.517 23.267,40.851 L26.188,40.851 L26.188,40.85 Z M28.028,39.821 C28.028,39.185 28.883,38.631 29.859,38.631 C30.838,38.631 31.697,39.186 31.697,39.821 C31.697,40.382 30.943,41.008 29.859,41.008 C28.781,41.007 28.028,40.381 28.028,39.821 Z M19.711,38.039 C19.151,37.524 18.741,36.642 18.542,35.172 C18.711,35.248 18.876,35.353 19.047,35.397 C19.184,36.283 19.417,37.166 19.711,38.039 Z M47.655,57.944 L49.962,61.025 L45.751,65.494 L48.944,70.401 L39.428,83.68 L47.655,57.944 Z M2.604,77.129 C2.604,67.284 7.644,63.303 15.775,60.068 L16.707,59.7 C18.083,59.159 19.426,58.62 20.693,58.037 L18.341,61.179 L22.625,65.728 L19.55,70.458 L29.074,83.743 L3.676,83.75 C3.427,83.45 2.604,82.082 2.604,77.129 Z M35.462,83.743 L33.685,83.743 L30.973,75.264 L39.955,75.264 L37.244,83.743 L35.462,83.743 Z M67.299,83.743 L41.916,83.743 L51.438,70.458 L48.361,65.728 L52.649,61.179 L50.295,58.037 C51.566,58.622 52.914,59.163 54.293,59.704 L55.217,60.068 C63.346,63.302 68.384,67.284 68.384,77.129 C68.385,81.998 67.567,83.41 67.299,83.743 Z" id="Shape"></path>
            </g>
            <g id="noun_904239_fb5632" transform="translate(118.000000, 610.000000)" stroke="#FB5632" fill-rule="nonzero" fill="#FB5632">
                <path d="M33,1.1 L65,15.2 L65,36.3 C65,56.1 51.3,74.3 33,78.9 C14.7,74.4 1,56.1 1,36.3 L1,15.2 L33,1.1 L33,1.1 Z M33,0 L0,14.6 L0,36.4 C0,56.6 14.1,75.4 33,80 C51.9,75.4 66,56.6 66,36.4 L66,14.6 L33,0 L33,0 Z" id="Shape"></path>
                <path d="M49.8,25.4 L53.6,29.1 L25.7,56.6 L12.5,43.6 L16.2,39.9 L25,48.5 L25.7,49.2 L26.4,48.5 L49.8,25.4 L49.8,25.4 Z M49.8,24 L25.7,47.8 L16.2,38.5 L11,43.6 L25.7,58 L55,29.1 L49.8,24 L49.8,24 Z" id="Shape"></path>
            </g>
            <g id="noun_1227713_fb5632" transform="translate(201.000000, 610.000000)" stroke="#FFFFFF" fill-rule="nonzero" fill="#FB5632">
                <g id="Group" transform="translate(0.000000, 28.000000)">
                    <g transform="translate(6.105263, 0.000000)" id="Shape">
                        <path d="M20.0710526,4.35555556 L2.36578947,4.35555556 C1.14473684,4.35555556 0.228947368,3.34444444 0.228947368,2.17777778 C0.228947368,0.933333333 1.22105263,7.10542736e-15 2.36578947,7.10542736e-15 L20.0710526,7.10542736e-15 C21.2921053,7.10542736e-15 22.2078947,1.01111111 22.2078947,2.17777778 C22.2078947,3.34444444 21.2921053,4.35555556 20.0710526,4.35555556 Z"></path>
                        <path d="M19.4605263,34.7666667 L2.9,34.7666667 C1.67894737,34.7666667 0.763157895,33.7555556 0.763157895,32.5888889 C0.763157895,31.3444444 1.75526316,30.4111111 2.9,30.4111111 L19.4605263,30.4111111 C20.6815789,30.4111111 21.5973684,31.4222222 21.5973684,32.5888889 C21.5973684,33.8333333 20.6815789,34.7666667 19.4605263,34.7666667 Z"></path>
                    </g>
                    <path d="M22.9710526,19.5222222 L2.74736842,19.5222222 C1.52631579,19.5222222 0.610526316,18.5111111 0.610526316,17.3444444 C0.610526316,16.1 1.60263158,15.1666667 2.74736842,15.1666667 L22.9710526,15.1666667 C24.1921053,15.1666667 25.1078947,16.1777778 25.1078947,17.3444444 C25.1842105,18.5888889 24.1921053,19.5222222 22.9710526,19.5222222 Z" id="Shape"></path>
                </g>
                <path d="M95,19.0656934 C95,20.5109489 94.5102041,21.8759124 93.7755102,23 C90.755102,19.3065693 87.1632653,16.1751825 83,13.7664234 C84.3061224,12.6423358 86.0204082,12 87.8163265,12 C91.8163265,12 95,15.1313869 95,19.0656934 Z" id="Shape"></path>
                <path d="M33.0014979,19.0656934 C33.0014979,20.5109489 33.4912326,21.8759124 34.2258348,23 C37.245866,19.3065693 40.8372544,16.1751825 45,13.7664234 C43.6940406,12.6423358 41.9799689,12 40.1842747,12 C36.1847739,12 32.9198754,15.1313869 33.0014979,19.0656934 Z" id="Shape"></path>
                <path d="M96.4537655,40.625 C93.7301262,26.328125 83.5359337,16.171875 69.2951915,13.359375 C66.4159158,12.8125 66.2602793,12.265625 66.4937341,9.296875 L66.5715523,8.515625 L67.349735,8.515625 C67.8944628,8.515625 68.3613724,8.515625 68.828282,8.515625 C69.2951915,8.515625 69.7621011,8.515625 70.2290107,8.515625 C70.9293751,8.515625 71.4741029,8.515625 72.0188308,8.515625 C73.4973778,8.4375 74.1977421,7.890625 74.3533787,6.5625 C74.5090152,5.078125 74.5090152,3.4375 74.3533787,1.71875 C74.2755604,1.09375 73.9642873,0 72.5635586,0 C69.2951915,0 66.2602793,0 63.3810035,0 C60.1904547,0 57.2333607,0 54.354085,0.078125 C53.1089928,0.078125 52.2529919,1.015625 52.1751736,2.34375 C52.1751736,3.203125 52.1751736,4.0625 52.1751736,4.921875 L52.1751736,5.390625 C52.1751736,7.65625 53.1089928,8.515625 55.3657224,8.515625 C56.5329963,8.515625 57.622452,8.515625 58.7119077,8.515625 C59.1788173,8.515625 59.7235451,8.515625 60.1904547,8.515625 L60.9686374,8.515625 L61.0464556,9.296875 C61.3577287,12.1875 61.2020921,12.734375 58.4006347,13.203125 C58.1671799,13.203125 57.9337251,13.28125 57.7002703,13.359375 C57.4668155,13.4375 57.311179,13.4375 57.0777242,13.515625 C48.5955335,15.078125 40.8137071,20.234375 35.8333383,27.65625 C30.7751512,35.15625 28.9075129,44.0625 30.6195146,52.65625 C33.8100634,68.75 47.3504413,80 63.4588218,80 C65.871188,80 68.2057359,79.765625 70.618102,79.21875 C87.9715747,75.546875 99.7221325,57.890625 96.4537655,40.625 Z M82.7577511,65.859375 C77.6217457,71.015625 70.7737385,73.90625 63.6144583,73.90625 C63.6144583,73.90625 63.6144583,73.90625 63.6144583,73.90625 L63.3810035,73.90625 C48.2842604,73.75 36.0667931,61.328125 36.1446113,46.09375 C36.1446113,31.171875 48.439897,18.90625 63.5366401,18.90625 L63.6922766,18.90625 C71.0850116,18.984375 77.9330188,21.796875 82.9912059,27.03125 C88.049393,32.1875 90.8508505,39.140625 90.8508505,46.5625 C90.8508505,53.90625 87.9715747,60.703125 82.7577511,65.859375 Z" id="Shape"></path>
                <path d="M67.8518683,48.8961039 C66.7694882,50.2987013 65.1459179,51 63.5223477,51 C62.2853418,51 61.1256488,50.6103896 60.1205815,49.7532468 C58.9608885,48.8181818 58.1877598,47.4935065 58.0331341,46.012987 C57.8785084,44.5324675 58.2650727,43.0519481 59.1928271,41.8831169 C59.7340172,41.1818182 60.5071459,40.5584416 61.2802745,40.2467532 L61.3575874,29.1038961 C61.3575874,28.5584416 61.589526,28.012987 61.9760904,27.6233766 C62.3626547,27.2337662 62.9038448,27 63.4450348,27 L63.4450348,27 C64.6047279,27 65.5324823,27.9350649 65.5324823,29.1818182 L65.4551694,40.1688312 C65.9963595,40.4025974 66.4602367,40.6363636 66.846801,40.9480519 C68.006494,41.8831169 68.7796227,43.2077922 68.9342485,44.6883117 C69.1661871,46.2467532 68.7796227,47.7272727 67.8518683,48.8961039 Z" id="Shape"></path>
            </g>
            <g id="noun_1328953_fb5632" transform="translate(11.000000, 708.000000)" fill-rule="nonzero" fill="#FB5632">
                <path d="M67.16,66.16 L67.16,11.84 C67.16,11.2877153 66.7122847,10.84 66.16,10.84 L11.84,10.84 C11.2877153,10.84 10.84,11.2877153 10.84,11.84 L10.84,20.84 L8.72,20.84 C8.16771525,20.84 7.72,21.2877153 7.72,21.84 L7.72,31.34 C7.72,31.8922847 8.16771525,32.34 8.72,32.34 L10.84,32.34 L10.84,45.66 L8.72,45.66 C8.16771525,45.66 7.72,46.1077153 7.72,46.66 L7.72,56.16 C7.72,56.7122847 8.16771525,57.16 8.72,57.16 L10.84,57.16 L10.84,66.16 C10.84,66.7122847 11.2877153,67.16 11.84,67.16 L66.16,67.16 C66.7122847,67.16 67.16,66.7122847 67.16,66.16 Z M9.72,30.34 L9.72,22.84 L14,22.84 L14,30.34 L9.72,30.34 Z M11.84,55.16 L9.72,55.16 L9.72,47.66 L14,47.66 L14,55.16 L11.84,55.16 Z M65.16,65.16 L12.84,65.16 L12.84,57.16 L15,57.16 C15.5522847,57.16 16,56.7122847 16,56.16 L16,46.66 C16,46.1077153 15.5522847,45.66 15,45.66 L12.84,45.66 L12.84,32.34 L15,32.34 C15.5522847,32.34 16,31.8922847 16,31.34 L16,21.84 C16,21.2877153 15.5522847,20.84 15,20.84 L12.84,20.84 L12.84,12.84 L65.16,12.84 L65.16,65.16 Z" id="Shape"></path>
                <path d="M2,87.56 L14.84,87.56 C15.4077495,87.5592236 15.9264055,87.2379665 16.18,86.73 L20.77,77.5 L57.23,77.5 L61.82,86.73 C62.0735945,87.2379665 62.5922505,87.5592236 63.16,87.56 L76,87.56 C76.8284271,87.56 77.5,86.8884271 77.5,86.06 L77.5,2 C77.5,1.17157288 76.8284271,0.5 76,0.5 L2,0.5 C1.17157288,0.5 0.5,1.17157288 0.5,2 L0.5,86.06 C0.5,86.8884271 1.17157288,87.56 2,87.56 Z M74.5,84.56 L64.09,84.56 L60.58,77.5 L74.5,77.5 L74.5,84.56 Z M3.5,3.5 L74.5,3.5 L74.5,74.5 L3.5,74.5 L3.5,3.5 Z M3.5,77.5 L17.42,77.5 L13.91,84.56 L3.5,84.56 L3.5,77.5 Z" id="Shape"></path>
                <path d="M39,55.47 C46.857195,55.4662302 53.6176223,49.9128597 55.1470586,42.2059568 C56.6764949,34.4990538 52.5489959,26.7849724 45.2886627,23.7811264 C38.0283296,20.7772804 29.6571475,23.3202337 25.2943692,29.854887 C20.9315908,36.3895402 21.7922393,45.0960082 27.35,50.65 C30.4378426,53.741981 34.6302086,55.476505 39,55.47 L39,55.47 Z M30.21,49.2 L35.44,44 C37.5547909,45.5554364 40.4352091,45.5554364 42.55,44 L47.78,49.23 C42.7203456,53.5624544 35.25483,53.5497074 30.21,49.2 L30.21,49.2 Z M36.78,36.78 C38.0028531,35.5590863 39.9837562,35.5601344 41.2053167,36.7823413 C42.4268772,38.0045483 42.4268772,39.9854517 41.2053167,41.2076587 C39.9837562,42.4298656 38.0028531,42.4309137 36.78,41.21 C36.1938644,40.6232501 35.86546,39.8272771 35.8673363,38.9979238 C35.8692127,38.1685706 36.2012155,37.3740917 36.79,36.79 L36.78,36.78 Z M49.2,47.78 L44,42.56 C45.5178618,40.4330279 45.5178618,37.5769721 44,35.45 L49.23,30.22 C53.5624544,35.2796544 53.5497074,42.74517 49.2,47.79 L49.2,47.78 Z M39,25.53 C42.2275931,25.5291885 45.3476918,26.6899079 47.79,28.8 L42.56,34 C40.4330279,32.4821382 37.5769721,32.4821382 35.45,34 L30.21,28.8 C32.6523082,26.6899079 35.7724069,25.5291885 39,25.53 L39,25.53 Z M28.8,30.21 L34,35.44 C32.4821382,37.5669721 32.4821382,40.4230279 34,42.55 L28.8,47.79 C24.4531963,42.736088 24.4531963,35.263912 28.8,30.21 L28.8,30.21 Z" id="Shape"></path>
            </g>
        </g>
    </g>
</svg>