<?xml version="1.0" encoding="UTF-8" standalone="no"?>
<svg
   xmlns:sketch="http://www.bohemiancoding.com/sketch/ns"
   xmlns:dc="http://purl.org/dc/elements/1.1/"
   xmlns:cc="http://creativecommons.org/ns#"
   xmlns:rdf="http://www.w3.org/1999/02/22-rdf-syntax-ns#"
   xmlns:svg="http://www.w3.org/2000/svg"
   xmlns="http://www.w3.org/2000/svg"
   xmlns:xlink="http://www.w3.org/1999/xlink"
   xmlns:sodipodi="http://sodipodi.sourceforge.net/DTD/sodipodi-0.dtd"
   xmlns:inkscape="http://www.inkscape.org/namespaces/inkscape"
   width="300px"
   height="200px"
   viewBox="0 0 300 200"
   version="1.1"
   id="svg2"
   inkscape:version="0.91 r13725"
   sodipodi:docname="about-sprite.svg">
  <metadata
     id="metadata104">
    <rdf:RDF>
      <cc:Work
         rdf:about="">
        <dc:format>image/svg+xml</dc:format>
        <dc:type
           rdf:resource="http://purl.org/dc/dcmitype/StillImage" />
      </cc:Work>
    </rdf:RDF>
  </metadata>
  <sodipodi:namedview
     pagecolor="#ffffff"
     bordercolor="#666666"
     borderopacity="1"
     objecttolerance="10"
     gridtolerance="10"
     guidetolerance="10"
     inkscape:pageopacity="0"
     inkscape:pageshadow="2"
     inkscape:window-width="1920"
     inkscape:window-height="1056"
     id="namedview102"
     showgrid="false"
     inkscape:zoom="5.524861"
     inkscape:cx="81.945538"
     inkscape:cy="140.20036"
     inkscape:window-x="0"
     inkscape:window-y="0"
     inkscape:window-maximized="1"
     inkscape:current-layer="svg2" />
  <!-- Generator: Sketch 3.4.2 (15855) - http://www.bohemiancoding.com/sketch -->
  <title
     id="title4">Artboard 5</title>
  <desc
     id="desc6">Created with Sketch.</desc>
  <defs
     id="defs8">
    <rect
       id="path-1"
       x="10.39704"
       y="0"
       width="71.0464402"
       height="7.2014245" />
    <rect
       id="path-2"
       x="4.33210001"
       y="7.25960549"
       width="83.1763202"
       height="8.23019943" />
    <linearGradient
       x1="50%"
       y1="0%"
       x2="50%"
       y2="100%"
       id="linearGradient-3">
      <stop
         stop-color="#FB5632"
         offset="0%"
         id="stop13" />
      <stop
         stop-color="#FA370C"
         offset="100%"
         id="stop15" />
    </linearGradient>
    <linearGradient
       x1="50%"
       y1="0%"
       x2="50%"
       y2="99.2924904%"
       id="linearGradient-4">
      <stop
         stop-color="#FB5632"
         offset="0%"
         id="stop18" />
      <stop
         stop-color="#FA370C"
         offset="100%"
         id="stop20" />
    </linearGradient>
  </defs>
  <g
     id="Page-1"
     stroke="none"
     stroke-width="1"
     fill="none"
     fill-rule="evenodd"
     sketch:type="MSPage">
    <g
       id="Artboard-5"
       sketch:type="MSArtboardGroup">
      <g
         id="Others-Copy"
         sketch:type="MSLayerGroup"
         transform="translate(104.000000, 14.000000)">
        <g
           id="Rectangle-path-Copy"
           opacity="0.6">
          <use
             stroke="#FB5632"
             stroke-width="2"
             sketch:type="MSShapeGroup"
             xlink:href="#path-1"
             id="use26" />
          <use
             stroke="none"
             xlink:href="#path-1"
             id="use28" />
        </g>
        <g
           id="Rectangle-path"
           opacity="0.8">
          <use
             stroke="#FB5632"
             stroke-width="2"
             sketch:type="MSShapeGroup"
             xlink:href="#path-2"
             id="use31" />
          <use
             stroke="none"
             xlink:href="#path-2"
             id="use33" />
        </g>
        <rect
           id="rect35"
           stroke="#FB5632"
           stroke-width="2"
           sketch:type="MSShapeGroup"
           x="0"
           y="15.3862202"
           width="92.7935822"
           height="53.3210702" />
        <g
           id="Group"
           transform="translate(0.000000, 15.162195)"
           stroke="#FB5632"
           stroke-width="2"
           sketch:type="MSShapeGroup">
          <path
             d="M92.8802242,10.9749399 C86.9019262,10.9749399 81.9633322,6.03298706 81.9633322,0.0506230869"
             id="Shape" />
          <path
             d="M81.9633322,53.3716933 C81.9633322,47.3893293 86.9019262,42.4473765 92.8802242,42.4473765"
             id="path39" />
          <path
             d="M0.0866420002,10.9749399 C6.06494002,10.9749399 11.003534,6.03298706 11.003534,0.0506230869"
             id="path41" />
          <path
             d="M11.26346,53.3716933 C11.26346,47.3893293 6.32486602,42.4473765 0.346568001,42.4473765"
             id="path43" />
        </g>
        <path
           d="M54.7994049,29.2583686 L43.3890197,29.2583686 L38.2072392,29.2583686 C37.3174386,29.2583686 36.6370028,29.9461732 36.6370028,30.7927019 C36.6370028,31.6392307 37.3174386,32.3270353 38.154898,32.3270353 L43.3890197,32.3270353 C45.8490568,32.3270353 47.9427055,33.9671847 48.6231413,36.1893226 L38.1025568,36.1893226 C37.2650973,36.1893226 36.5846615,36.8771272 36.5846615,37.723656 C36.5846615,38.5701847 37.2650973,39.2579893 38.1025568,39.2579893 L48.780165,39.2579893 C48.2044116,41.6917594 46.0060805,43.490633 43.4413609,43.490633 L37.9455332,43.490633 C37.3174386,43.490633 36.7940264,43.8609893 36.5323203,44.3900698 C36.2706142,44.9720583 36.3752967,45.6069548 36.7940264,46.0302192 L45.639692,55.6594836 C45.9537393,55.9769319 46.3201278,56.135656 46.7388575,56.135656 C47.105246,56.135656 47.4716346,55.9769319 47.7856819,55.7123917 C48.4137765,55.1304031 48.4137765,54.1780583 47.8903643,53.5431618 L41.4523947,46.5592997 L43.3890197,46.5592997 C45.6119675,46.5592997 47.6243056,45.7077379 49.142423,44.3133492 C50.5554267,43.0155074 51.5402795,41.2474065 51.8682967,39.2579893 L54.7994049,39.2579893 C55.6368643,39.2579893 56.3173001,38.5701847 56.3173001,37.723656 C56.3173001,36.8771272 55.6368643,36.1893226 54.7994049,36.1893226 L51.8159555,36.1893226 C51.5019082,34.7608054 50.8738136,33.4381042 49.9316717,32.3270353 L54.7994049,32.3270353 C55.6368643,32.3270353 56.3173001,31.6392307 56.3173001,30.7927019 C56.3173001,29.9461732 55.6368643,29.2583686 54.7994049,29.2583686 Z"
           id="path45"
           fill="#FB5632"
           sketch:type="MSShapeGroup" />
      </g>
      <g
         id="Group-Copy"
         sketch:type="MSLayerGroup"
         transform="translate(203.000000, 19.000000)">
        <g
           id="g48"
           transform="translate(28.953586, 0.000000)"
           fill="url(#linearGradient-3)"
           sketch:type="MSShapeGroup">
          <path
             d="M43.3965309,60.7106645 L21.7956937,60.7106645 C21.1329745,60.7106645 20.5174852,60.4124502 20.1076642,59.8921045 C19.6970838,59.3717528 19.5508279,58.7038171 19.706985,58.0602267 L21.7774106,49.4896568 L43.4155765,49.4896568 L45.485999,58.0602267 C45.642159,58.7038169 45.4959062,59.3717527 45.0853258,59.8921045 C44.675502,60.4124504 44.0600127,60.7106645 43.3965309,60.7106645 L43.3965309,60.7106645 Z M23.005345,51.047666 L21.222862,58.4253852 C21.1649684,58.667299 21.2670417,58.8437916 21.3333141,58.9289949 C21.3988241,59.012681 21.5473676,59.1526556 21.7956937,59.1526556 L43.3965309,59.1526556 C43.6456255,59.1526556 43.7941661,59.012681 43.8596729,58.9274778 C43.9259484,58.8437916 44.0280216,58.6672988 43.9701281,58.4253852 L42.1876418,51.047666 L23.005345,51.047666 L23.005345,51.047666 Z"
             id="path50" />
          <path
             d="M22.3913808,51.047666 L15.8487413,51.047666 C15.4175932,51.047666 15.0687129,50.6992437 15.0687129,50.2686585 C15.0687129,49.8380793 15.4175932,49.489657 15.8487413,49.489657 L22.3913808,49.489657 C22.8225259,49.489657 23.1714061,49.8380793 23.1714061,50.2686585 C23.1714061,50.6992437 22.8225261,51.047666 22.3913808,51.047666 L22.3913808,51.047666 Z"
             id="path52" />
          <path
             d="M62.1507268,51.047666 L42.8016062,51.047666 C42.3704611,51.047666 42.0215809,50.6992437 42.0215809,50.2686585 C42.0215809,49.8380793 42.3704611,49.489657 42.8016062,49.489657 L62.1507268,49.489657 C62.8873349,49.489657 63.4860663,48.8917115 63.4860663,48.1553086 L63.4860663,43.6729871 L15.8799727,43.6729871 C15.4488246,43.6729871 15.0999444,43.3245647 15.0999444,42.8939855 C15.0999444,42.4634003 15.4488246,42.114978 15.8799727,42.114978 L65.046123,42.114978 L65.046123,48.1553086 C65.046123,49.7498297 63.7473437,51.047666 62.1507268,51.047666 L62.1507268,51.047666 Z"
             id="path54" />
          <path
             d="M64.2660917,43.6729871 C63.8349466,43.6729871 63.4860663,43.3245647 63.4860663,42.8939855 L63.4860663,3.17997801 C63.4860663,2.44509659 62.887335,1.84714971 62.1507268,1.84714971 L3.04226328,1.84714971 C2.30565516,1.84714971 1.70692371,2.44509675 1.70692371,3.17997801 L1.70692371,13.1168468 C1.70692371,13.547429 1.35804346,13.8958513 0.926895369,13.8958513 C0.495747274,13.8958513 0.146867028,13.547429 0.146867028,13.1168468 L0.146867028,3.17997801 C0.146867028,1.58545369 1.44564337,0.28914206 3.04226328,0.28914206 L62.1507238,0.28914206 C63.7473406,0.28914206 65.04612,1.58545369 65.04612,3.17997801 L65.04612,42.8939871 C65.046123,43.3245647 64.6972428,43.6729871 64.2660917,43.6729871 L64.2660917,43.6729871 Z"
             id="path56" />
        </g>
        <g
           id="g58"
           transform="translate(0.000000, 28.915584)"
           fill="url(#linearGradient-3)"
           sketch:type="MSShapeGroup">
          <path
             d="M17.109045,31.7950801 L3.17975315,31.7950801 C1.64483453,31.7950801 0.396332398,30.547458 0.396332398,29.0153115 L0.396332398,3.00843682 C0.396332398,1.47629332 1.64483453,0.228668244 3.17975315,0.228668244 L17.1090453,0.228668244 C18.6439635,0.228668244 19.8924658,1.47629332 19.8924658,3.00843682 L19.8924658,29.0153115 C19.8924655,30.547458 18.6439632,31.7950801 17.109045,31.7950801 L17.109045,31.7950801 Z M3.17975315,1.78667717 C2.504846,1.78667717 1.9563886,2.33441455 1.9563886,3.00843666 L1.9563886,29.0153113 C1.9563886,29.6893334 2.50484584,30.2370708 3.17975315,30.2370708 L17.1090453,30.2370708 C17.7839519,30.2370708 18.3324091,29.6893334 18.3324091,29.0153113 L18.3324091,3.00843666 C18.3324091,2.33441455 17.7839519,1.78667717 17.1090453,1.78667717 L3.17975315,1.78667717 L3.17975315,1.78667717 Z"
             id="path60" />
          <path
             d="M18.9829408,5.96317811 L1.45515966,5.96317811 C1.02401125,5.96317811 0.675131639,5.61475577 0.675131639,5.18417056 C0.675131639,4.75359136 1.02401141,4.40516602 1.45515966,4.40516602 L18.9829402,4.40516602 C19.4140883,4.40516602 19.7629685,4.75359136 19.7629685,5.18417056 C19.762969,5.61475577 19.4140889,5.96317811 18.9829408,5.96317811 L18.9829408,5.96317811 Z"
             id="path62" />
          <path
             d="M18.9829408,25.6147751 L1.45515966,25.6147751 C1.02401125,25.6147751 0.675131639,25.2663527 0.675131639,24.8357735 C0.675131639,24.4051883 1.02401141,24.056766 1.45515966,24.056766 L18.9829402,24.056766 C19.4140883,24.056766 19.7629685,24.4051883 19.7629685,24.8357735 C19.762969,25.2663527 19.4140889,25.6147751 18.9829408,25.6147751 L18.9829408,25.6147751 Z"
             id="path64" />
          <path
             d="M11.471361,3.87568776 L9.46796811,3.87568776 C9.03682001,3.87568776 8.68793977,3.52726543 8.68793977,3.09668322 C8.68793977,2.66610102 9.03682001,2.31767868 9.46796811,2.31767868 L11.471361,2.31767868 C11.9025091,2.31767868 12.2513885,2.66610102 12.2513885,3.09668322 C12.2513885,3.52726543 11.9025091,3.87568776 11.471361,3.87568776 L11.471361,3.87568776 Z"
             id="path66" />
          <path
             d="M10.1443989,29.9966744 C9.04215176,29.9966744 8.14481506,29.1005147 8.14481506,27.9989536 C8.14481506,26.8989155 9.04215176,26.0027558 10.1443989,26.0027558 C11.2466461,26.0027558 12.1439828,26.8989155 12.1439828,27.9989536 C12.1439828,29.1005147 11.2466453,29.9966744 10.1443989,29.9966744 L10.1443989,29.9966744 Z M10.1443989,27.5607648 C9.90216355,27.5607648 9.70487095,27.7570398 9.70487095,27.9989534 C9.70487095,28.2408732 9.90216339,28.4386652 10.1443989,28.4386652 C10.3866345,28.4386652 10.5839261,28.2408731 10.5839261,27.9989534 C10.5839261,27.7570398 10.3866345,27.5607648 10.1443989,27.5607648 L10.1443989,27.5607648 Z"
             id="path68" />
        </g>
        <g
           id="g70"
           transform="translate(14.278481, 15.844156)"
           fill="url(#linearGradient-4)"
           sketch:type="MSShapeGroup">
          <path
             d="M23.8745649,44.8665086 L8.56727407,44.8665086 C8.13612597,44.8665086 7.78724573,44.5180863 7.78724573,44.0875071 C7.78724573,43.6569219 8.13612597,43.3084996 8.56727407,43.3084996 L23.8745649,43.3084996 C25.0255632,43.3084996 25.9617485,42.3727814 25.9617485,41.2240524 L25.9617485,4.0052966 C25.9617485,2.85657058 25.0255632,1.92085245 23.8745649,1.92085245 L3.93966581,1.92085245 C2.7894285,1.92085245 1.85324324,2.85657058 1.85324324,4.0052966 L1.85324324,10.7926768 C1.85324324,11.223259 1.50436299,11.5716813 1.0732149,11.5716813 C0.642066802,11.5716813 0.293186555,11.223259 0.293186555,10.7926768 L0.293186555,4.0052966 C0.293186555,1.9969261 1.92865583,0.362843369 3.93966581,0.362843369 L23.8745649,0.362843369 C25.8855748,0.362843369 27.5218052,1.9969261 27.5218052,4.0052966 L27.5218052,41.2240524 C27.5218052,43.2324229 25.885575,44.8665086 23.8745649,44.8665086 L23.8745649,44.8665086 Z"
             id="path72" />
          <path
             d="M26.5559106,7.20804108 L1.471608,7.20804108 C1.0404599,7.20804108 0.691579656,6.85961874 0.691579656,6.42903654 C0.691579656,5.99845433 1.0404599,5.65003199 1.471608,5.65003199 L26.5559106,5.65003199 C26.9870587,5.65003199 27.335939,5.99845433 27.335939,6.42903654 C27.335939,6.85961874 26.9870587,7.20804108 26.5559106,7.20804108 L26.5559106,7.20804108 Z"
             id="path74" />
          <path
             d="M26.5559106,37.3777239 L8.66706272,37.3777239 C8.23591463,37.3777239 7.88703438,37.0293015 7.88703438,36.5987163 C7.88703438,36.1681371 8.23591463,35.8197148 8.66706272,35.8197148 L26.5559106,35.8197148 C26.9870587,35.8197148 27.335939,36.1681371 27.335939,36.5987163 C27.335939,37.0293015 26.9870587,37.3777239 26.5559106,37.3777239 L26.5559106,37.3777239 Z"
             id="path76" />
          <path
             d="M15.8053878,4.91362906 L12.9389353,4.91362906 C12.5077872,4.91362906 12.158907,4.56520673 12.158907,4.13462452 C12.158907,3.70404232 12.5077872,3.35561998 12.9389353,3.35561998 L15.8053878,3.35561998 C16.2365359,3.35561998 16.5854162,3.70404232 16.5854162,4.13462452 C16.5854162,4.56520673 16.2365359,4.91362906 15.8053878,4.91362906 L15.8053878,4.91362906 Z"
             id="path78" />
          <path
             d="M13.9071145,42.8657476 C12.5146441,42.8657476 11.3819258,41.7337545 11.3819258,40.3431116 C11.3819258,38.9524688 12.5146441,37.8204756 13.9071145,37.8204756 C15.299588,37.8204756 16.4323033,38.9524688 16.4323033,40.3431116 C16.4323033,41.7337545 15.2995882,42.8657476 13.9071145,42.8657476 L13.9071145,42.8657476 Z M13.9071145,39.3784849 C13.3746557,39.3784849 12.9419825,39.8105872 12.9419825,40.3431118 C12.9419825,40.8756364 13.3746557,41.3077387 13.9071145,41.3077387 C14.4395764,41.3077387 14.8722466,40.8756364 14.8722466,40.3431118 C14.8722466,39.8105872 14.4395764,39.3784849 13.9071145,39.3784849 L13.9071145,39.3784849 Z"
             id="path80" />
        </g>
        <path
           d="M64.1110694,5.16552611 L58.9890906,5.16552611 C58.5579395,5.16552611 58.2090593,4.81710377 58.2090593,4.38652157 C58.2090593,3.95593936 58.5579395,3.60751703 58.9890906,3.60751703 L64.1110694,3.60751703 C64.5422205,3.60751703 64.8911008,3.95593936 64.8911008,4.38652157 C64.8911008,4.81710377 64.5422207,5.16552611 64.1110694,5.16552611 L64.1110694,5.16552611 Z"
           id="path82"
           fill="#FA370C"
           sketch:type="MSShapeGroup" />
      </g>
      <g
         id="g84"
         sketch:type="MSLayerGroup"
         transform="translate(31.000000, 130.000000)"
         fill="url(#linearGradient-3)">
        <path
           d="M18.25,35.9349593 C8.57460671,35.9349593 0.704776423,27.875728 0.704776423,17.9674797 C0.704776423,8.05923134 8.57460671,0 18.25,0 C27.9253933,0 35.7952236,8.05923134 35.7952236,17.9674797 C35.7952236,27.875728 27.9253933,35.9349593 18.25,35.9349593 L18.25,35.9349593 Z M18.25,2.10088692 C9.70780129,2.10088692 2.75629012,9.2196982 2.75629012,17.9674797 C2.75629012,26.7152611 9.70780129,33.8340724 18.25,33.8340724 C26.7921987,33.8340724 33.7437099,26.7152611 33.7437099,17.9674797 C33.7437099,9.2196982 26.7921987,2.10088692 18.25,2.10088692 L18.25,2.10088692 Z"
           id="path86"
           sketch:type="MSShapeGroup" />
        <path
           d="M15.0599593,26.1345159 C14.6516341,26.1345159 14.2433089,25.974442 13.930685,25.657561 L7.55060366,19.123932 C6.92854573,18.4869032 6.92854573,17.451323 7.55060366,16.8142942 C8.17266159,16.1772653 9.18390447,16.1772653 9.8059624,16.8142942 L15.0599593,22.1914708 L26.6908476,10.2806652 C27.3129055,9.64363636 28.3241484,9.64363636 28.9462063,10.2806652 C29.5682642,10.917694 29.5682642,11.9532742 28.9462063,12.590303 L16.1860437,25.657561 C15.8766098,25.974442 15.4682846,26.1345159 15.0599593,26.1345159 L15.0599593,26.1345159 Z"
           id="path88"
           sketch:type="MSShapeGroup" />
      </g>
      <g
         id="Rectangle-36-+-RupeekSVG-Copy-2"
         sketch:type="MSLayerGroup"
         transform="translate(2.000000, 2.000000)">
        <g
           id="RupeekSVG-Copy"
           transform="translate(20.000000, 13.000000)"
           fill="#FFFFFF"
           sketch:type="MSShapeGroup">
          <g
             id="g93">
            <g
               id="Artboard-1"
               transform="translate(0.000000, -0.000000)">
              <g
                 id="Rectangle-2-+-Rectangle-2-Copy-+-Rectangle-2-Copy-2">
                <path
                   d="M9.40582597,30.9389685 L53.1138075,52.2484693 L53.2117209,69.6522332 L9.33349161,48.255105 L9.40582597,30.9389685 L9.40582597,30.9389685 L9.40582597,30.9389685 Z"
                   id="Rectangle-2" />
                <path
                   d="M0.326935806,0.0236030961 L36.3758639,17.6529491 L36.5161487,35.0297735 L0.253896604,17.3439126 L0.326935806,0.0236030961 L0.326935806,0.0236030961 L0.326935806,0.0236030961 Z"
                   id="Rectangle-2-Copy" />
                <path
                   d="M9.41071771,30.9360798 L36.3727957,17.6503678 L36.5130806,35.0330332 L9.33767849,48.2563893 L9.41071771,30.9360798 L9.41071771,30.9360798 L9.41071771,30.9360798 Z"
                   id="Rectangle-2-Copy-2"
                   fill-opacity="0.5" />
              </g>
            </g>
          </g>
        </g>
      </g>
      <path
         d="M48.4145966,103 C48.4145966,103 50.9145966,108.4 65.7145966,113.8 C80.0145966,119.1 89.6145966,117.7 89.6145966,117.7 C89.6145966,117.7 92.3145966,138.1 79.3145966,161.7 C66.3145966,185.3 48.4145966,193 48.4145966,193 C48.4145966,193 30.4145966,185.4 17.5145966,161.8 C4.61459662,138.2 7.21459662,117.8 7.21459662,117.8 C7.21459662,117.8 16.8145966,119.1 31.1145966,113.9 C45.9145966,108.4 48.4145966,103 48.4145966,103 L48.4145966,103 Z"
         id="path100"
         stroke="#FB4F29"
         stroke-width="2"
         sketch:type="MSShapeGroup" />
    </g>
  </g>
  <g
     style="fill:none;fill-rule:evenodd;stroke:none;stroke-width:1"
     id="Page-1-3"
     sketch:type="MSPage"
     transform="matrix(0.13258195,0,0,0.13258195,2.701793,2.0261858)">
    <g
       id="4"
       sketch:type="MSArtboardGroup"
       transform="translate(-501,-221)">
      <g
         id="Rectangle-36-+-RupeekSVG-Copy-2-6"
         sketch:type="MSLayerGroup"
         transform="translate(501,221)">
        <rect
           style="fill:#fb5632"
           id="Rectangle-36"
           sketch:type="MSShapeGroup"
           x="0"
           y="0"
           width="677"
           height="677"
           rx="72" />
        <g
           style="fill:#ffffff"
           id="RupeekSVG-Copy-7"
           transform="translate(144.04255,93.62766)"
           sketch:type="MSShapeGroup">
          <g
             id="g15">
            <g
               id="Artboard-1-5">
              <g
                 id="Rectangle-2-+-Rectangle-2-Copy-+-Rectangle-2-Copy-2-3">
                <path
                   inkscape:connector-curvature="0"
                   d="M 67.741959,222.8264 382.53242,376.30015 383.23761,501.64427 67.220998,347.53943 67.741959,222.8264 l 0,0 0,0 z"
                   id="Rectangle-2-5" />
                <path
                   inkscape:connector-curvature="0"
                   d="M 2.3546334,0.16999251 261.98362,127.13879 262.99396,252.2889 1.8285958,124.91307 2.3546334,0.16999251 l 0,0 0,0 z"
                   id="Rectangle-2-Copy-6" />
                <path
                   style="fill-opacity:0.5"
                   inkscape:connector-curvature="0"
                   d="m 67.77719,222.8056 194.18433,-95.6854 1.01035,125.19218 -195.720717,95.2363 0.526037,-124.74308 0,0 0,0 z"
                   id="Rectangle-2-Copy-2-2" />
              </g>
            </g>
          </g>
        </g>
      </g>
    </g>
  </g>
</svg>
