<?xml version="1.0" encoding="UTF-8"?>
<svg width="40px" height="48px" viewBox="0 0 40 48" version="1.1" xmlns="http://www.w3.org/2000/svg" xmlns:xlink="http://www.w3.org/1999/xlink">
    <defs></defs>
    <g id="Page-1" stroke="none" stroke-width="1" fill="none" fill-rule="evenodd">
        <g id="call-us-icon" fill="#F47121" fill-rule="nonzero">
            <path d="M25.6866667,33.3882051 L21.0338462,36.4271795 C20.8025641,36.3523077 15.3820513,34.5389744 11.4533333,27.7312821 C7.52102564,20.9235897 8.66307692,15.3225641 8.71435897,15.0882051 L13.6728205,12.5784615 C13.7984615,12.5184615 13.8666667,12.3794872 13.845641,12.2415385 C13.6923077,11.2210256 12.8194872,5.87230769 10.6025641,0.709230769 C10.5682051,0.627692308 10.5005128,0.563589744 10.4169231,0.533333333 C10.3338462,0.501538462 10.2394872,0.506666667 10.1615385,0.545128205 C9.41435897,0.90974359 8.64410256,1.32153846 7.87128205,1.76769231 C3.94153846,4.03589744 0.865128205,6.67641026 0.288717949,7.18461538 C0.228717949,7.2374359 0.191282051,7.30820513 0.18,7.38717949 C0.0358974359,8.48051282 -1.02717949,18.4435897 6.11641026,30.8128205 C13.2676923,43.2015385 22.4169231,47.2461538 23.4379487,47.6676923 C23.5107692,47.6979487 23.5912821,47.7005128 23.6646154,47.6758974 C24.3938462,47.4287179 28.2235897,46.0825641 32.1482051,43.8179487 C32.9205128,43.3717949 33.6589744,42.9097436 34.3497436,42.4446154 C34.4241026,42.3953846 34.4748718,42.3174359 34.4892308,42.2292308 C34.5035897,42.1420513 34.4815385,42.0517949 34.4282051,41.9810256 C31.065641,37.4805128 26.8728205,34.0471795 26.0646154,33.4061538 C25.9558974,33.3184615 25.8041026,33.3123077 25.6866667,33.3882051 Z" id="Shape"></path>
            <path d="M36.4907692,31.5564103 C36.2328205,31.5564103 35.9723077,31.5005128 35.7251282,31.3830769 C34.8358974,30.9605128 34.4569231,29.8958974 34.88,29.0051282 C37.0815385,24.3753846 36.8661538,18.9646154 34.3092308,14.5358974 C31.7533333,10.1066667 27.1748718,7.2174359 22.0635897,6.80717949 C21.0820513,6.72820513 20.3487179,5.86974359 20.4276923,4.88615385 C20.5061538,3.90564103 21.3671795,3.17948718 22.3497436,3.25076923 C28.6297436,3.75538462 34.2564103,7.30769231 37.4005128,12.7523077 C40.5435897,18.1979487 40.8082051,24.8466667 38.1046154,30.5379487 C37.7969231,31.18 37.1564103,31.5564103 36.4907692,31.5564103 Z" id="Shape"></path>
            <path d="M28.5635897,29.1979487 C28.2348718,29.1979487 27.9030769,29.105641 27.6061538,28.9153846 C26.7748718,28.385641 26.5312821,27.2835897 27.0620513,26.4523077 C28.5846154,24.0676923 28.6538462,21.0646154 27.2410256,18.6164103 C25.8282051,16.1697436 23.1969231,14.7205128 20.365641,14.8528205 C19.3789744,14.9035897 18.5492308,14.1353846 18.5030769,13.1517949 C18.4594872,12.1661538 19.2215385,11.3348718 20.2061538,11.2892308 C24.3748718,11.1066667 28.2487179,13.2266667 30.3317949,16.8328205 C32.4138462,20.4389744 32.3128205,24.8605128 30.0697436,28.3723077 C29.7297436,28.9051282 29.1538462,29.1979487 28.5635897,29.1979487 Z" id="Shape"></path>
        </g>
    </g>
</svg>