<?xml version="1.0" encoding="UTF-8"?>
<svg width="150px" height="151px" viewBox="0 0 150 151" version="1.1" xmlns="http://www.w3.org/2000/svg" xmlns:xlink="http://www.w3.org/1999/xlink">
    <!-- Generator: Sketch 48.2 (47327) - http://www.bohemiancoding.com/sketch -->
    <title>no-auction-threats</title>
    <desc>Created with Sketch.</desc>
    <defs></defs>
    <g id="Page-1" stroke="none" stroke-width="1" fill="none" fill-rule="evenodd">
        <g id="no-auction-threats" fill="#FB5632" fill-rule="nonzero">
            <g id="noun_auction_1307674-(1)-(1)" transform="translate(73.442046, 65.186251) scale(-1, 1) translate(-73.442046, -65.186251) translate(21.442046, 16.186251)" fill-opacity="0.9">
                <path d="M61.4032345,56.7184678 C60.7572383,56.7184678 60.2404413,56.2016708 60.1112421,55.5556746 C58.5608511,45.0905359 48.8709079,35.4005927 38.4057692,33.8502017 C37.759773,33.7210025 37.242976,33.0750063 37.3721752,32.4290101 C37.5013745,31.7830138 38.1473707,31.2662169 38.7933669,31.3954161 C50.2920996,33.0750063 60.8864375,43.7985435 62.5660277,55.1680769 C62.6952269,55.8140731 62.1784299,56.5892685 61.5324337,56.5892685 C61.4032345,56.5892685 61.4032345,56.7184678 61.4032345,56.7184678 Z" id="Shape"></path>
                <path d="M81.5583164,36.4341866 C81.5583164,36.4341866 81.4291172,36.4341866 81.4291172,36.4341866 C69.9303845,34.7545964 59.3360466,24.0310592 57.6564564,12.6615258 C57.5272572,12.0155296 58.0440542,11.2403342 58.6900504,11.2403342 C59.4652458,11.1111349 60.1112421,11.6279319 60.1112421,12.2739281 C61.661633,22.6098676 71.3515762,32.2998108 81.8167149,33.8502017 C82.4627111,33.979401 82.9795081,34.6253972 82.8503089,35.2713934 C82.7211096,35.9173896 82.2043127,36.4341866 81.5583164,36.4341866 Z" id="Shape"></path>
                <path d="M37.242976,34.1086002 C36.2093821,34.1086002 35.0465889,33.7210025 34.2713934,32.945807 L28.0698297,26.7442434 C26.3902396,25.0646532 26.3902396,22.4806683 28.0698297,20.8010782 L46.9329192,1.93798865 C48.6125094,0.258398486 51.1964943,0.258398486 52.8760844,1.93798865 L59.0776481,8.13955232 C60.7572383,9.81914249 60.7572383,12.4031274 59.0776481,14.0827175 L40.2145586,32.8166078 C39.4393631,33.7210025 38.2765699,34.1086002 37.242976,34.1086002 Z M49.9045018,3.10078184 C49.5169041,3.10078184 49.1293064,3.22998108 48.7417087,3.61757881 L29.8786191,22.4806683 C29.2326229,23.1266645 29.2326229,24.1602585 29.8786191,24.8062547 L36.0801828,31.0078184 C36.726179,31.6538146 37.759773,31.6538146 38.4057692,31.0078184 L57.2688587,12.1447289 C57.9148549,11.4987326 57.9148549,10.4651387 57.2688587,9.81914249 L51.067295,3.61757881 C50.6796973,3.35918032 50.2920996,3.10078184 49.9045018,3.10078184 Z" id="Shape"></path>
                <path d="M70.3179823,67.1836065 C69.1551891,67.1836065 68.1215951,66.7960088 67.3463997,66.0208133 L61.144836,59.8192496 C59.4652458,58.1396595 59.4652458,55.5556746 61.144836,53.8760844 L80.0079255,34.8837957 C81.5583164,33.3334048 84.4006998,33.3334048 85.9510907,34.8837957 L92.1526544,41.0853594 C93.8322445,42.7649495 93.8322445,45.3489344 92.1526544,47.0285245 L73.2895649,65.8916141 C72.5143694,66.7960088 71.4807755,67.1836065 70.3179823,67.1836065 Z M62.9536254,57.881261 L69.1551891,64.0828247 C69.8011853,64.7288209 70.8347792,64.7288209 71.4807755,64.0828247 L90.343865,45.2197351 C90.9898612,44.5737389 90.9898612,43.540145 90.343865,42.8941488 L84.1423013,36.6925851 C83.4963051,36.0465889 82.4627111,36.0465889 81.8167149,36.6925851 L62.9536254,55.5556746 C62.3076292,56.2016708 62.3076292,57.2352648 62.9536254,57.881261 Z" id="Shape"></path>
                <path d="M8.43154476,93.6694514 C7.01035308,93.6694514 5.71836065,93.1526544 4.81396595,92.1190604 L1.84238335,89.1474778 C0.80878941,88.1138839 0.29199243,86.8218915 0.29199243,85.4006998 C0.29199243,83.9795081 0.93798865,82.6875157 1.97158259,81.6539217 L48.8709079,36.9509836 C49.3877049,36.4341866 50.1629003,36.4341866 50.6796973,36.9509836 L56.881261,43.1525472 C57.3980579,43.6693442 57.3980579,44.4445397 56.881261,44.9613367 L12.3075221,91.9898612 C11.4031274,93.0234551 10.1111349,93.6694514 8.68994324,93.6694514 C8.560744,93.6694514 8.43154476,93.6694514 8.43154476,93.6694514 Z M49.7753026,39.6641677 L3.65117276,83.5919104 C3.13437578,84.1087074 2.74677805,84.7547036 2.74677805,85.4006998 C2.74677805,86.1758952 3.00517654,86.8218915 3.52197351,87.3386884 L6.49355611,90.310271 C7.01035308,90.827068 7.6563493,91.0854665 8.43154476,91.0854665 C9.2067402,91.0854665 9.8527364,90.6978688 10.2403342,90.1810718 L54.1680769,44.0569419 L49.7753026,39.6641677 Z" id="Shape"></path>
                <path d="M102.359395,97.6746279 L48.3541109,97.6746279 C47.5789155,97.6746279 47.0621185,97.1578309 47.0621185,96.3826355 C47.0621185,95.60744 47.5789155,95.090643 48.3541109,95.090643 L102.359395,95.090643 C103.13459,95.090643 103.651387,95.60744 103.651387,96.3826355 C103.651387,97.1578309 103.13459,97.6746279 102.359395,97.6746279 Z" id="Shape"></path>
                <path d="M93.3154476,91.343865 C92.5402521,91.343865 92.0234551,90.827068 92.0234551,90.0518725 C92.0234551,89.0182786 91.1190604,88.1138839 90.0854665,88.1138839 L60.628039,88.1138839 C59.5944451,88.1138839 58.6900504,89.0182786 58.6900504,90.0518725 C58.6900504,90.827068 58.1732534,91.343865 57.3980579,91.343865 C56.6228625,91.343865 56.1060655,90.827068 56.1060655,90.0518725 C56.1060655,87.5970869 58.1732534,85.529899 60.628039,85.529899 L90.0854665,85.529899 C92.5402521,85.529899 94.60744,87.5970869 94.60744,90.0518725 C94.60744,90.6978688 93.9614438,91.343865 93.3154476,91.343865 Z" id="Shape"></path>
            </g>
            <g id="noun_blocked_1745764">
                <g id="Group" transform="translate(0.000000, 0.112489)">
                    <path d="M75.0007981,0.631716025 C33.5996599,0.631716025 0,34.2313061 0,75.6325142 C0,117.033478 33.5996564,150.633312 75.0007981,150.633312 C116.401938,150.633312 150.001596,117.033478 150.001596,75.6325142 C150.001596,34.2313061 116.401935,0.631716025 75.0007981,0.631716025 Z M75.0007981,4.12012524 C94.1272749,4.12012524 111.446864,11.6895145 124.274578,23.9059463 L23.2197238,124.906294 C11.0195289,112.0814 3.48840922,94.7446239 3.48840922,75.6325142 C3.48840922,36.116582 35.4849358,4.12012524 75.0007981,4.12012524 Z M126.727366,26.3042276 C138.975575,39.1374118 146.513187,56.4779592 146.513187,75.6325142 C146.513187,115.148342 114.516655,147.144903 75.0007981,147.144903 C55.846285,147.144903 38.4511964,139.661796 25.6180052,127.413588 L126.727366,26.3042276 Z" id="Shape"></path>
                </g>
            </g>
        </g>
    </g>
</svg>