<?xml version="1.0" encoding="UTF-8"?>
<svg width="259px" height="343px" viewBox="0 0 259 343" version="1.1" xmlns="http://www.w3.org/2000/svg" xmlns:xlink="http://www.w3.org/1999/xlink">
    <!-- Generator: Sketch 48.2 (47327) - http://www.bohemiancoding.com/sketch -->
    <title>noun_990586_cc</title>
    <desc>Created with Sketch.</desc>
    <defs></defs>
    <g id="I-know-required-loan-amount" stroke="none" stroke-width="1" fill="none" fill-rule="evenodd" transform="translate(-912.000000, -254.000000)" opacity="0.06">
        <g id="main" transform="translate(231.000000, 254.000000)" fill="#FB5632" fill-rule="nonzero">
            <g id="noun_990586_cc" transform="translate(681.000000, -21.000000)">
                <g id="Group">
                    <path d="M258.273497,86.3664941 C258.666702,84.7470986 257.777026,83.0930635 256.291585,82.6644 C254.802172,82.2314065 253.284957,83.2056418 252.899695,84.8293673 C252.713022,85.5914358 238.275646,142.9241 189.363323,195.199401 C187.651491,193.605985 185.467019,192.601441 183.044241,192.601441 C177.662495,192.601441 173.277663,197.381688 173.277663,203.24875 L173.277663,210.956033 C162.994756,220.213434 151.397193,229.033511 138.540581,237.147808 C136.963789,233.592932 133.643391,231.107549 129.774889,231.107549 C125.803121,231.107549 122.399316,233.70984 120.870185,237.424924 C108.605366,229.71764 97.5122176,221.365196 87.578826,212.601409 L87.578826,203.24875 C87.578826,197.381688 83.1979659,192.601441 77.8162203,192.601441 C74.9247733,192.601441 72.3510676,194.004339 70.5598003,196.190956 C20.9285879,143.668849 6.25290533,85.5957658 6.06623224,84.8293673 C5.67302721,83.2099718 4.14389655,82.2487263 2.67037063,82.6687299 C1.18492942,83.0930635 0.299225166,84.7514285 0.688458426,86.3664941 C0.879103287,87.167532 16.1624664,147.873216 68.1608524,202.071008 C68.1211348,202.465032 68.0536147,202.846066 68.0536147,203.24442 L68.0536147,221.603343 C68.0536147,225.660492 70.170567,229.154749 73.2447154,230.951672 L63.2001143,246.123763 C63.2676343,245.565201 63.358985,245.015299 63.358985,244.435088 C63.358985,237.087189 57.8739734,231.103219 51.1299114,231.103219 C44.3858495,231.103219 38.9008379,237.087189 38.9008379,244.435088 C38.9008379,251.782987 44.3858495,257.766957 51.1299114,257.766957 C53.0165012,257.766957 54.783938,257.260355 56.3845605,256.420347 L56.3488145,256.476636 C55.896033,257.108807 55.4631103,257.758297 55.0262158,258.477066 C53.8029113,260.516465 52.8814611,262.711742 52.1585993,264.971968 C50.02576,261.062037 46.1493144,258.403457 41.6810755,258.403457 C34.9370135,258.403457 29.452002,264.387427 29.452002,271.735326 C29.452002,279.083225 34.9370135,285.067195 41.6810755,285.067195 C45.4820574,285.067195 48.8382013,283.127384 51.0822502,280.152719 C51.5787212,283.027796 52.4564819,285.755654 53.6559559,288.275676 C52.8377717,288.089489 51.9957569,287.985571 51.1299114,287.985571 C44.3858495,287.985571 38.9008379,293.96954 38.9008379,301.317439 C38.9008379,308.665339 44.3858495,314.649308 51.1299114,314.649308 C57.8739734,314.649308 63.358985,308.665339 63.358985,301.317439 C63.358985,300.750218 63.2676343,300.213306 63.204086,299.667734 C64.6458378,300.672279 66.1789402,301.538266 67.791478,302.235386 C63.8236818,304.443652 61.0752184,308.894825 61.0752184,314.069097 C61.0752184,321.416996 66.56023,327.400966 73.3042919,327.400966 C78.3921267,327.400966 82.7570997,323.988977 84.5960282,319.1611 C86.4349568,323.988977 90.8039015,327.400966 95.8877645,327.400966 C99.1724166,327.400966 102.143299,325.963427 104.343659,323.659902 C105.205532,326.145285 106.365288,328.46613 107.775266,330.583468 C106.111095,329.656862 104.25628,329.08531 102.262452,329.08531 C95.5183901,329.08531 90.0333786,335.06928 90.0333786,342.417179 C90.0333786,349.765078 95.5183901,355.749048 102.262452,355.749048 C109.006514,355.749048 114.491526,349.765078 114.491526,342.417179 C114.491526,340.37345 114.034772,338.459619 113.276165,336.731975 C115.456665,338.554877 117.895331,340.018395 120.524641,341.05758 C118.344141,343.469353 116.989768,346.764433 116.989768,350.410238 C116.989768,357.758138 122.474779,363.742107 129.218841,363.742107 C135.958931,363.742107 141.443943,357.758138 141.443943,350.410238 C141.443943,346.924641 140.184893,343.776779 138.171206,341.399644 C140.343763,340.624586 142.389224,339.555092 144.283757,338.247452 C143.93027,339.485813 143.687992,340.780464 143.687992,342.144393 C143.687992,349.492292 149.176975,355.476262 155.917065,355.476262 C162.657156,355.476262 168.146139,349.492292 168.146139,342.144393 C168.146139,334.796494 162.657156,328.812524 155.917065,328.812524 C154.741422,328.812524 153.625355,329.055001 152.545034,329.392736 C153.621384,327.608803 154.507088,325.686312 155.210091,323.659902 C157.41045,325.963427 160.385304,327.400966 163.665985,327.400966 C169.49654,327.400966 174.373871,322.919483 175.589232,316.952833 C176.804593,322.919483 181.681924,327.400966 187.512479,327.400966 C194.25257,327.400966 199.741553,321.416996 199.741553,314.069097 C199.741553,308.903485 197.001033,304.456642 193.04118,302.248375 C194.514706,301.611875 195.920712,300.832487 197.255226,299.93619 C197.211537,300.395163 197.12813,300.845477 197.12813,301.317439 C197.12813,308.665339 202.617113,314.649308 209.357203,314.649308 C216.097293,314.649308 221.586277,308.665339 221.586277,301.317439 C221.586277,293.96954 216.097293,287.985571 209.357203,287.985571 C208.63037,287.985571 207.931339,288.085159 207.236279,288.219387 C208.364261,285.837923 209.222163,283.278932 209.726578,280.577053 C211.962683,283.313571 215.187759,285.067195 218.806039,285.067195 C225.546129,285.067195 231.035113,279.083225 231.035113,271.735326 C231.035113,264.387427 225.546129,258.403457 218.806039,258.403457 C214.504614,258.403457 210.731435,260.84987 208.550934,264.525985 C207.84396,262.425967 206.978114,260.377907 205.842189,258.481396 C205.468842,257.853556 205.075637,257.282004 204.698319,256.753752 C206.136099,257.398912 207.70892,257.766957 209.357203,257.766957 C216.097293,257.766957 221.586277,251.782987 221.586277,244.435088 C221.586277,237.087189 216.097293,231.103219 209.357203,231.103219 C202.617113,231.103219 197.12813,237.087189 197.12813,244.435088 C197.12813,244.785813 197.199622,245.110558 197.21948,245.452623 L187.619717,230.947342 C190.685922,229.150419 192.806846,225.651832 192.806846,221.599013 L192.806846,203.24009 C192.806846,202.244205 192.640032,201.300279 192.401726,200.382333 C243.109287,146.621865 258.082852,87.1545422 258.273497,86.3664941 Z M51.1219679,251.709378 C47.4441108,251.709378 44.4533695,248.448938 44.4533695,244.439418 C44.4533695,240.429899 47.4441108,237.169458 51.1219679,237.169458 C54.799825,237.169458 57.7905663,240.429899 57.7905663,244.439418 C57.7905663,248.448938 54.799825,251.709378 51.1219679,251.709378 Z M41.6731319,279.013946 C37.9952748,279.013946 35.0045336,275.753505 35.0045336,271.743986 C35.0045336,267.734466 37.9952748,264.474026 41.6731319,264.474026 C45.3509891,264.474026 48.3417303,267.734466 48.3417303,271.743986 C48.3417303,275.753505 45.3509891,279.013946 41.6731319,279.013946 Z M178.838138,203.24442 C178.838138,200.715738 180.724728,198.659019 183.044241,198.659019 C185.359781,198.659019 187.246371,200.715738 187.246371,203.24442 L187.246371,221.603343 C187.246371,224.132025 185.359781,226.188744 183.044241,226.188744 C180.724728,226.188744 178.838138,224.132025 178.838138,221.603343 L178.838138,203.24442 Z M125.568786,241.750529 C125.568786,239.226177 127.455376,237.169458 129.774889,237.169458 C132.090429,237.169458 133.977019,239.226177 133.977019,241.750529 L133.977019,260.113781 C133.977019,262.638133 132.090429,264.694852 129.774889,264.694852 C127.455376,264.694852 125.568786,262.638133 125.568786,260.113781 L125.568786,241.750529 Z M73.6101181,203.24442 C73.6101181,200.715738 75.4967078,198.659019 77.8122486,198.659019 C80.1277893,198.659019 82.0143791,200.715738 82.0143791,203.24442 L82.0143791,221.603343 C82.0143791,224.132025 80.1277893,226.188744 77.8122486,226.188744 C75.4967078,226.188744 73.6101181,224.132025 73.6101181,221.603343 L73.6101181,203.24442 Z M59.6850996,261.776476 C60.0107846,261.239564 77.8162203,234.40263 77.8162203,234.40263 C77.8162203,234.40263 95.605769,261.209255 95.9552846,261.798126 C98.25891,265.647438 99.4782428,270.098611 99.4782428,274.679682 C99.4782428,287.704125 89.7593266,298.295145 77.8162203,298.295145 C65.8731141,298.295145 56.1541979,287.704125 56.1541979,274.679682 C56.1502261,270.094281 57.3695589,265.643108 59.6850996,261.776476 Z M51.1219679,308.59606 C47.4441108,308.59606 44.4533695,305.335619 44.4533695,301.326099 C44.4533695,297.31658 47.4441108,294.056139 51.1219679,294.056139 C54.799825,294.056139 57.7905663,297.31658 57.7905663,301.326099 C57.7905663,305.335619 54.799825,308.59606 51.1219679,308.59606 Z M73.2963484,321.347717 C69.6184913,321.347717 66.62775,318.087276 66.62775,314.077757 C66.62775,310.068237 69.6184913,306.807797 73.2963484,306.807797 C76.9742055,306.807797 79.9649468,310.068237 79.9649468,314.077757 C79.9649468,318.087276 76.9742055,321.347717 73.2963484,321.347717 Z M84.5880847,308.985754 C83.8612512,307.076253 82.7094385,305.426547 81.3034326,304.084268 C94.6684318,302.205076 105.038718,289.743524 105.038718,274.675352 C105.038718,268.916539 103.505615,263.313603 100.610197,258.485726 C100.173302,257.749637 82.3877252,230.956002 82.3877252,230.956002 C85.4579019,229.159079 87.578826,225.664821 87.578826,221.607673 L87.578826,220.300032 C97.3414316,228.630827 108.132725,236.571927 120.008311,243.898176 L120.008311,260.113781 C120.008311,264.17526 122.125264,267.660858 125.199412,269.45778 C125.199412,269.45778 107.409863,296.268736 106.976941,296.983175 C105.646398,299.204431 104.641541,301.598885 103.902792,304.088598 C101.750094,302.031879 98.9658847,300.745888 95.8837928,300.745888 C90.795958,300.745888 86.4270133,304.157877 84.5880847,308.985754 Z M95.879821,321.347717 C92.2019639,321.347717 89.2112226,318.087276 89.2112226,314.077757 C89.2112226,310.068237 92.2019639,306.807797 95.879821,306.807797 C99.5576781,306.807797 102.548419,310.068237 102.548419,314.077757 C102.548419,318.087276 99.5576781,321.347717 95.879821,321.347717 Z M102.25848,349.695799 C98.5806232,349.695799 95.5898819,346.435358 95.5898819,342.425839 C95.5898819,338.416319 98.5806232,335.155879 102.25848,335.155879 C105.936337,335.155879 108.927079,338.416319 108.927079,342.425839 C108.927079,346.435358 105.936337,349.695799 102.25848,349.695799 Z M108.108895,313.18579 C108.108895,308.60039 109.324256,304.144887 111.639796,300.282585 C111.969453,299.741343 129.770917,272.908738 129.770917,272.908738 C129.770917,272.908738 147.560466,299.719694 147.913953,300.304235 C150.213607,304.153547 151.432939,308.609049 151.432939,313.19012 C151.432939,326.214564 141.717995,336.805584 129.770917,336.805584 C117.823839,336.805584 108.108895,326.210234 108.108895,313.18579 Z M129.214869,357.684529 C125.537012,357.684529 122.546271,354.424088 122.546271,350.414568 C122.546271,346.405049 125.537012,343.144608 129.214869,343.144608 C132.888755,343.144608 135.879496,346.405049 135.879496,350.414568 C135.879496,354.424088 132.888755,357.684529 129.214869,357.684529 Z M162.581692,342.157383 C162.581692,346.166902 159.590951,349.427343 155.913094,349.427343 C152.235236,349.427343 149.244495,346.166902 149.244495,342.157383 C149.244495,338.147864 152.235236,334.887423 155.913094,334.887423 C159.590951,334.887423 162.581692,338.147864 162.581692,342.157383 Z M163.662013,321.347717 C159.984156,321.347717 156.993415,318.087276 156.993415,314.077757 C156.993415,310.068237 159.984156,306.807797 163.662013,306.807797 C167.33987,306.807797 170.330611,310.068237 170.330611,314.077757 C170.330611,318.087276 167.33987,321.347717 163.662013,321.347717 Z M175.58526,311.19402 C174.369899,305.22737 169.492568,300.745888 163.662013,300.745888 C160.583893,300.745888 157.795712,302.036209 155.643013,304.092928 C154.900293,301.607545 153.899407,299.208761 152.568865,296.987505 C152.127999,296.247086 134.346394,269.45778 134.346394,269.45778 C137.41657,267.665187 139.537494,264.17093 139.537494,260.113781 L139.537494,243.534462 C151.945297,235.840168 163.181429,227.483394 173.273691,218.719606 L173.273691,221.607673 C173.273691,225.669151 175.390644,229.159079 178.464792,230.956002 C178.464792,230.956002 160.675243,257.762627 160.242321,258.481396 C157.346902,263.317933 155.817771,268.920868 155.817771,274.675352 C155.817771,289.734864 166.164227,302.179096 179.509367,304.075608 C177.575116,305.91583 176.161167,308.370903 175.58526,311.19402 Z M187.508508,321.347717 C183.830651,321.347717 180.839909,318.087276 180.839909,314.077757 C180.839909,310.068237 183.830651,306.807797 187.508508,306.807797 C191.186365,306.807797 194.177106,310.068237 194.177106,314.077757 C194.177106,318.087276 191.186365,321.347717 187.508508,321.347717 Z M216.02183,301.326099 C216.02183,305.335619 213.031089,308.59606 209.353231,308.59606 C205.675374,308.59606 202.684633,305.335619 202.684633,301.326099 C202.684633,297.31658 205.675374,294.056139 209.353231,294.056139 C213.031089,294.056139 216.02183,297.31658 216.02183,301.326099 Z M218.802067,264.474026 C222.479925,264.474026 225.470666,267.734466 225.470666,271.743986 C225.470666,275.753505 222.479925,279.013946 218.802067,279.013946 C215.12421,279.013946 212.133469,275.753505 212.133469,271.743986 C212.133469,267.734466 215.12421,264.474026 218.802067,264.474026 Z M183.040269,298.295145 C171.093191,298.295145 161.378246,287.704125 161.378246,274.679682 C161.378246,270.102941 162.593607,265.647438 164.91312,261.776476 C165.234833,261.239564 183.040269,234.406959 183.040269,234.406959 C183.040269,234.406959 200.829817,261.209255 201.179333,261.802456 C203.482958,265.651768 204.702291,270.102941 204.702291,274.684012 C204.702291,287.699795 194.987347,298.295145 183.040269,298.295145 Z M209.353231,237.169458 C213.031089,237.169458 216.02183,240.429899 216.02183,244.439418 C216.02183,248.448938 213.031089,251.709378 209.353231,251.709378 C205.675374,251.709378 202.684633,248.448938 202.684633,244.439418 C202.684633,240.429899 205.675374,237.169458 209.353231,237.169458 Z" id="Shape"></path>
                    <path d="M141.646503,307.279759 C141.646503,304.759738 140.979246,302.317654 139.744026,300.260935 C139.54941,299.923201 132.030853,288.591762 132.030853,288.591762 C131.50658,287.799384 130.668537,287.331751 129.774889,287.331751 C128.881241,287.331751 128.043198,287.799384 127.522896,288.591762 C127.522896,288.591762 120.012283,299.905881 119.829582,300.217636 C118.562588,302.326314 117.895331,304.772727 117.895331,307.284089 C117.895331,314.424152 123.225443,320.234924 129.774889,320.234924 C136.320362,320.230594 141.646503,314.419822 141.646503,307.279759 Z M123.455806,307.279759 C123.455806,305.94614 123.809293,304.651489 124.492437,303.508386 C124.583788,303.356839 124.683082,303.213951 124.849896,302.975804 L129.774889,295.541307 L134.727683,303.019104 C134.842865,303.179311 134.958046,303.343849 135.069255,303.530036 C135.736512,304.647159 136.09,305.94614 136.09,307.279759 C136.09,311.077112 133.258129,314.168685 129.77886,314.168685 C126.287676,314.168685 123.455806,311.077112 123.455806,307.279759 Z" id="Shape"></path>
                    <path d="M77.8122486,281.724485 C84.3616939,281.724485 89.6878347,275.913713 89.6878347,268.777981 C89.6878347,266.262289 89.016606,263.815876 87.7774144,261.750497 C87.5827977,261.412762 80.064241,250.085653 80.064241,250.085653 C79.019666,248.513887 76.6008593,248.513887 75.5562844,250.085653 C75.5562844,250.085653 68.0456712,261.399772 67.8589981,261.715857 C66.5959759,263.833195 65.9287188,266.275278 65.9287188,268.782311 C65.9326906,275.913713 71.2628032,281.724485 77.8122486,281.724485 Z M72.5297972,265.002278 C72.6211478,264.85506 72.720442,264.712172 72.8912281,264.469696 L77.8122486,257.035198 L82.7809303,264.530315 C82.8961115,264.686192 83.0073211,264.85073 83.1026435,265.010938 C83.7738723,266.136721 84.1273596,267.435701 84.1273596,268.769321 C84.1273596,272.566673 81.2954891,275.653917 77.8122486,275.653917 C74.3290081,275.653917 71.4931658,272.566673 71.4931658,268.769321 C71.4971375,267.444361 71.8506249,266.14538 72.5297972,265.002278 Z" id="Shape"></path>
                    <path d="M185.292261,250.081323 C184.767988,249.293275 183.929945,248.825642 183.040269,248.825642 C182.150593,248.825642 181.308578,249.293275 180.788276,250.081323 C180.788276,250.081323 173.297522,261.373792 173.09099,261.711527 C171.835911,263.820205 171.168654,266.266619 171.168654,268.777981 C171.168654,275.913713 176.498767,281.724485 183.044241,281.724485 C189.589714,281.724485 194.919827,275.913713 194.919827,268.777981 C194.919827,266.266619 194.248598,263.820205 193.001463,261.737507 C192.802874,261.399772 185.292261,250.081323 185.292261,250.081323 Z M183.040269,275.658247 C179.557028,275.658247 176.725158,272.571003 176.725158,268.773651 C176.725158,267.435701 177.078645,266.136721 177.726043,265.054237 L183.040269,257.030868 L188.00895,264.530315 C188.124132,264.686192 188.235341,264.85073 188.326692,265.010938 C189.001892,266.136721 189.35538,267.440031 189.35538,268.769321 C189.35538,272.571003 186.523509,275.658247 183.040269,275.658247 Z" id="Shape"></path>
                    <path d="M97.0594361,114.679937 C102.326,114.679937 106.611538,110.003607 106.611538,104.262114 C106.611538,102.235705 106.071378,100.274244 105.090351,98.6418588 C104.927508,98.3604131 99.3154003,89.8997208 99.3154003,89.8997208 C98.7950987,89.1116727 97.9570556,88.6397098 97.0634078,88.6397098 C96.1697601,88.6397098 95.331717,89.1073427 94.8114154,89.8997208 L89.0880978,98.5422703 C89.0483801,98.6028894 89.0126342,98.6678384 88.9808601,98.7327875 C88.0196922,100.391152 87.5152777,102.300654 87.5152777,104.257784 C87.5033624,110.007937 91.7889,114.679937 97.0594361,114.679937 Z M93.7152075,101.9023 C93.826417,101.716112 93.8979088,101.724772 93.9694006,101.512605 L97.0594361,96.8535958 L100.121669,101.477966 C100.141528,101.508276 100.379834,101.86766 100.399693,101.9023 C100.8207,102.608079 101.047091,103.422107 101.047091,104.262114 C101.047091,106.665228 99.2558238,108.618028 97.0594361,108.618028 C94.8590766,108.618028 93.0678093,106.665228 93.0678093,104.262114 C93.0678093,103.422107 93.2902283,102.608079 93.7152075,101.9023 Z" id="Shape"></path>
                    <path d="M71.830766,120.027406 C74.0986455,120.027406 76.1639649,119.148429 77.8281356,117.736871 C78.1577924,118.563888 78.5867433,119.321627 78.9998072,120.092355 C78.2213407,119.875858 77.4190435,119.724311 76.5770287,119.724311 C71.1674808,119.724311 66.7627901,124.526208 66.7627901,130.427909 C66.7627901,134.935371 69.3444393,138.784683 72.9706634,140.356449 L72.9706634,153.489141 L68.613634,160.070642 C68.458735,160.291468 68.3117796,160.516625 68.1727677,160.741781 C67.1520234,162.434786 66.6118629,164.404906 66.6118629,166.431316 C66.6118629,172.172809 70.8974006,176.844808 76.1639649,176.844808 C81.4305292,176.844808 85.7160668,172.172809 85.7160668,166.431316 C85.7160668,164.400576 85.1759064,162.430456 84.1948797,160.80673 C84.0320372,160.525285 83.8612512,160.265489 83.7381264,160.096621 L78.5351103,152.24212 L78.5351103,140.910681 C83.0112928,139.919126 86.3912673,135.593521 86.3912673,130.427909 C86.3912673,129.622541 86.2959449,128.847483 86.141046,128.089744 C87.0585244,128.704595 87.9918898,129.297796 88.9967471,129.756769 C87.6622331,131.584002 86.8321336,133.865877 86.8321336,136.372909 C86.8321336,141.213776 89.8149313,145.266595 93.8661346,146.582895 L93.8661346,168.583293 L89.4932181,175.186443 C89.3462627,175.39861 89.1993073,175.619437 89.0642672,175.844593 C88.0474946,177.541928 87.5073341,179.507718 87.5073341,181.529798 C87.5073341,187.271291 91.7928718,191.94329 97.0594361,191.94329 C102.326,191.94329 106.611538,187.271291 106.611538,181.529798 C106.611538,179.507718 106.071378,177.541928 105.074464,175.874903 C104.919565,175.606447 104.748779,175.350981 104.633598,175.190773 L99.4305815,167.336272 L99.4305815,146.587225 C103.481785,145.266595 106.460611,141.213776 106.460611,136.377239 C106.460611,133.969796 105.702003,131.774519 104.466783,129.981926 C105.292911,129.639861 106.067406,129.211197 106.841901,128.765214 C106.778352,129.245837 106.70686,129.72646 106.70686,130.224402 C106.70686,134.900732 109.49107,138.840972 113.327798,140.29583 L113.327798,153.484811 L108.927079,160.131261 C108.784095,160.339098 108.641111,160.551264 108.52593,160.746111 C107.509158,162.439116 106.968997,164.404906 106.968997,166.431316 C106.968997,172.172809 111.254535,176.844808 116.521099,176.844808 C121.787663,176.844808 126.073201,172.172809 126.073201,166.431316 C126.073201,164.400576 125.533041,162.434786 124.552014,160.80673 C124.389171,160.525285 124.218385,160.265489 124.095261,160.096621 L118.892245,152.24212 L118.892245,140.577276 C123.153952,139.412523 126.335338,135.229807 126.335338,130.224402 C126.335338,124.327031 121.934619,119.525134 116.521099,119.525134 C116.115979,119.525134 115.730717,119.603072 115.337512,119.655032 C115.663197,119.018531 116.024628,118.40801 116.294708,117.736871 C117.958879,119.152759 120.024198,120.027406 122.292078,120.027406 C127.701626,120.027406 132.106317,115.225508 132.106317,109.323808 C132.106317,103.426437 127.705598,98.6245391 122.292078,98.6245391 C120.183069,98.6245391 118.236903,99.3692878 116.63628,100.611979 C116.104063,99.0748523 115.468581,97.5766949 114.630538,96.1824559 C114.288965,95.6152345 101.519731,76.373005 101.519731,76.373005 C103.644627,74.8098986 105.046661,72.1599786 105.046661,69.1593339 L105.046661,55.4940601 C105.046661,51.7659864 102.874104,48.6051341 99.8476172,47.3711027 L99.8476172,26.2366918 C99.8476172,24.5610071 98.6044538,23.2057375 97.0673796,23.2057375 C96.9601419,23.2057375 96.5748804,23.2057375 96.4716144,23.2057375 C92.1622462,23.2057375 88.6512033,19.3824052 88.6512033,14.6800962 C88.6512033,9.97778719 92.1582744,6.1544549 96.4716144,6.1544549 C98.0086886,6.1544549 99.251852,4.79918536 99.251852,3.12350065 C99.251852,1.44781595 98.0086886,0.0925464052 96.4716144,0.0925464052 C89.0960413,0.0925464052 83.0907282,6.63940758 83.0907282,14.6844261 C83.0907282,21.9110871 87.9521722,27.8863969 94.287142,29.0294996 L94.287142,47.3711027 C91.2606549,48.6094641 89.0880978,51.7703163 89.0880978,55.4940601 L89.0880978,69.1593339 C89.0880978,72.1599786 90.4901319,74.8098986 92.6150277,76.373005 C92.6150277,76.373005 79.8338785,95.6325542 79.5042217,96.1824559 C78.6701504,97.5766949 78.0306958,99.0748523 77.4984789,100.611979 C75.8938846,99.3736178 73.9516901,98.628869 71.8426813,98.628869 C66.4331334,98.628869 62.0284427,103.426437 62.0284427,109.328138 C62.0165274,115.225508 66.4212181,120.027406 71.830766,120.027406 Z M79.5121653,164.062841 C79.9331727,164.764291 80.1555917,165.582648 80.1555917,166.426986 C80.1555917,168.825769 78.3643243,170.77857 76.1679366,170.77857 C73.9675772,170.77857 72.1763098,168.825769 72.1763098,166.426986 C72.1763098,165.595638 72.3947571,164.79027 72.8038492,164.093151 C72.9190304,163.924283 73.0302399,163.759746 73.0779012,163.677477 L76.1639649,159.014138 L79.226198,163.638508 C79.2500286,163.673147 79.4923064,164.032532 79.5121653,164.062841 Z M76.5770287,135.056609 C74.2336856,135.056609 72.3232653,132.978241 72.3232653,130.423579 C72.3232653,127.864588 74.2297139,125.786219 76.5770287,125.786219 C78.9243436,125.786219 80.8268204,127.864588 80.8268204,130.423579 C80.8307922,132.978241 78.9243436,135.056609 76.5770287,135.056609 Z M100.399693,179.156993 C100.824672,179.867103 101.047091,180.68546 101.047091,181.525468 C101.047091,183.924252 99.2558238,185.877052 97.0594361,185.877052 C94.8590766,185.877052 93.0678093,183.924252 93.0678093,181.525468 C93.0678093,180.68979 93.2942001,179.867103 93.6238568,179.299881 C93.6596027,179.247922 93.9376265,178.827918 93.9694006,178.771629 L97.0594361,174.10829 L100.121669,178.73266 C100.141528,178.771629 100.379834,179.126684 100.399693,179.156993 Z M96.6463722,141.010269 C94.3030291,141.010269 92.3926087,138.931901 92.3926087,136.372909 C92.3926087,133.818248 94.2990573,131.739879 96.6463722,131.739879 C98.9897153,131.739879 100.896164,133.818248 100.896164,136.372909 C100.892192,138.931901 98.9897153,141.010269 96.6463722,141.010269 Z M119.861356,164.067171 C120.282363,164.768621 120.504782,165.586978 120.504782,166.431316 C120.504782,168.830099 118.713515,170.7829 116.517127,170.7829 C114.32074,170.7829 112.529472,168.830099 112.529472,166.431316 C112.529472,165.586978 112.751891,164.772951 113.081548,164.214389 C113.125237,164.15377 113.395318,163.746756 113.431064,163.677477 L116.517127,159.014138 L119.583332,163.638508 C119.599219,163.673147 119.841497,164.036862 119.861356,164.067171 Z M120.766919,130.220072 C120.766919,132.779064 118.86047,134.857432 116.517127,134.857432 C114.173784,134.857432 112.263364,132.779064 112.263364,130.220072 C112.263364,127.665411 114.169812,125.587042 116.517127,125.587042 C118.864442,125.587042 120.766919,127.665411 120.766919,130.220072 Z M122.284134,104.690778 C124.627477,104.690778 126.533926,106.769146 126.533926,109.323808 C126.533926,111.882799 124.627477,113.961168 122.284134,113.961168 C119.940791,113.961168 118.030371,111.882799 118.030371,109.323808 C118.030371,106.769146 119.940791,104.690778 122.284134,104.690778 Z M94.6406294,69.1593339 L94.6406294,55.4940601 C94.6406294,54.0392021 95.724922,52.8571299 97.0554643,52.8571299 C98.3860066,52.8571299 99.4702992,54.0392021 99.4702992,55.4940601 L99.4702992,69.1593339 C99.4702992,70.609862 98.3860066,71.7919341 97.0554643,71.7919341 C95.724922,71.7919341 94.6406294,70.609862 94.6406294,69.1593339 Z M84.1591338,99.4818661 C84.3974398,99.092172 97.0594361,80.0014902 97.0594361,80.0014902 C97.0594361,80.0014902 109.717461,99.0748523 109.967682,99.4948559 C111.608022,102.231375 112.469896,105.400887 112.469896,108.656998 C112.469896,117.923058 105.555048,125.457144 97.0594361,125.457144 C88.5638244,125.457144 81.6489764,117.923058 81.6489764,108.656998 C81.6450046,105.400887 82.5108501,102.231375 84.1591338,99.4818661 Z M71.830766,104.690778 C74.1741091,104.690778 76.0845295,106.769146 76.0845295,109.323808 C76.0845295,111.882799 74.1780809,113.961168 71.830766,113.961168 C69.4834512,113.961168 67.5809743,111.882799 67.5809743,109.323808 C67.5809743,106.769146 69.4874229,104.690778 71.830766,104.690778 Z" id="Shape"></path>
                    <path d="M169.56406,114.679937 C174.830624,114.679937 179.116162,110.003607 179.116162,104.262114 C179.116162,102.248694 178.576002,100.282904 177.53937,98.5422703 L171.820024,89.8953908 C170.771478,88.3192946 168.360614,88.3192946 167.312068,89.8953908 C167.312068,89.8953908 161.695988,98.3517532 161.568891,98.5812397 C160.552119,100.278574 160.011958,102.244364 160.011958,104.257784 C160.007986,110.007937 164.293524,114.679937 169.56406,114.679937 Z M166.219831,101.89797 C166.231747,101.88065 166.48594,101.499616 166.497855,101.477966 L169.560088,96.8492659 L172.904317,101.89797 C173.325324,102.608079 173.551715,103.426437 173.551715,104.262114 C173.551715,106.665228 171.76442,108.618028 169.560088,108.618028 C167.355757,108.618028 165.568462,106.665228 165.568462,104.262114 C165.572433,103.426437 165.794852,102.608079 166.219831,101.89797 Z" id="Shape"></path>
                    <path d="M144.33539,120.027406 C146.60327,120.027406 148.668589,119.148429 150.33276,117.736871 C150.598868,118.40801 150.964271,119.018531 151.289956,119.655032 C150.896751,119.603072 150.511489,119.525134 150.106369,119.525134 C144.696821,119.525134 140.288158,124.322701 140.288158,130.224402 C140.288158,135.229807 143.473516,139.412523 147.735223,140.577276 L147.735223,152.24212 L142.591784,160.005693 C142.405111,160.265489 142.234325,160.525285 142.115172,160.737452 C141.090456,162.426126 140.550295,164.396246 140.550295,166.431316 C140.550295,172.172809 144.835833,176.844808 150.102397,176.844808 C155.36499,176.844808 159.650527,172.172809 159.650527,166.431316 C159.650527,164.404906 159.110367,162.439116 158.093594,160.746111 C157.954582,160.512295 157.803655,160.291468 157.688474,160.131261 L153.291727,153.480481 L153.291727,140.2915 C157.132426,138.836642 159.912664,134.896402 159.912664,130.220072 C159.912664,129.72213 159.8372,129.241507 159.777624,128.760884 C160.548147,129.211197 161.326613,129.635531 162.152741,129.977596 C160.917521,131.770189 160.158914,133.965466 160.158914,136.372909 C160.158914,141.213776 163.13774,145.266595 167.188943,146.582895 L167.188943,167.336272 L162.049475,175.099845 C161.870746,175.350981 161.69996,175.606447 161.556976,175.848923 C160.540203,177.550588 160.004015,179.512048 160.004015,181.525468 C160.004015,187.266961 164.289552,191.938961 169.556117,191.938961 C174.822681,191.938961 179.108218,187.266961 179.108218,181.525468 C179.108218,179.512048 178.57203,177.550588 177.555257,175.848923 C177.531427,175.809954 177.507596,175.770985 177.479794,175.732015 C177.372556,175.550158 177.253403,175.38129 177.150137,175.225413 L172.745446,168.574633 L172.745446,146.578565 C176.800621,145.262265 179.779447,141.209446 179.779447,136.368579 C179.779447,133.857217 178.949348,131.579672 177.614834,129.752439 C178.619691,129.293466 179.549085,128.700265 180.470535,128.081084 C180.315636,128.834493 180.220314,129.613881 180.220314,130.419249 C180.220314,135.584861 183.600288,139.906136 188.076471,140.902021 L188.076471,152.23346 L182.937003,159.997033 C182.75033,160.256829 182.575572,160.516625 182.452447,160.737452 C181.431703,162.430456 180.891542,164.396246 180.891542,166.422656 C180.891542,172.164149 185.17708,176.836148 190.443644,176.836148 C195.710209,176.836148 199.995746,172.164149 199.995746,166.422656 C199.995746,164.396246 199.455586,162.430456 198.434841,160.737452 C198.414983,160.702812 198.391152,160.663843 198.367321,160.633533 C198.25214,160.443016 198.125043,160.261159 198.033693,160.126931 L193.632974,153.476151 L193.632974,140.347789 C197.26317,138.776023 199.844819,134.931041 199.844819,130.419249 C199.844819,124.517548 195.440128,119.715651 190.026609,119.715651 C189.184594,119.715651 188.382297,119.867198 187.60383,120.083695 C188.016894,119.312967 188.449817,118.550898 188.779473,117.728211 C190.443644,119.144099 192.504992,120.018746 194.776843,120.018746 C200.186391,120.018746 204.591082,115.216849 204.591082,109.315148 C204.591082,103.417777 200.190363,98.6158792 194.776843,98.6158792 C192.667834,98.6158792 190.721668,99.360628 189.117074,100.603319 C188.580885,99.0618625 187.937459,97.5507153 187.095444,96.1434865 C186.785646,95.6282243 174.000525,76.3600152 174.000525,76.3600152 C176.125421,74.7969088 177.527455,72.1426588 177.527455,69.1463441 L177.527455,55.4810703 C177.527455,51.7529966 175.354898,48.5921443 172.328411,47.3581129 L172.328411,29.0165098 C178.667352,27.8690771 183.524824,21.8937673 183.524824,14.6714363 C183.524824,6.62641778 177.519511,0.0795566013 170.143938,0.0795566013 C168.606864,0.0795566013 167.363701,1.43482614 167.363701,3.11051085 C167.363701,4.78619556 168.606864,6.1414651 170.143938,6.1414651 C174.457278,6.1414651 177.964349,9.96479739 177.964349,14.6671064 C177.964349,19.3650855 174.457278,23.1927477 170.143938,23.1927477 C170.040672,23.1927477 169.651439,23.1927477 169.548173,23.1927477 C168.011099,23.1927477 166.767935,24.5480173 166.767935,26.223702 L166.767935,47.3581129 C163.741448,48.5964742 161.568891,51.7573265 161.568891,55.4810703 L161.568891,69.1463441 C161.568891,72.1469888 162.970925,74.7969088 165.095821,76.3600152 C165.095821,76.3600152 152.322615,95.6022447 151.985015,96.1737961 C151.150944,97.568035 150.515461,99.0661924 149.979272,100.603319 C148.37865,99.360628 146.428512,98.6158792 144.319503,98.6158792 C138.909955,98.6158792 134.505264,103.413447 134.505264,109.315148 C134.521151,115.225508 138.925842,120.027406 144.33539,120.027406 Z M154.094024,166.431316 C154.094024,168.830099 152.306728,170.7829 150.106369,170.7829 C147.902038,170.7829 146.114742,168.830099 146.114742,166.431316 C146.114742,165.582648 146.337161,164.768621 146.754197,164.075831 C146.770084,164.054181 147.024277,163.668817 147.036192,163.647168 L150.098425,159.018467 L153.184489,163.681807 C153.196404,163.703457 153.430739,164.045522 153.442654,164.067171 C153.871605,164.768621 154.094024,165.586978 154.094024,166.431316 Z M150.106369,134.861762 C147.759054,134.861762 145.852605,132.783393 145.852605,130.224402 C145.852605,127.669741 147.759054,125.591372 150.106369,125.591372 C152.449712,125.591372 154.356161,127.669741 154.356161,130.224402 C154.356161,132.779064 152.449712,134.861762 150.106369,134.861762 Z M172.944035,179.226272 C173.345183,179.927722 173.551715,180.7201 173.551715,181.529798 C173.551715,183.928581 171.76442,185.881382 169.560088,185.881382 C167.355757,185.881382 165.568462,183.928581 165.568462,181.529798 C165.568462,180.69412 165.794852,179.871433 166.219831,179.156993 C166.223803,179.148334 166.489912,178.74998 166.493883,178.74132 L169.556117,174.11695 L172.646152,178.780289 C172.650124,178.788949 172.884458,179.139674 172.88843,179.148334 C172.908289,179.174313 172.924176,179.200293 172.944035,179.226272 Z M169.973152,141.010269 C167.629809,141.010269 165.727332,138.931901 165.727332,136.372909 C165.727332,133.818248 167.629809,131.739879 169.973152,131.739879 C172.320467,131.739879 174.226916,133.818248 174.226916,136.372909 C174.226916,138.931901 172.320467,141.010269 169.973152,141.010269 Z M193.839506,164.13645 C194.236683,164.82491 194.443215,165.612958 194.443215,166.431316 C194.443215,168.830099 192.655919,170.7829 190.451588,170.7829 C188.247257,170.7829 186.459961,168.830099 186.459961,166.431316 C186.459961,165.586978 186.68238,164.772951 187.103387,164.067171 C187.119274,164.049852 187.373468,163.664487 187.385383,163.642838 L190.447616,159.018467 L193.53368,163.681807 C193.545595,163.703457 193.764042,164.028202 193.779929,164.049852 C193.80376,164.075831 193.819647,164.106141 193.839506,164.13645 Z M194.296259,130.423579 C194.296259,132.978241 192.389811,135.056609 190.042496,135.056609 C187.699153,135.056609 185.792704,132.978241 185.792704,130.423579 C185.792704,127.864588 187.699153,125.786219 190.042496,125.786219 C192.389811,125.786219 194.296259,127.864588 194.296259,130.423579 Z M194.788758,104.690778 C197.132101,104.690778 199.03855,106.769146 199.03855,109.323808 C199.03855,111.882799 197.132101,113.961168 194.788758,113.961168 C192.441444,113.961168 190.534995,111.882799 190.534995,109.323808 C190.534995,106.769146 192.441444,104.690778 194.788758,104.690778 Z M167.145253,55.4897302 C167.145253,54.0348722 168.225574,52.8528 169.560088,52.8528 C170.894602,52.8528 171.974923,54.0348722 171.974923,55.4897302 L171.974923,69.1550039 C171.974923,70.605532 170.894602,71.7876042 169.560088,71.7876042 C168.225574,71.7876042 167.145253,70.605532 167.145253,69.1550039 L167.145253,55.4897302 Z M156.655814,99.4991859 C156.906036,99.0835122 169.56406,80.0058201 169.56406,80.0058201 C169.56406,80.0058201 182.226056,99.0878421 182.472306,99.4991859 C184.108674,102.231375 184.97452,105.400887 184.97452,108.661328 C184.97452,117.927388 178.063644,125.461474 169.56406,125.461474 C161.064477,125.461474 154.1536,117.927388 154.1536,108.661328 C154.1536,105.405217 155.015474,102.231375 156.655814,99.4991859 Z M144.33539,104.690778 C146.682705,104.690778 148.589154,106.769146 148.589154,109.323808 C148.589154,111.882799 146.682705,113.961168 144.33539,113.961168 C141.992047,113.961168 140.085598,111.882799 140.085598,109.323808 C140.085598,106.769146 141.992047,104.690778 144.33539,104.690778 Z" id="Shape"></path>
                </g>
            </g>
        </g>
    </g>
</svg>