<?xml version="1.0" encoding="UTF-8"?>
<svg width="118px" height="117px" viewBox="0 0 118 117" version="1.1" xmlns="http://www.w3.org/2000/svg" xmlns:xlink="http://www.w3.org/1999/xlink">
    <!-- Generator: Sketch 48.2 (47327) - http://www.bohemiancoding.com/sketch -->
    <title>icon</title>
    <desc>Created with Sketch.</desc>
    <defs></defs>
    <g id="I-know-required-loan-amount" stroke="none" stroke-width="1" fill="none" fill-rule="evenodd" transform="translate(-252.000000, -77.000000)">
        <g id="tabs" transform="translate(231.000000, 59.000000)">
            <g id="gold">
                <g id="icon" transform="translate(21.000000, 18.000000)">
                    <rect id="Rectangle-2" fill="#FFF6F4" x="0" y="0" width="118" height="117" rx="58.5"></rect>
                    <g id="noun_990586_cc" transform="translate(29.000000, 23.000000)" fill="#FB5632" fill-rule="nonzero">
                        <g id="Group">
                            <path d="M59.7918182,18.4075294 C59.8818182,18.0687294 59.6781818,17.7226824 59.3381818,17.633 C58.9972727,17.5424118 58.65,17.7462353 58.5618182,18.0859412 C58.5190909,18.2453765 55.2145455,30.2401647 44.0190909,41.1768824 C43.6272727,40.8435176 43.1272727,40.6333529 42.5727273,40.6333529 C41.3409091,40.6333529 40.3372727,41.6334471 40.3372727,42.8609176 L40.3372727,44.4733882 C37.9836364,46.4101647 35.3290909,48.2554471 32.3863636,49.9530706 C32.0254545,49.2093412 31.2654545,48.6893647 30.38,48.6893647 C29.4709091,48.6893647 28.6918182,49.2338 28.3418182,50.0110471 C25.5345455,48.3985765 22.9954545,46.6511294 20.7218182,44.8176235 L20.7218182,42.8609176 C20.7218182,41.6334471 19.7190909,40.6333529 18.4872727,40.6333529 C17.8254545,40.6333529 17.2363636,40.9268588 16.8263636,41.3843294 C5.46636364,30.3959765 2.10727273,18.2462824 2.06454545,18.0859412 C1.97454545,17.7471412 1.62454545,17.5460353 1.28727273,17.6339059 C0.947272727,17.7226824 0.744545455,18.0696353 0.833636364,18.4075294 C0.877272727,18.5751176 4.37545455,31.2755882 16.2772727,42.6145176 C16.2681818,42.6969529 16.2527273,42.7766706 16.2527273,42.8600118 L16.2527273,46.7009529 C16.2527273,47.5497647 16.7372727,48.2808118 17.4409091,48.6567529 L15.1418182,51.8309647 C15.1572727,51.7141059 15.1781818,51.5990588 15.1781818,51.4776706 C15.1781818,49.9403882 13.9227273,48.6884588 12.3790909,48.6884588 C10.8354545,48.6884588 9.58,49.9403882 9.58,51.4776706 C9.58,53.0149529 10.8354545,54.2668824 12.3790909,54.2668824 C12.8109091,54.2668824 13.2154545,54.1608941 13.5818182,53.9851529 L13.5736364,53.9969294 C13.47,54.1291882 13.3709091,54.2650706 13.2709091,54.4154471 C12.9909091,54.8421176 12.78,55.3014 12.6145455,55.7742706 C12.1263636,54.9562588 11.2390909,54.4000471 10.2163636,54.4000471 C8.67272727,54.4000471 7.41727273,55.6519765 7.41727273,57.1892588 C7.41727273,58.7265412 8.67272727,59.9784706 10.2163636,59.9784706 C11.0863636,59.9784706 11.8545455,59.5726353 12.3681818,58.9502941 C12.4818182,59.5518 12.6827273,60.1225059 12.9572727,60.6497294 C12.77,60.6107765 12.5772727,60.5890353 12.3790909,60.5890353 C10.8354545,60.5890353 9.58,61.8409647 9.58,63.3782471 C9.58,64.9155294 10.8354545,66.1674588 12.3790909,66.1674588 C13.9227273,66.1674588 15.1781818,64.9155294 15.1781818,63.3782471 C15.1781818,63.2595765 15.1572727,63.1472471 15.1427273,63.0331059 C15.4727273,63.2432706 15.8236364,63.4244471 16.1927273,63.5702941 C15.2845455,64.0322941 14.6554545,64.9635412 14.6554545,66.0460706 C14.6554545,67.5833529 15.9109091,68.8352824 17.4545455,68.8352824 C18.6190909,68.8352824 19.6181818,68.1214471 20.0390909,67.1113882 C20.46,68.1214471 21.46,68.8352824 22.6236364,68.8352824 C23.3754545,68.8352824 24.0554545,68.5345294 24.5590909,68.0526 C24.7563636,68.5725765 25.0218182,69.0581294 25.3445455,69.5011059 C24.9636364,69.3072471 24.5390909,69.1876706 24.0827273,69.1876706 C22.5390909,69.1876706 21.2836364,70.4396 21.2836364,71.9768824 C21.2836364,73.5141647 22.5390909,74.7660941 24.0827273,74.7660941 C25.6263636,74.7660941 26.8818182,73.5141647 26.8818182,71.9768824 C26.8818182,71.5493059 26.7772727,71.1489059 26.6036364,70.7874588 C27.1027273,71.1688353 27.6609091,71.4750235 28.2627273,71.6924353 C27.7636364,72.1970118 27.4536364,72.8863882 27.4536364,73.6491412 C27.4536364,75.1864235 28.7090909,76.4383529 30.2527273,76.4383529 C31.7954545,76.4383529 33.0509091,75.1864235 33.0509091,73.6491412 C33.0509091,72.9199059 32.7627273,72.2613294 32.3018182,71.764 C32.7990909,71.6018471 33.2672727,71.3780941 33.7009091,71.1045176 C33.62,71.3636 33.5645455,71.6344588 33.5645455,71.9198118 C33.5645455,73.4570941 34.8209091,74.7090235 36.3636364,74.7090235 C37.9063636,74.7090235 39.1627273,73.4570941 39.1627273,71.9198118 C39.1627273,70.3825294 37.9063636,69.1306 36.3636364,69.1306 C36.0945455,69.1306 35.8390909,69.1813294 35.5918182,69.2519882 C35.8381818,68.8787647 36.0409091,68.4765529 36.2018182,68.0526 C36.7054545,68.5345294 37.3863636,68.8352824 38.1372727,68.8352824 C39.4718182,68.8352824 40.5881818,67.8976941 40.8663636,66.6493882 C41.1445455,67.8976941 42.2609091,68.8352824 43.5954545,68.8352824 C45.1381818,68.8352824 46.3945455,67.5833529 46.3945455,66.0460706 C46.3945455,64.9653529 45.7672727,64.0350118 44.8609091,63.5730118 C45.1981818,63.4398471 45.52,63.2767882 45.8254545,63.0892706 C45.8154545,63.1852941 45.7963636,63.2795059 45.7963636,63.3782471 C45.7963636,64.9155294 47.0527273,66.1674588 48.5954545,66.1674588 C50.1381818,66.1674588 51.3945455,64.9155294 51.3945455,63.3782471 C51.3945455,61.8409647 50.1381818,60.5890353 48.5954545,60.5890353 C48.4290909,60.5890353 48.2690909,60.6098706 48.11,60.6379529 C48.3681818,60.1397176 48.5645455,59.6043412 48.68,59.0390706 C49.1918182,59.6115882 49.93,59.9784706 50.7581818,59.9784706 C52.3009091,59.9784706 53.5572727,58.7265412 53.5572727,57.1892588 C53.5572727,55.6519765 52.3009091,54.4000471 50.7581818,54.4000471 C49.7736364,54.4000471 48.91,54.9118706 48.4109091,55.6809647 C48.2490909,55.2416118 48.0509091,54.8131294 47.7909091,54.4163529 C47.7054545,54.285 47.6154545,54.1654235 47.5290909,54.0549059 C47.8581818,54.1898824 48.2181818,54.2668824 48.5954545,54.2668824 C50.1381818,54.2668824 51.3945455,53.0149529 51.3945455,51.4776706 C51.3945455,49.9403882 50.1381818,48.6884588 48.5954545,48.6884588 C47.0527273,48.6884588 45.7963636,49.9403882 45.7963636,51.4776706 C45.7963636,51.5510471 45.8127273,51.6189882 45.8172727,51.6905529 L43.62,48.6558471 C44.3218182,48.2799059 44.8072727,47.5479529 44.8072727,46.7000471 L44.8072727,42.8591059 C44.8072727,42.6507529 44.7690909,42.4532706 44.7145455,42.2612235 C56.3209091,31.0137882 59.7481818,18.5724 59.7918182,18.4075294 Z M12.3772727,52.9995529 C11.5354545,52.9995529 10.8509091,52.3174235 10.8509091,51.4785765 C10.8509091,50.6397294 11.5354545,49.9576 12.3772727,49.9576 C13.2190909,49.9576 13.9036364,50.6397294 13.9036364,51.4785765 C13.9036364,52.3174235 13.2190909,52.9995529 12.3772727,52.9995529 Z M10.2145455,58.7120471 C9.37272727,58.7120471 8.68818182,58.0299176 8.68818182,57.1910706 C8.68818182,56.3522235 9.37272727,55.6700941 10.2145455,55.6700941 C11.0563636,55.6700941 11.7409091,56.3522235 11.7409091,57.1910706 C11.7409091,58.0299176 11.0563636,58.7120471 10.2145455,58.7120471 Z M41.61,42.8600118 C41.61,42.3309765 42.0418182,41.9006824 42.5727273,41.9006824 C43.1027273,41.9006824 43.5345455,42.3309765 43.5345455,42.8600118 L43.5345455,46.7009529 C43.5345455,47.2299882 43.1027273,47.6602824 42.5727273,47.6602824 C42.0418182,47.6602824 41.61,47.2299882 41.61,46.7009529 L41.61,42.8600118 Z M29.4172727,50.9160235 C29.4172727,50.3878941 29.8490909,49.9576 30.38,49.9576 C30.91,49.9576 31.3418182,50.3878941 31.3418182,50.9160235 L31.3418182,54.7578706 C31.3418182,55.286 30.91,55.7162941 30.38,55.7162941 C29.8490909,55.7162941 29.4172727,55.286 29.4172727,54.7578706 L29.4172727,50.9160235 Z M17.5245455,42.8600118 C17.5245455,42.3309765 17.9563636,41.9006824 18.4863636,41.9006824 C19.0163636,41.9006824 19.4481818,42.3309765 19.4481818,42.8600118 L19.4481818,46.7009529 C19.4481818,47.2299882 19.0163636,47.6602824 18.4863636,47.6602824 C17.9563636,47.6602824 17.5245455,47.2299882 17.5245455,46.7009529 L17.5245455,42.8600118 Z M14.3372727,55.1057294 C14.4118182,54.9934 18.4872727,49.3787412 18.4872727,49.3787412 C18.4872727,49.3787412 22.5590909,54.9870588 22.6390909,55.1102588 C23.1663636,55.9155882 23.4454545,56.8468353 23.4454545,57.8052588 C23.4454545,60.5301529 21.2209091,62.7459412 18.4872727,62.7459412 C15.7536364,62.7459412 13.5290909,60.5301529 13.5290909,57.8052588 C13.5281818,56.8459294 13.8072727,55.9146824 14.3372727,55.1057294 Z M12.3772727,64.9010353 C11.5354545,64.9010353 10.8509091,64.2189059 10.8509091,63.3800588 C10.8509091,62.5412118 11.5354545,61.8590824 12.3772727,61.8590824 C13.2190909,61.8590824 13.9036364,62.5412118 13.9036364,63.3800588 C13.9036364,64.2189059 13.2190909,64.9010353 12.3772727,64.9010353 Z M17.4527273,67.5688588 C16.6109091,67.5688588 15.9263636,66.8867294 15.9263636,66.0478824 C15.9263636,65.2090353 16.6109091,64.5269059 17.4527273,64.5269059 C18.2945455,64.5269059 18.9790909,65.2090353 18.9790909,66.0478824 C18.9790909,66.8867294 18.2945455,67.5688588 17.4527273,67.5688588 Z M20.0372727,64.9825647 C19.8709091,64.5830706 19.6072727,64.2379294 19.2854545,63.9571059 C22.3445455,63.5639529 24.7181818,60.9568235 24.7181818,57.8043529 C24.7181818,56.5995294 24.3672727,55.4273176 23.7045455,54.4172588 C23.6045455,54.2632588 19.5336364,48.6576588 19.5336364,48.6576588 C20.2363636,48.2817176 20.7218182,47.5506706 20.7218182,46.7018588 L20.7218182,46.4282824 C22.9563636,48.1712 25.4263636,49.8325882 28.1445455,51.3653412 L28.1445455,54.7578706 C28.1445455,55.6075882 28.6290909,56.3368235 29.3327273,56.7127647 C29.3327273,56.7127647 25.2609091,62.3219882 25.1618182,62.4714588 C24.8572727,62.9361765 24.6272727,63.4371294 24.4581818,63.9580118 C23.9654545,63.5277176 23.3281818,63.2586706 22.6227273,63.2586706 C21.4581818,63.2586706 20.4581818,63.9725059 20.0372727,64.9825647 Z M22.6218182,67.5688588 C21.78,67.5688588 21.0954545,66.8867294 21.0954545,66.0478824 C21.0954545,65.2090353 21.78,64.5269059 22.6218182,64.5269059 C23.4636364,64.5269059 24.1481818,65.2090353 24.1481818,66.0478824 C24.1481818,66.8867294 23.4636364,67.5688588 22.6218182,67.5688588 Z M24.0818182,73.4996706 C23.24,73.4996706 22.5554545,72.8175412 22.5554545,71.9786941 C22.5554545,71.1398471 23.24,70.4577176 24.0818182,70.4577176 C24.9236364,70.4577176 25.6081818,71.1398471 25.6081818,71.9786941 C25.6081818,72.8175412 24.9236364,73.4996706 24.0818182,73.4996706 Z M25.4209091,65.8612706 C25.4209091,64.9019412 25.6990909,63.9697882 26.2290909,63.1617412 C26.3045455,63.0485059 30.3790909,57.4347529 30.3790909,57.4347529 C30.3790909,57.4347529 34.4509091,63.0439765 34.5318182,63.1662706 C35.0581818,63.9716 35.3372727,64.9037529 35.3372727,65.8621765 C35.3372727,68.5870706 33.1136364,70.8028588 30.3790909,70.8028588 C27.6445455,70.8028588 25.4209091,68.5861647 25.4209091,65.8612706 Z M30.2518182,75.1710235 C29.41,75.1710235 28.7254545,74.4888941 28.7254545,73.6500471 C28.7254545,72.8112 29.41,72.1290706 30.2518182,72.1290706 C31.0927273,72.1290706 31.7772727,72.8112 31.7772727,73.6500471 C31.7772727,74.4888941 31.0927273,75.1710235 30.2518182,75.1710235 Z M37.8890909,71.9225294 C37.8890909,72.7613765 37.2045455,73.4435059 36.3627273,73.4435059 C35.5209091,73.4435059 34.8363636,72.7613765 34.8363636,71.9225294 C34.8363636,71.0836824 35.5209091,70.4015529 36.3627273,70.4015529 C37.2045455,70.4015529 37.8890909,71.0836824 37.8890909,71.9225294 Z M38.1363636,67.5688588 C37.2945455,67.5688588 36.61,66.8867294 36.61,66.0478824 C36.61,65.2090353 37.2945455,64.5269059 38.1363636,64.5269059 C38.9781818,64.5269059 39.6627273,65.2090353 39.6627273,66.0478824 C39.6627273,66.8867294 38.9781818,67.5688588 38.1363636,67.5688588 Z M40.8654545,65.4445647 C40.5872727,64.1962588 39.4709091,63.2586706 38.1363636,63.2586706 C37.4318182,63.2586706 36.7936364,63.5286235 36.3009091,63.9589176 C36.1309091,63.4389412 35.9018182,62.9370824 35.5972727,62.4723647 C35.4963636,62.3174588 31.4263636,56.7127647 31.4263636,56.7127647 C32.1290909,56.3377294 32.6145455,55.6066824 32.6145455,54.7578706 L32.6145455,51.2892471 C35.4545455,49.6794941 38.0263636,47.9311412 40.3363636,46.0976353 L40.3363636,46.7018588 C40.3363636,47.5515765 40.8209091,48.2817176 41.5245455,48.6576588 C41.5245455,48.6576588 37.4527273,54.2659765 37.3536364,54.4163529 C36.6909091,55.4282235 36.3409091,56.6004353 36.3409091,57.8043529 C36.3409091,60.9550118 38.7090909,63.5585176 41.7636364,63.9552941 C41.3209091,64.3402941 40.9972727,64.8539294 40.8654545,65.4445647 Z M43.5945455,67.5688588 C42.7527273,67.5688588 42.0681818,66.8867294 42.0681818,66.0478824 C42.0681818,65.2090353 42.7527273,64.5269059 43.5945455,64.5269059 C44.4363636,64.5269059 45.1209091,65.2090353 45.1209091,66.0478824 C45.1209091,66.8867294 44.4363636,67.5688588 43.5945455,67.5688588 Z M50.1209091,63.3800588 C50.1209091,64.2189059 49.4363636,64.9010353 48.5945455,64.9010353 C47.7527273,64.9010353 47.0681818,64.2189059 47.0681818,63.3800588 C47.0681818,62.5412118 47.7527273,61.8590824 48.5945455,61.8590824 C49.4363636,61.8590824 50.1209091,62.5412118 50.1209091,63.3800588 Z M50.7572727,55.6700941 C51.5990909,55.6700941 52.2836364,56.3522235 52.2836364,57.1910706 C52.2836364,58.0299176 51.5990909,58.7120471 50.7572727,58.7120471 C49.9154545,58.7120471 49.2309091,58.0299176 49.2309091,57.1910706 C49.2309091,56.3522235 49.9154545,55.6700941 50.7572727,55.6700941 Z M42.5718182,62.7459412 C39.8372727,62.7459412 37.6136364,60.5301529 37.6136364,57.8052588 C37.6136364,56.8477412 37.8918182,55.9155882 38.4227273,55.1057294 C38.4963636,54.9934 42.5718182,49.3796471 42.5718182,49.3796471 C42.5718182,49.3796471 46.6436364,54.9870588 46.7236364,55.1111647 C47.2509091,55.9164941 47.53,56.8477412 47.53,57.8061647 C47.53,60.5292471 45.3063636,62.7459412 42.5718182,62.7459412 Z M48.5945455,49.9576 C49.4363636,49.9576 50.1209091,50.6397294 50.1209091,51.4785765 C50.1209091,52.3174235 49.4363636,52.9995529 48.5945455,52.9995529 C47.7527273,52.9995529 47.0681818,52.3174235 47.0681818,51.4785765 C47.0681818,50.6397294 47.7527273,49.9576 48.5945455,49.9576 Z" id="Shape"></path>
                            <path d="M33.0972727,64.6256471 C33.0972727,64.0984235 32.9445455,63.5875059 32.6618182,63.1572118 C32.6172727,63.0865529 30.8963636,60.7158588 30.8963636,60.7158588 C30.7763636,60.5500824 30.5845455,60.4522471 30.38,60.4522471 C30.1754545,60.4522471 29.9836364,60.5500824 29.8645455,60.7158588 C29.8645455,60.7158588 28.1454545,63.0829294 28.1036364,63.1481529 C27.8136364,63.5893176 27.6609091,64.1011412 27.6609091,64.6265529 C27.6609091,66.1203529 28.8809091,67.3360471 30.38,67.3360471 C31.8781818,67.3351412 33.0972727,66.1194471 33.0972727,64.6256471 Z M28.9336364,64.6256471 C28.9336364,64.3466353 29.0145455,64.0757765 29.1709091,63.8366235 C29.1918182,63.8049176 29.2145455,63.7750235 29.2527273,63.7252 L30.38,62.1698 L31.5136364,63.7342588 C31.54,63.7677765 31.5663636,63.8022 31.5918182,63.8411529 C31.7445455,64.0748706 31.8254545,64.3466353 31.8254545,64.6256471 C31.8254545,65.4201059 31.1772727,66.0669059 30.3809091,66.0669059 C29.5818182,66.0669059 28.9336364,65.4201059 28.9336364,64.6256471 Z" id="Shape"></path>
                            <path d="M18.4863636,59.2791294 C19.9854545,59.2791294 21.2045455,58.0634353 21.2045455,56.5705412 C21.2045455,56.0442235 21.0509091,55.5324 20.7672727,55.1002941 C20.7227273,55.0296353 19.0018182,52.6598471 19.0018182,52.6598471 C18.7627273,52.3310118 18.2090909,52.3310118 17.97,52.6598471 C17.97,52.6598471 16.2509091,55.0269176 16.2081818,55.0930471 C15.9190909,55.5360235 15.7663636,56.0469412 15.7663636,56.5714471 C15.7672727,58.0634353 16.9872727,59.2791294 18.4863636,59.2791294 Z M17.2772727,55.7806118 C17.2981818,55.7498118 17.3209091,55.7199176 17.36,55.6691882 L18.4863636,54.1137882 L19.6236364,55.6818706 C19.65,55.7144824 19.6754545,55.7489059 19.6972727,55.7824235 C19.8509091,56.0179529 19.9318182,56.2897176 19.9318182,56.5687294 C19.9318182,57.3631882 19.2836364,58.0090824 18.4863636,58.0090824 C17.6890909,58.0090824 17.04,57.3631882 17.04,56.5687294 C17.0409091,56.2915294 17.1218182,56.0197647 17.2772727,55.7806118 Z" id="Shape"></path>
                            <path d="M43.0872727,52.6589412 C42.9672727,52.4940706 42.7754545,52.3962353 42.5718182,52.3962353 C42.3681818,52.3962353 42.1754545,52.4940706 42.0563636,52.6589412 C42.0563636,52.6589412 40.3418182,55.0214824 40.2945455,55.0921412 C40.0072727,55.5333059 39.8545455,56.0451294 39.8545455,56.5705412 C39.8545455,58.0634353 41.0745455,59.2791294 42.5727273,59.2791294 C44.0709091,59.2791294 45.2909091,58.0634353 45.2909091,56.5705412 C45.2909091,56.0451294 45.1372727,55.5333059 44.8518182,55.0975765 C44.8063636,55.0269176 43.0872727,52.6589412 43.0872727,52.6589412 Z M42.5718182,58.0099882 C41.7745455,58.0099882 41.1263636,57.3640941 41.1263636,56.5696353 C41.1263636,56.2897176 41.2072727,56.0179529 41.3554545,55.7914824 L42.5718182,54.1128824 L43.7090909,55.6818706 C43.7354545,55.7144824 43.7609091,55.7489059 43.7818182,55.7824235 C43.9363636,56.0179529 44.0172727,56.2906235 44.0172727,56.5687294 C44.0172727,57.3640941 43.3690909,58.0099882 42.5718182,58.0099882 Z" id="Shape"></path>
                            <path d="M22.8918182,24.3310941 C24.0972727,24.3310941 25.0781818,23.3527412 25.0781818,22.1515412 C25.0781818,21.7275882 24.9545455,21.3172235 24.73,20.9757059 C24.6927273,20.9168235 23.4081818,19.1467294 23.4081818,19.1467294 C23.2890909,18.9818588 23.0972727,18.8831176 22.8927273,18.8831176 C22.6881818,18.8831176 22.4963636,18.9809529 22.3772727,19.1467294 L21.0672727,20.9548706 C21.0581818,20.9675529 21.05,20.9811412 21.0427273,20.9947294 C20.8227273,21.3416824 20.7072727,21.7411765 20.7072727,22.1506353 C20.7045455,23.3536471 21.6854545,24.3310941 22.8918182,24.3310941 Z M22.1263636,21.6578353 C22.1518182,21.6188824 22.1681818,21.6206941 22.1845455,21.5763059 L22.8918182,20.6015765 L23.5927273,21.5690588 C23.5972727,21.5754 23.6518182,21.6505882 23.6563636,21.6578353 C23.7527273,21.8054941 23.8045455,21.9758 23.8045455,22.1515412 C23.8045455,22.6543059 23.3945455,23.0628588 22.8918182,23.0628588 C22.3881818,23.0628588 21.9781818,22.6543059 21.9781818,22.1515412 C21.9781818,21.9758 22.0290909,21.8054941 22.1263636,21.6578353 Z" id="Shape"></path>
                            <path d="M17.1172727,25.4498588 C17.6363636,25.4498588 18.1090909,25.2659647 18.49,24.9706471 C18.5654545,25.1436706 18.6636364,25.3022 18.7581818,25.4634471 C18.58,25.4181529 18.3963636,25.3864471 18.2036364,25.3864471 C16.9654545,25.3864471 15.9572727,26.3910706 15.9572727,27.6257882 C15.9572727,28.5688118 16.5481818,29.3741412 17.3781818,29.7029765 L17.3781818,32.4505176 L16.3809091,33.8274588 C16.3454545,33.8736588 16.3118182,33.9207647 16.28,33.9678706 C16.0463636,34.3220706 15.9227273,34.7342471 15.9227273,35.1582 C15.9227273,36.3594 16.9036364,37.3368471 18.1090909,37.3368471 C19.3145455,37.3368471 20.2954545,36.3594 20.2954545,35.1582 C20.2954545,34.7333412 20.1718182,34.3211647 19.9472727,33.9814588 C19.91,33.9225765 19.8709091,33.8682235 19.8427273,33.8328941 L18.6518182,32.1896235 L18.6518182,29.8189294 C19.6763636,29.6114824 20.45,28.7065059 20.45,27.6257882 C20.45,27.4572941 20.4281818,27.2951412 20.3927273,27.1366118 C20.6027273,27.2652471 20.8163636,27.3893529 21.0463636,27.4853765 C20.7409091,27.8676588 20.5509091,28.3450588 20.5509091,28.8695647 C20.5509091,29.8823412 21.2336364,30.7302471 22.1609091,31.0056353 L22.1609091,35.6084235 L21.16,36.9898941 C21.1263636,37.0342824 21.0927273,37.0804824 21.0618182,37.1275882 C20.8290909,37.4826941 20.7054545,37.8939647 20.7054545,38.3170118 C20.7054545,39.5182118 21.6863636,40.4956588 22.8918182,40.4956588 C24.0972727,40.4956588 25.0781818,39.5182118 25.0781818,38.3170118 C25.0781818,37.8939647 24.9545455,37.4826941 24.7263636,37.1339294 C24.6909091,37.0777647 24.6518182,37.0243176 24.6254545,36.9908 L23.4345455,35.3475294 L23.4345455,31.0065412 C24.3618182,30.7302471 25.0436364,29.8823412 25.0436364,28.8704706 C25.0436364,28.3668 24.87,27.9075176 24.5872727,27.5324824 C24.7763636,27.4609176 24.9536364,27.3712353 25.1309091,27.2779294 C25.1163636,27.3784824 25.1,27.4790353 25.1,27.5832118 C25.1,28.5615647 25.7372727,29.3859176 26.6154545,29.6902941 L26.6154545,32.4496118 L25.6081818,33.8401412 C25.5754545,33.8836235 25.5427273,33.9280118 25.5163636,33.9687765 C25.2836364,34.3229765 25.16,34.7342471 25.16,35.1582 C25.16,36.3594 26.1409091,37.3368471 27.3463636,37.3368471 C28.5518182,37.3368471 29.5327273,36.3594 29.5327273,35.1582 C29.5327273,34.7333412 29.4090909,34.3220706 29.1845455,33.9814588 C29.1472727,33.9225765 29.1081818,33.8682235 29.08,33.8328941 L27.8890909,32.1896235 L27.8890909,29.7491765 C28.8645455,29.5054941 29.5927273,28.6304118 29.5927273,27.5832118 C29.5927273,26.3494 28.5854545,25.3447765 27.3463636,25.3447765 C27.2536364,25.3447765 27.1654545,25.3610824 27.0754545,25.3719529 C27.15,25.2387882 27.2327273,25.1110588 27.2945455,24.9706471 C27.6754545,25.2668706 28.1481818,25.4498588 28.6672727,25.4498588 C29.9054545,25.4498588 30.9136364,24.4452353 30.9136364,23.2105176 C30.9136364,21.9767059 29.9063636,20.9720824 28.6672727,20.9720824 C28.1845455,20.9720824 27.7390909,21.1278941 27.3727273,21.3878824 C27.2509091,21.0662941 27.1054545,20.7528588 26.9136364,20.4611647 C26.8354545,20.3424941 23.9127273,16.3167529 23.9127273,16.3167529 C24.3990909,15.9897294 24.72,15.4353294 24.72,14.8075529 L24.72,11.9485882 C24.72,11.1686235 24.2227273,10.5073294 23.53,10.2491529 L23.53,5.82754118 C23.53,5.47696471 23.2454545,5.19342353 22.8936364,5.19342353 C22.8690909,5.19342353 22.7809091,5.19342353 22.7572727,5.19342353 C21.7709091,5.19342353 20.9672727,4.39352941 20.9672727,3.40974118 C20.9672727,2.42595294 21.77,1.62605882 22.7572727,1.62605882 C23.1090909,1.62605882 23.3936364,1.34251765 23.3936364,0.991941176 C23.3936364,0.641364706 23.1090909,0.357823529 22.7572727,0.357823529 C21.0690909,0.357823529 19.6945455,1.72751765 19.6945455,3.41064706 C19.6945455,4.92256471 20.8072727,6.17268235 22.2572727,6.41183529 L22.2572727,10.2491529 C21.5645455,10.5082353 21.0672727,11.1695294 21.0672727,11.9485882 L21.0672727,14.8075529 C21.0672727,15.4353294 21.3881818,15.9897294 21.8745455,16.3167529 C21.8745455,16.3167529 18.9490909,20.3461176 18.8736364,20.4611647 C18.6827273,20.7528588 18.5363636,21.0662941 18.4145455,21.3878824 C18.0472727,21.1288 17.6027273,20.9729882 17.12,20.9729882 C15.8818182,20.9729882 14.8736364,21.9767059 14.8736364,23.2114235 C14.8709091,24.4452353 15.8790909,25.4498588 17.1172727,25.4498588 Z M18.8754545,34.6626824 C18.9718182,34.8094353 19.0227273,34.9806471 19.0227273,35.1572941 C19.0227273,35.6591529 18.6127273,36.0677059 18.11,36.0677059 C17.6063636,36.0677059 17.1963636,35.6591529 17.1963636,35.1572941 C17.1963636,34.9833647 17.2463636,34.8148706 17.34,34.6690235 C17.3663636,34.6336941 17.3918182,34.5992706 17.4027273,34.5820588 L18.1090909,33.6064235 L18.81,34.5739059 C18.8154545,34.5811529 18.8709091,34.6563412 18.8754545,34.6626824 Z M18.2036364,28.5941765 C17.6672727,28.5941765 17.23,28.1593529 17.23,27.6248824 C17.23,27.0895059 17.6663636,26.6546824 18.2036364,26.6546824 C18.7409091,26.6546824 19.1763636,27.0895059 19.1763636,27.6248824 C19.1772727,28.1593529 18.7409091,28.5941765 18.2036364,28.5941765 Z M23.6563636,37.8205882 C23.7536364,37.9691529 23.8045455,38.1403647 23.8045455,38.3161059 C23.8045455,38.8179647 23.3945455,39.2265176 22.8918182,39.2265176 C22.3881818,39.2265176 21.9781818,38.8179647 21.9781818,38.3161059 C21.9781818,38.1412706 22.03,37.9691529 22.1054545,37.8504824 C22.1136364,37.8396118 22.1772727,37.7517412 22.1845455,37.7399647 L22.8918182,36.7643294 L23.5927273,37.7318118 C23.5972727,37.7399647 23.6518182,37.8142471 23.6563636,37.8205882 Z M22.7972727,29.8397647 C22.2609091,29.8397647 21.8236364,29.4049412 21.8236364,28.8695647 C21.8236364,28.3350941 22.26,27.9002706 22.7972727,27.9002706 C23.3336364,27.9002706 23.77,28.3350941 23.77,28.8695647 C23.7690909,29.4049412 23.3336364,29.8397647 22.7972727,29.8397647 Z M28.1109091,34.6635882 C28.2072727,34.8103412 28.2581818,34.9815529 28.2581818,35.1582 C28.2581818,35.6600588 27.8481818,36.0686118 27.3454545,36.0686118 C26.8427273,36.0686118 26.4327273,35.6600588 26.4327273,35.1582 C26.4327273,34.9815529 26.4836364,34.8112471 26.5590909,34.6943882 C26.5690909,34.6817059 26.6309091,34.5965529 26.6390909,34.5820588 L27.3454545,33.6064235 L28.0472727,34.5739059 C28.0509091,34.5811529 28.1063636,34.6572471 28.1109091,34.6635882 Z M28.3181818,27.5823059 C28.3181818,28.1176824 27.8818182,28.5525059 27.3454545,28.5525059 C26.8090909,28.5525059 26.3718182,28.1176824 26.3718182,27.5823059 C26.3718182,27.0478353 26.8081818,26.6130118 27.3454545,26.6130118 C27.8827273,26.6130118 28.3181818,27.0478353 28.3181818,27.5823059 Z M28.6654545,22.2412235 C29.2018182,22.2412235 29.6381818,22.6760471 29.6381818,23.2105176 C29.6381818,23.7458941 29.2018182,24.1807176 28.6654545,24.1807176 C28.1290909,24.1807176 27.6918182,23.7458941 27.6918182,23.2105176 C27.6918182,22.6760471 28.1290909,22.2412235 28.6654545,22.2412235 Z M22.3381818,14.8075529 L22.3381818,11.9485882 C22.3381818,11.6442118 22.5863636,11.3969059 22.8909091,11.3969059 C23.1954545,11.3969059 23.4436364,11.6442118 23.4436364,11.9485882 L23.4436364,14.8075529 C23.4436364,15.1110235 23.1954545,15.3583294 22.8909091,15.3583294 C22.5863636,15.3583294 22.3381818,15.1110235 22.3381818,14.8075529 Z M19.9390909,21.1514471 C19.9936364,21.0699176 22.8918182,17.0758824 22.8918182,17.0758824 C22.8918182,17.0758824 25.7890909,21.0662941 25.8463636,21.1541647 C26.2218182,21.7266824 26.4190909,22.3897882 26.4190909,23.0710118 C26.4190909,25.0096 24.8363636,26.5858353 22.8918182,26.5858353 C20.9472727,26.5858353 19.3645455,25.0096 19.3645455,23.0710118 C19.3636364,22.3897882 19.5618182,21.7266824 19.9390909,21.1514471 Z M17.1172727,22.2412235 C17.6536364,22.2412235 18.0909091,22.6760471 18.0909091,23.2105176 C18.0909091,23.7458941 17.6545455,24.1807176 17.1172727,24.1807176 C16.58,24.1807176 16.1445455,23.7458941 16.1445455,23.2105176 C16.1445455,22.6760471 16.5809091,22.2412235 17.1172727,22.2412235 Z" id="Shape"></path>
                            <path d="M39.4872727,24.3310941 C40.6927273,24.3310941 41.6736364,23.3527412 41.6736364,22.1515412 C41.6736364,21.7303059 41.55,21.3190353 41.3127273,20.9548706 L40.0036364,19.1458235 C39.7636364,18.8160824 39.2118182,18.8160824 38.9718182,19.1458235 C38.9718182,19.1458235 37.6863636,20.9150118 37.6572727,20.9630235 C37.4245455,21.3181294 37.3009091,21.7294 37.3009091,22.1506353 C37.3,23.3536471 38.2809091,24.3310941 39.4872727,24.3310941 Z M38.7218182,21.6569294 C38.7245455,21.6533059 38.7827273,21.5735882 38.7854545,21.5690588 L39.4863636,20.6006706 L40.2518182,21.6569294 C40.3481818,21.8054941 40.4,21.9767059 40.4,22.1515412 C40.4,22.6543059 39.9909091,23.0628588 39.4863636,23.0628588 C38.9818182,23.0628588 38.5727273,22.6543059 38.5727273,22.1515412 C38.5736364,21.9767059 38.6245455,21.8054941 38.7218182,21.6569294 Z" id="Shape"></path>
                            <path d="M33.7127273,25.4498588 C34.2318182,25.4498588 34.7045455,25.2659647 35.0854545,24.9706471 C35.1463636,25.1110588 35.23,25.2387882 35.3045455,25.3719529 C35.2145455,25.3610824 35.1263636,25.3447765 35.0336364,25.3447765 C33.7954545,25.3447765 32.7863636,26.3484941 32.7863636,27.5832118 C32.7863636,28.6304118 33.5154545,29.5054941 34.4909091,29.7491765 L34.4909091,32.1896235 L33.3136364,33.8138706 C33.2709091,33.8682235 33.2318182,33.9225765 33.2045455,33.9669647 C32.97,34.3202588 32.8463636,34.7324353 32.8463636,35.1582 C32.8463636,36.3594 33.8272727,37.3368471 35.0327273,37.3368471 C36.2372727,37.3368471 37.2181818,36.3594 37.2181818,35.1582 C37.2181818,34.7342471 37.0945455,34.3229765 36.8618182,33.9687765 C36.83,33.9198588 36.7954545,33.8736588 36.7690909,33.8401412 L35.7627273,32.4487059 L35.7627273,29.6893882 C36.6418182,29.3850118 37.2781818,28.5606588 37.2781818,27.5823059 C37.2781818,27.4781294 37.2609091,27.3775765 37.2472727,27.2770235 C37.4236364,27.3712353 37.6018182,27.4600118 37.7909091,27.5315765 C37.5081818,27.9066118 37.3345455,28.3658941 37.3345455,28.8695647 C37.3345455,29.8823412 38.0163636,30.7302471 38.9436364,31.0056353 L38.9436364,35.3475294 L37.7672727,36.9717765 C37.7263636,37.0243176 37.6872727,37.0777647 37.6545455,37.1284941 C37.4218182,37.4845059 37.2990909,37.8948706 37.2990909,38.3161059 C37.2990909,39.5173059 38.28,40.4947529 39.4854545,40.4947529 C40.6909091,40.4947529 41.6718182,39.5173059 41.6718182,38.3161059 C41.6718182,37.8948706 41.5490909,37.4845059 41.3163636,37.1284941 C41.3109091,37.1203412 41.3054545,37.1121882 41.2990909,37.1040353 C41.2745455,37.0659882 41.2472727,37.0306588 41.2236364,36.9980471 L40.2154545,35.6066118 L40.2154545,31.0047294 C41.1436364,30.7293412 41.8254545,29.8814353 41.8254545,28.8686588 C41.8254545,28.3432471 41.6354545,27.8667529 41.33,27.4844706 C41.56,27.3884471 41.7727273,27.2643412 41.9836364,27.1348 C41.9481818,27.2924235 41.9263636,27.4554824 41.9263636,27.6239765 C41.9263636,28.7046941 42.7,29.6087647 43.7245455,29.8171176 L43.7245455,32.1878118 L42.5481818,33.8120588 C42.5054545,33.8664118 42.4654545,33.9207647 42.4372727,33.9669647 C42.2036364,34.3211647 42.08,34.7324353 42.08,35.1563882 C42.08,36.3575882 43.0609091,37.3350353 44.2663636,37.3350353 C45.4718182,37.3350353 46.4527273,36.3575882 46.4527273,35.1563882 C46.4527273,34.7324353 46.3290909,34.3211647 46.0954545,33.9669647 C46.0909091,33.9597176 46.0854545,33.9515647 46.08,33.9452235 C46.0536364,33.9053647 46.0245455,33.8673176 46.0036364,33.8392353 L44.9963636,32.4478 L44.9963636,29.7011647 C45.8272727,29.3723294 46.4181818,28.5679059 46.4181818,27.6239765 C46.4181818,26.3892588 45.41,25.3846353 44.1709091,25.3846353 C43.9781818,25.3846353 43.7945455,25.4163412 43.6163636,25.4616353 C43.7109091,25.3003882 43.81,25.1409529 43.8854545,24.9688353 C44.2663636,25.2650588 44.7381818,25.4480471 45.2581818,25.4480471 C46.4963636,25.4480471 47.5045455,24.4434235 47.5045455,23.2087059 C47.5045455,21.9748941 46.4972727,20.9702706 45.2581818,20.9702706 C44.7754545,20.9702706 44.33,21.1260824 43.9627273,21.3860706 C43.84,21.0635765 43.6927273,20.7474235 43.5,20.4530118 C43.4290909,20.3452118 40.5027273,16.3140353 40.5027273,16.3140353 C40.9890909,15.9870118 41.31,15.4317059 41.31,14.8048353 L41.31,11.9458706 C41.31,11.1659059 40.8127273,10.5046118 40.12,10.2464353 L40.12,6.40911765 C41.5709091,6.16905882 42.6827273,4.91894118 42.6827273,3.40792941 C42.6827273,1.7248 41.3081818,0.355105882 39.62,0.355105882 C39.2681818,0.355105882 38.9836364,0.638647059 38.9836364,0.989223529 C38.9836364,1.3398 39.2681818,1.62334118 39.62,1.62334118 C40.6072727,1.62334118 41.41,2.42323529 41.41,3.40702353 C41.41,4.38990588 40.6072727,5.19070588 39.62,5.19070588 C39.5963636,5.19070588 39.5072727,5.19070588 39.4836364,5.19070588 C39.1318182,5.19070588 38.8472727,5.47424706 38.8472727,5.82482353 L38.8472727,10.2464353 C38.1545455,10.5055176 37.6572727,11.1668118 37.6572727,11.9458706 L37.6572727,14.8048353 C37.6572727,15.4326118 37.9781818,15.9870118 38.4645455,16.3140353 C38.4645455,16.3140353 35.5409091,20.3397765 35.4636364,20.4593529 C35.2727273,20.7510471 35.1272727,21.0644824 35.0045455,21.3860706 C34.6381818,21.1260824 34.1918182,20.9702706 33.7090909,20.9702706 C32.4709091,20.9702706 31.4627273,21.9739882 31.4627273,23.2087059 C31.4663636,24.4452353 32.4745455,25.4498588 33.7127273,25.4498588 Z M35.9463636,35.1582 C35.9463636,35.6600588 35.5372727,36.0686118 35.0336364,36.0686118 C34.5290909,36.0686118 34.12,35.6600588 34.12,35.1582 C34.12,34.9806471 34.1709091,34.8103412 34.2663636,34.6654 C34.27,34.6608706 34.3281818,34.5802471 34.3309091,34.5757176 L35.0318182,33.6073294 L35.7381818,34.5829647 C35.7409091,34.5874941 35.7945455,34.6590588 35.7972727,34.6635882 C35.8954545,34.8103412 35.9463636,34.9815529 35.9463636,35.1582 Z M35.0336364,28.5534118 C34.4963636,28.5534118 34.06,28.1185882 34.06,27.5832118 C34.06,27.0487412 34.4963636,26.6139176 35.0336364,26.6139176 C35.57,26.6139176 36.0063636,27.0487412 36.0063636,27.5832118 C36.0063636,28.1176824 35.57,28.5534118 35.0336364,28.5534118 Z M40.2609091,37.8350824 C40.3527273,37.9818353 40.4,38.1476118 40.4,38.3170118 C40.4,38.8188706 39.9909091,39.2274235 39.4863636,39.2274235 C38.9818182,39.2274235 38.5727273,38.8188706 38.5727273,38.3170118 C38.5727273,38.1421765 38.6245455,37.9700588 38.7218182,37.8205882 C38.7227273,37.8187765 38.7836364,37.7354353 38.7845455,37.7336235 L39.4854545,36.7661412 L40.1927273,37.7417765 C40.1936364,37.7435882 40.2472727,37.8169647 40.2481818,37.8187765 C40.2527273,37.8242118 40.2563636,37.8296471 40.2609091,37.8350824 Z M39.5809091,29.8397647 C39.0445455,29.8397647 38.6090909,29.4049412 38.6090909,28.8695647 C38.6090909,28.3350941 39.0445455,27.9002706 39.5809091,27.9002706 C40.1181818,27.9002706 40.5545455,28.3350941 40.5545455,28.8695647 C40.5545455,29.4049412 40.1181818,29.8397647 39.5809091,29.8397647 Z M45.0436364,34.6780824 C45.1345455,34.8221176 45.1818182,34.9869882 45.1818182,35.1582 C45.1818182,35.6600588 44.7727273,36.0686118 44.2681818,36.0686118 C43.7636364,36.0686118 43.3545455,35.6600588 43.3545455,35.1582 C43.3545455,34.9815529 43.4054545,34.8112471 43.5018182,34.6635882 C43.5054545,34.6599647 43.5636364,34.5793412 43.5663636,34.5748118 L44.2672727,33.6073294 L44.9736364,34.5829647 C44.9763636,34.5874941 45.0263636,34.6554353 45.03,34.6599647 C45.0354545,34.6654 45.0390909,34.6717412 45.0436364,34.6780824 Z M45.1481818,27.6248824 C45.1481818,28.1593529 44.7118182,28.5941765 44.1745455,28.5941765 C43.6381818,28.5941765 43.2018182,28.1593529 43.2018182,27.6248824 C43.2018182,27.0895059 43.6381818,26.6546824 44.1745455,26.6546824 C44.7118182,26.6546824 45.1481818,27.0895059 45.1481818,27.6248824 Z M45.2609091,22.2412235 C45.7972727,22.2412235 46.2336364,22.6760471 46.2336364,23.2105176 C46.2336364,23.7458941 45.7972727,24.1807176 45.2609091,24.1807176 C44.7236364,24.1807176 44.2872727,23.7458941 44.2872727,23.2105176 C44.2872727,22.6760471 44.7236364,22.2412235 45.2609091,22.2412235 Z M38.9336364,11.9476824 C38.9336364,11.6433059 39.1809091,11.396 39.4863636,11.396 C39.7918182,11.396 40.0390909,11.6433059 40.0390909,11.9476824 L40.0390909,14.8066471 C40.0390909,15.1101176 39.7918182,15.3574235 39.4863636,15.3574235 C39.1809091,15.3574235 38.9336364,15.1101176 38.9336364,14.8066471 L38.9336364,11.9476824 Z M36.5327273,21.1550706 C36.59,21.0681059 39.4872727,17.0767882 39.4872727,17.0767882 C39.4872727,17.0767882 42.3854545,21.0690118 42.4418182,21.1550706 C42.8163636,21.7266824 43.0145455,22.3897882 43.0145455,23.0719176 C43.0145455,25.0105059 41.4327273,26.5867412 39.4872727,26.5867412 C37.5418182,26.5867412 35.96,25.0105059 35.96,23.0719176 C35.96,22.3906941 36.1572727,21.7266824 36.5327273,21.1550706 Z M33.7127273,22.2412235 C34.25,22.2412235 34.6863636,22.6760471 34.6863636,23.2105176 C34.6863636,23.7458941 34.25,24.1807176 33.7127273,24.1807176 C33.1763636,24.1807176 32.74,23.7458941 32.74,23.2105176 C32.74,22.6760471 33.1763636,22.2412235 33.7127273,22.2412235 Z" id="Shape"></path>
                        </g>
                    </g>
                </g>
            </g>
        </g>
    </g>
</svg>