<?xml version="1.0" encoding="UTF-8"?>
<svg width="356px" height="344px" viewBox="0 0 356 344" version="1.1" xmlns="http://www.w3.org/2000/svg" xmlns:xlink="http://www.w3.org/1999/xlink">
    <!-- Generator: Sketch 48.2 (47327) - http://www.bohemiancoding.com/sketch -->
    <title>rupee</title>
    <desc>Created with Sketch.</desc>
    <defs></defs>
    <g id="i-know-ornament-details" stroke="none" stroke-width="1" fill="none" fill-rule="evenodd" transform="translate(-815.000000, -245.000000)" opacity="0.06">
        <g id="main" transform="translate(231.000000, 245.000000)" fill="#FB5632" fill-rule="nonzero">
            <g id="rupee" transform="translate(584.000000, -14.000000)">
                <path d="M210.003406,115.264565 C206.62319,113.881455 202.457325,113.157224 199.744636,112.750427 C203.240227,110.791133 206.735818,108.830506 210.231409,106.871212 C209.361976,104.919921 208.561217,102.96863 207.36214,101 C194.240969,108.359688 181.121171,115.712708 168,123.069729 C168.870807,125.023688 169.672939,126.974979 170.869269,128.938274 C180.453644,123.220444 190.04626,117.565301 200.733566,120.462228 C194.501937,123.955346 188.271681,127.448464 182.040052,130.941581 C182.48507,132.335361 183.412191,134.111929 184.089333,135.500373 C184.303601,135.937847 184.303601,136.648741 185.059034,136.724765 C192.927891,132.444729 200.734939,127.67787 208.640881,123.701931 C218.270582,130.496105 211.692828,137.078212 199.670467,142.700011 C201.093426,143.885723 203.877538,145.122119 205.837541,146.329172 C220.964041,147.777636 238.359586,149.127401 254.106914,150.554524 C255.252424,150.658557 256.906134,150.874627 258.344202,151 L268,145.588935 C266.283109,145.064767 264.23108,145.026088 262.49908,144.864703 C250.953328,143.793694 239.495481,142.705346 228.206576,141.658344 C223.62591,141.234208 218.890037,140.907437 214.312117,140.004481 C225.020026,133.311673 225.752108,126.218737 217.127819,118.747012 C219.37214,117.486609 221.617834,116.227539 223.862154,114.969804 L220.990138,109.103927 C217.326979,111.159251 213.663819,113.211908 210.003406,115.264565 Z" id="Shape"></path>
                <g id="Group">
                    <path d="M115.130968,197.361358 C128.552387,205.496607 148.927226,206.381489 160.550323,199.339679 C172.173419,192.29489 170.711484,179.94677 157.290065,171.8145 C143.867226,163.68223 123.492387,162.794369 111.87071,169.839158 C100.246194,176.883948 101.708129,189.229088 115.130968,197.361358 Z M113.132516,170.157954 C113.484516,169.953865 113.845032,169.755735 114.214065,169.565054 L121.965161,175.029272 L122.774194,174.627053 L115.020258,169.159855 C115.404903,168.976622 115.798065,168.802327 116.198323,168.632502 L123.228387,174.422964 L124.104129,174.074374 L117.078323,168.283912 C117.492774,168.124514 117.914323,167.972565 118.342968,167.826574 L124.592387,173.89859 L125.524903,173.59916 L119.282581,167.530124 C119.724,167.396051 120.171097,167.270916 120.623871,167.15174 L126.042968,173.45317 L127.028,173.208859 L121.611742,166.90743 C122.07729,166.800171 122.547097,166.697382 123.022581,166.608 L127.573032,173.094152 L128.602065,172.907939 L124.053032,166.420298 C124.538452,166.338364 125.028129,166.265369 125.520645,166.202802 L129.168387,172.824516 L130.232903,172.693423 L126.589419,166.071708 C127.090452,166.016589 127.594323,165.970409 128.099613,165.931676 L130.817677,172.641283 L131.910581,172.571267 L129.198194,165.86464 C129.710581,165.837825 130.224387,165.818459 130.741032,165.809521 L132.50529,172.547432 L133.618065,172.538494 L131.858065,165.800583 C132.377548,165.800583 132.898452,165.809521 133.423613,165.827397 L134.22271,172.548922 L135.346839,172.598082 L134.549161,165.876558 C135.074323,165.906352 135.598065,165.940615 136.123226,165.986795 L135.954323,172.641283 L137.079871,172.745562 L137.251613,166.091074 C137.776774,166.146193 138.301935,166.21025 138.824258,166.283245 L137.687355,172.821537 L138.808645,172.986894 L139.951226,166.445623 C140.472129,166.527556 140.991613,166.619918 141.511097,166.716748 L139.411871,173.094152 L140.517548,173.314627 L142.619613,166.943182 C143.133419,167.050441 143.645806,167.166637 144.155355,167.291772 L141.110839,173.45168 L142.195226,173.731743 L145.241161,167.571836 C145.743613,167.708888 146.241806,167.851899 146.738581,167.999379 L142.772903,173.8971 L143.827484,174.229303 L147.796,168.331582 C148.282839,168.49396 148.765419,168.660806 149.245161,168.835101 L144.38529,174.421474 L145.400129,174.805817 L150.262839,169.216464 C150.729806,169.399697 151.192516,169.588889 151.649548,169.787019 L145.935226,175.024803 L146.903226,175.455326 L152.623226,170.217542 C153.067484,170.421631 153.506065,170.633168 153.938968,170.852154 L147.411355,175.702616 L148.324,176.17634 L154.850194,171.331837 C155.267484,171.558272 155.679097,171.789175 156.086452,172.027527 L148.802323,176.444486 L149.653935,176.962902 L156.940903,172.545942 C157.334065,172.790253 157.715871,173.040523 158.086323,173.293772 L150.095355,177.250414 L150.880258,177.803092 L158.879742,173.84645 C159.238839,174.108637 159.589419,174.373804 159.927226,174.643439 L151.284774,178.11146 L151.995871,178.699891 L160.638323,175.23485 C160.963355,175.508955 161.277032,175.790508 161.580774,176.073551 L152.359226,179.023156 L152.990839,179.636912 L162.210968,176.688797 C162.499097,176.979288 162.773032,177.27127 163.037032,177.56772 L153.310194,179.976564 L153.858065,180.614155 L163.586323,178.205311 C163.83471,178.50772 164.068903,178.810129 164.291742,179.112538 L154.132,180.962745 L154.591871,181.619703 L164.754452,179.772475 C164.960258,180.080843 165.15329,180.39219 165.332129,180.700558 L154.816129,181.97723 L155.185161,182.649085 L165.704,181.372412 C165.865806,181.686739 166.017677,182.004045 166.153935,182.321351 L155.359742,183.014061 L155.633677,183.694854 L166.420774,183.002144 C166.54,183.31945 166.646452,183.636756 166.73871,183.954062 L155.757161,184.06132 L155.934581,184.745092 L166.91329,184.637834 C166.987097,184.958119 167.048129,185.275425 167.093548,185.595711 L156.005548,185.116027 L156.085032,185.79682 L167.174452,186.276503 C167.204258,186.593809 167.218452,186.911115 167.219871,187.228421 L156.102065,186.163286 L156.083613,186.835141 L167.204258,187.903255 C167.187226,188.217582 167.156,188.528929 167.112,188.840276 L156.04671,187.198627 L155.931742,187.858564 L167.00271,189.503193 C166.941677,189.811561 166.863613,190.116949 166.772774,190.419358 L155.840903,188.214603 L155.629419,188.861132 L166.558452,191.065888 C166.450581,191.365317 166.331355,191.661767 166.197935,191.956728 L155.488903,189.203763 L155.180903,189.826458 L165.885677,192.579422 C165.735226,192.869914 165.569161,193.155936 165.390323,193.43451 L154.986452,190.155681 L154.584774,190.751561 L164.987226,194.033369 C164.791355,194.310453 164.58271,194.580089 164.36129,194.848235 L154.342065,191.065888 L153.849548,191.630484 L163.871613,195.41581 C163.633161,195.677997 163.383355,195.934226 163.119355,196.184495 L153.56,191.928424 L152.980903,192.457267 L162.541677,196.716318 C162.264903,196.960629 161.973935,197.196001 161.671613,197.431374 L152.645935,192.732861 L151.984516,193.224462 L161.004516,197.919995 C160.690839,198.140471 160.362968,198.359457 160.023742,198.573973 L151.606968,193.476221 L150.868903,193.921642 L159.285677,199.022373 C158.930839,199.229441 158.571742,199.426082 158.20129,199.615273 L150.451613,194.151055 L149.642581,194.553274 L157.396516,200.023451 C157.010452,200.206684 156.61729,200.380979 156.215613,200.550805 L149.185548,194.754384 L148.311226,195.105953 L155.337032,200.899394 C154.921161,201.055813 154.498194,201.210742 154.069548,201.353753 L147.821548,195.284717 L146.889032,195.581167 L153.132774,201.650203 C152.691355,201.787255 152.242839,201.91239 151.787226,202.031566 L146.370968,195.730137 L145.385935,195.971468 L150.802194,202.272897 C150.336645,202.383135 149.865419,202.482945 149.389935,202.575306 L144.840903,196.087665 L143.811871,196.273877 L148.360903,202.764498 C147.874065,202.846432 147.384387,202.916448 146.891871,202.981994 L143.246968,196.36028 L142.182452,196.488394 L145.825935,203.113088 C145.324903,203.165227 144.821032,203.211408 144.312903,203.25312 L141.597677,196.543513 L140.504774,196.613529 L143.217161,203.317177 C142.703355,203.343991 142.188129,203.360378 141.671484,203.372296 L139.908645,196.634385 L138.795871,196.646302 L140.555871,203.381234 C140.034968,203.378255 139.512645,203.372296 138.988903,203.354419 L138.189806,196.635874 L137.065677,196.583735 L137.863355,203.305259 C137.338194,203.275465 136.813032,203.238223 136.286452,203.195021 L136.458194,196.543513 L135.332645,196.436255 L135.159484,203.090742 C134.634323,203.035624 134.109161,202.968587 133.584,202.898571 L134.723742,196.36028 L133.603871,196.194923 L132.459871,202.739173 C131.937548,202.654261 131.418065,202.561899 130.898581,202.462089 L132.999226,196.090644 L131.893548,195.867189 L129.790065,202.238634 C129.276258,202.131376 128.762452,202.015179 128.254323,201.890045 L131.300258,195.730137 L130.215871,195.450073 L127.169935,201.607002 C126.667484,201.472929 126.166452,201.329918 125.669677,201.179458 L129.638194,195.287696 L128.585032,194.952514 L124.615097,200.847255 C124.128258,200.690836 123.645677,200.521011 123.165935,200.346716 L128.027226,194.760342 L127.013806,194.376 L122.149677,199.965353 C121.68271,199.78212 121.218581,199.589948 120.760129,199.394798 L126.47729,194.157014 L125.50929,193.723512 L119.78929,198.964275 C119.345032,198.760186 118.905032,198.548648 118.47071,198.329663 L125.001161,193.479201 L124.088516,193.005476 L117.560903,197.849979 C117.142194,197.626524 116.730581,197.392642 116.323226,197.15429 L123.610194,192.73733 L122.758581,192.221894 L115.471613,196.635874 C115.078452,196.391564 114.695226,196.141294 114.323355,195.888045 L122.317161,191.931403 L121.532258,191.378724 L113.532774,195.335367 C113.170839,195.073179 112.821677,194.806523 112.483871,194.538377 L121.127742,191.070357 L120.416645,190.484905 L111.774194,193.949946 C111.449161,193.669882 111.134065,193.391309 110.831742,193.109755 L120.05329,190.16015 L119.421677,189.546394 L110.202968,192.494509 C109.914839,192.204018 109.639484,191.909058 109.375484,191.615587 L119.102323,189.209722 L118.554452,188.57213 L108.826194,190.975016 C108.577806,190.675586 108.343613,190.373177 108.120774,190.067789 L118.280516,188.220561 L117.820645,187.563604 L107.658065,189.410831 C107.452258,189.102464 107.260645,188.791116 107.080387,188.479769 L117.596387,187.206076 L117.227355,186.534221 L106.708516,187.807915 C106.54529,187.493588 106.394839,187.179261 106.258581,186.861955 L117.051355,186.169245 L116.777419,185.491432 L105.988903,186.181163 C105.871097,185.863857 105.764645,185.546551 105.672387,185.226265 L116.653935,185.121986 L116.476516,184.438214 L105.499226,184.542493 C105.425419,184.225187 105.364387,183.904902 105.318968,183.587596 L116.406968,184.067279 L116.326065,183.386486 L105.238065,182.906803 C105.208258,182.586518 105.195484,182.272191 105.194065,181.954885 L116.310452,183.02002 L116.328903,182.348166 L105.208258,181.280051 C105.22671,180.965724 105.257935,180.654377 105.300516,180.34303 L116.364387,181.984679 L116.479355,181.324742 L105.408387,179.680114 C105.470839,179.371746 105.548903,179.066358 105.638323,178.763948 L116.568774,180.968704 L116.780258,180.325154 L105.851226,178.117419 C105.959097,177.817989 106.079742,177.521539 106.214581,177.226579 L116.922194,179.982523 L117.230194,179.356849 L106.525419,176.603884 C106.67729,176.316372 106.843355,176.02737 107.022194,175.745817 L117.424645,179.027625 L117.826323,178.431745 L107.42529,175.149937 C107.621161,174.875833 107.829806,174.603218 108.051226,174.335072 L118.069032,178.117419 L118.561548,177.549843 L108.539484,173.767496 C108.777935,173.505309 109.029161,173.25206 109.291742,172.998811 L118.849677,177.254883 L119.428774,176.726039 L109.869419,172.466988 C110.147613,172.225657 110.435742,171.987305 110.739484,171.751933 L119.763742,176.450445 L120.423742,175.958844 L111.405161,171.266291 C111.721677,171.042836 112.048129,170.82087 112.388774,170.609333 L120.804129,175.707085 L121.542194,175.261665 L113.132516,170.157954 Z" id="Shape"></path>
                    <path d="M124.081419,191.938852 C131.80271,196.620977 143.528,197.128965 150.216,193.076982 C156.905419,189.023509 156.062323,181.919132 148.341032,177.239986 C140.616903,172.560839 128.893032,172.049873 122.203613,176.101855 C115.514194,180.153838 116.35729,187.259705 124.081419,191.938852 Z M123.055226,176.620271 C129.33729,172.811109 140.348645,173.292282 147.602968,177.688385 C154.855871,182.081509 155.646452,188.756853 149.364387,192.561546 C143.082323,196.366239 132.070968,195.886555 124.818065,191.493431 C117.565161,187.097328 116.773161,180.424964 123.055226,176.620271 Z" id="Shape"></path>
                    <path d="M324.538323,70.4702382 C311.116903,62.3349888 290.742065,61.4501073 279.118968,68.4919172 C267.495871,75.5367064 268.959226,87.8848262 282.380645,96.0170961 C295.802065,104.149366 316.176903,105.037227 327.8,97.9924378 C339.423097,90.9476485 337.959742,78.6025082 324.538323,70.4702382 Z M326.538194,97.6706627 C326.183355,97.8777309 325.824258,98.0773506 325.453806,98.2665425 L317.70271,92.8023245 L316.895097,93.2015639 L324.650452,98.6717408 C324.262968,98.8549738 323.869806,99.0292687 323.469548,99.1990944 L316.439484,93.4056528 L315.566581,93.7572219 L322.590968,99.5476841 C322.175097,99.707082 321.753548,99.8590313 321.323484,100.005022 L315.076903,93.9330064 L314.144387,94.2324361 L320.38671,100.298493 C319.94529,100.435545 319.496774,100.56068 319.042581,100.679856 L313.626323,94.3784266 L312.64129,94.6227373 L318.057548,100.924167 C317.592,101.031425 317.122194,101.134214 316.64529,101.223596 L312.096258,94.7374442 L311.067226,94.9236567 L315.616258,101.411298 C315.129419,101.493232 314.639742,101.566227 314.147226,101.631774 L310.502323,95.0070798 L309.437806,95.1381734 L313.08129,101.759888 C312.580258,101.815007 312.076387,101.861188 311.568258,101.89992 L308.851613,95.1918026 L307.75871,95.2618185 L310.469677,101.965467 C309.95729,101.992281 309.440645,102.011647 308.925419,102.023565 L307.162581,95.2856536 L306.049806,95.2945918 L307.809806,102.032503 C307.288903,102.029524 306.768,102.023565 306.242839,102.005688 L305.443742,95.2841639 L304.319613,95.2350039 L305.11729,101.956528 C304.592129,101.926734 304.065548,101.889492 303.540387,101.846291 L303.71071,95.1918026 L302.585161,95.0845442 L302.412,101.739032 C301.886839,101.683913 301.361677,101.619856 300.836516,101.546861 L301.977677,95.0115489 L300.857806,94.8461923 L299.713806,101.387463 C299.192903,101.30255 298.672,101.213168 298.151097,101.113358 L300.253161,94.7389339 L299.147484,94.5184584 L297.044,100.889903 C296.531613,100.779666 296.016387,100.663469 295.508258,100.541314 L298.554194,94.381406 L297.469806,94.1013425 L294.423871,100.258271 C293.921419,100.124198 293.420387,99.9811867 292.923613,99.830727 L296.893548,93.9359858 L295.840387,93.6037828 L291.869032,99.498524 C291.382194,99.3391262 290.899613,99.1722798 290.419871,98.997985 L295.281161,93.4086322 L294.267742,93.0272691 L289.403613,98.6166219 C288.935226,98.4333888 288.472516,98.2412176 288.014065,98.0430876 L293.731226,92.8053039 L292.763226,92.3747807 L287.043226,97.6155438 C286.598968,97.4084755 286.158968,97.1969382 285.724645,96.9779524 L292.255097,92.13047 L291.342452,91.6567455 L284.814839,96.4982691 C284.396129,96.2748142 283.984516,96.0439107 283.577161,95.8025794 L290.865548,91.3856202 L290.015355,90.8716738 L282.728387,95.288633 C282.335226,95.0413429 281.952,94.7910734 281.57871,94.5378245 L289.572516,90.5841618 L288.787613,90.0314833 L280.788129,93.9881253 C280.426194,93.7259382 280.077032,93.459282 279.739226,93.1911361 L288.383097,89.7231155 L287.673419,89.1346841 L279.029548,92.5997253 C278.704516,92.3226412 278.389419,92.041088 278.087097,91.7595348 L287.308645,88.8114193 L286.677032,88.1976631 L277.458323,91.1427991 C277.170194,90.8523077 276.896258,90.5603266 276.632258,90.2668558 L286.359097,87.8580116 L285.811226,87.2204202 L276.082968,89.626285 C275.834581,89.323876 275.600387,89.021467 275.377548,88.7160785 L285.535871,86.8718305 L285.077419,86.214873 L274.914839,88.0621004 C274.709032,87.7537326 274.517419,87.4423854 274.337161,87.1310382 L284.853161,85.8543657 L284.484129,85.1854906 L273.96529,86.4591837 C273.803484,86.1448571 273.651613,85.8275511 273.516774,85.5132245 L284.309548,84.8205142 L284.037032,84.1397215 L273.247097,84.8324318 C273.13071,84.5151258 273.024258,84.1948403 272.930581,83.8775343 L283.912129,83.7732554 L283.73329,83.0894833 L272.756,83.1937622 C272.683613,82.8734768 272.621161,82.5561708 272.575742,82.2358854 L283.665161,82.7185481 L283.582839,82.0377554 L272.494839,81.5550927 C272.465032,81.2377867 272.450839,80.9204807 272.450839,80.6061541 L283.565806,81.6712893 L283.584258,80.9964554 L272.463613,79.9313202 C272.482065,79.6169936 272.51329,79.302667 272.555871,78.9913197 L283.619742,80.6359481 L283.73471,79.9760112 L272.663742,78.3298931 C272.726194,78.0245047 272.804258,77.7191163 272.893677,77.4137279 L283.824129,79.6214627 L284.035613,78.974933 L273.106581,76.7671983 C273.214452,76.4677687 273.335097,76.1713185 273.469935,75.8763579 L284.177548,78.6323021 L284.486968,78.0096077 L273.780774,75.2536635 C273.932645,74.9661515 274.09871,74.6801292 274.277548,74.398576 L284.678581,77.6803841 L285.080258,77.0815249 L274.679226,73.7997167 C274.875097,73.525612 275.083742,73.2559764 275.305161,72.9848511 L285.322968,76.7671983 L285.815484,76.2026021 L275.793419,72.4172755 C276.031871,72.1580678 276.284516,71.9018395 276.545677,71.6485906 L286.102194,75.9076416 L286.68129,75.3758189 L277.121935,71.1197472 C277.400129,70.8754365 277.688258,70.6370845 277.992,70.4046914 L287.016258,75.1002245 L287.676258,74.611603 L278.657677,69.91607 C278.974194,69.6955944 279.300645,69.4736292 279.639871,69.2591124 L288.055226,74.3598438 L288.79329,73.9114442 L280.377935,68.8136923 C280.729935,68.606624 281.090452,68.4114734 281.459484,68.2207918 L289.210581,73.6850099 L290.019613,73.282791 L282.265677,67.8126142 C282.651742,67.6293811 283.043484,67.4550863 283.443742,67.2882399 L290.473806,73.0787021 L291.348129,72.727133 L284.323742,66.9366708 C284.738194,66.7802524 285.159742,66.6253236 285.588387,66.4823124 L291.837806,72.5513485 L292.770323,72.2548983 L286.528,66.1858622 C286.969419,66.0488099 287.416516,65.9236751 287.86929,65.8044991 L293.288387,72.1059283 L294.273419,71.864597 L288.857161,65.5601884 C289.32271,65.45293 289.792516,65.3531202 290.266581,65.2607588 L294.818452,71.7484004 L295.847484,71.562188 L291.298452,65.071567 C291.783871,64.9896335 292.273548,64.9196176 292.764645,64.8540708 L296.412387,71.4757854 L297.476903,71.3476712 L293.833419,64.7229773 C294.334452,64.6708378 294.838323,64.6246571 295.343613,64.5829455 L298.061677,71.2925524 L299.154581,71.2225365 L296.443613,64.5188884 C296.954581,64.4920738 297.469806,64.4727077 297.986452,64.4607901 L299.75071,71.1987013 L300.863484,71.1897631 L299.103484,64.4548313 C299.622968,64.4548313 300.143871,64.4637695 300.669032,64.4816459 L301.468129,71.200191 L302.592258,71.2493511 L301.794581,64.530806 C302.319742,64.5576206 302.843484,64.5948631 303.368645,64.6410438 L303.201161,71.2925524 L304.32671,71.3998107 L304.498452,64.7453227 C305.023613,64.8004416 305.548774,64.8644987 306.071097,64.937494 L304.934194,71.4757854 L306.055484,71.6411421 L307.198065,65.0968918 C307.718968,65.1818047 308.237032,65.2711867 308.757935,65.3709966 L306.65871,71.745421 L307.764387,71.968876 L309.866452,65.5944515 C310.380258,65.7046893 310.892645,65.8208858 311.400774,65.9430412 L308.356258,72.1059283 L309.440645,72.3830124 L312.486581,66.2260841 C312.989032,66.3601571 313.487226,66.5031682 313.984,66.6536279 L310.016903,72.5483691 L311.070065,72.8805721 L315.04,66.9858309 C315.528258,67.1452288 316.010839,67.3120751 316.489161,67.48637 L311.62929,73.0757227 L312.644129,73.4600652 L317.506839,67.8707124 C317.975226,68.0539455 318.436516,68.2431373 318.894968,68.438288 L313.180645,73.6790511 L314.148645,74.1095742 L319.868645,68.8688112 C320.312903,69.0758794 320.750065,69.2874167 321.184387,69.5064026 L314.656774,74.3568644 L315.569419,74.8305888 L322.095613,69.9860858 C322.514323,70.2095408 322.925935,70.4404442 323.331871,70.6817755 L316.046323,75.0987348 L316.899355,75.6141708 L324.186323,71.1972116 C324.579484,71.4445017 324.96271,71.6947712 325.333161,71.9480202 L317.342194,75.9046622 L318.127097,76.4573408 L326.128,72.4977193 C326.487097,72.7628858 326.837677,73.0265627 327.174065,73.2947086 L318.531613,76.7657086 L319.24271,77.3511605 L327.885161,73.8861193 C328.210194,74.1632034 328.523871,74.4447567 328.827613,74.7263099 L319.604645,77.6744253 L320.236258,78.2911609 L329.456387,75.3430455 C329.744516,75.6335369 330.018452,75.925518 330.282452,76.2189888 L320.555613,78.627833 L321.103484,79.2654245 L330.831742,76.8595597 C331.080129,77.1619687 331.314323,77.4643777 331.537161,77.7667867 L321.378839,79.6169936 L321.83729,80.2739511 L331.999871,78.4237442 C332.207097,78.732112 332.39729,79.0434592 332.577548,79.3548064 L322.061548,80.631479 L322.430581,81.3033335 L332.949419,80.0266609 C333.111226,80.3409876 333.263097,80.6582936 333.399355,80.9726202 L322.605161,81.6683099 L322.877677,82.3461232 L333.666194,81.6534129 C333.785419,81.9707189 333.891871,82.2910043 333.984129,82.6083103 L323.002581,82.7155687 L323.181419,83.3993408 L334.15871,83.2920824 C334.232516,83.6123678 334.293548,83.9296738 334.338968,84.2469798 L323.249548,83.7672966 L323.330452,84.4480893 L334.419871,84.9307519 C334.449677,85.2480579 334.462452,85.5653639 334.46529,85.8796906 L323.347484,84.8145554 L323.329032,85.4893893 L334.451097,86.5545245 C334.432645,86.8688511 334.402839,87.1831777 334.358839,87.4945249 L323.293548,85.852876 L323.178581,86.5128129 L334.249548,88.1574412 C334.188516,88.4628296 334.110452,88.768218 334.021032,89.0736064 L323.089161,86.8688511 L322.877677,87.5124013 L333.80671,89.7201361 C333.698839,90.0195657 333.579613,90.3160159 333.446194,90.6109764 L322.735742,87.8550322 L322.427742,88.480706 L333.132516,91.2336708 C332.982065,91.5211828 332.816,91.8072052 332.637161,92.0887584 L322.23471,88.8069502 L321.833032,89.4058094 L332.235484,92.6876176 C332.039613,92.9617223 331.830968,93.2313579 331.609548,93.5024833 L321.590323,89.7201361 L321.097806,90.2847322 L331.119871,94.0700588 C330.881419,94.3292665 330.631613,94.5854948 330.369032,94.8387438 L320.811097,90.5826721 L320.232,91.1115155 L329.792774,95.3705665 C329.516,95.6118979 329.225032,95.8502498 328.92271,96.0841326 L319.897032,91.3885996 L319.235613,91.877221 L328.254194,96.5727541 C327.940516,96.796209 327.614065,97.0151948 327.274839,97.2297116 L318.856645,92.1289803 L318.118581,92.5773798 L326.538194,97.6706627 Z" id="Shape"></path>
                    <path d="M315.59071,75.8927446 C307.868,71.2106189 296.14271,70.7026313 289.45471,74.7546142 C282.76529,78.8080867 283.608387,85.9094845 291.331097,90.5916103 C299.052387,95.2707567 310.777677,95.7817236 317.465677,91.7297408 C324.155097,87.6762682 323.312,80.571891 315.59071,75.8927446 Z M316.614065,91.212815 C310.330581,95.0219768 299.319226,94.5408039 292.067742,90.1447004 C284.813419,85.7515764 284.022839,79.0762326 290.304903,75.2715399 C296.586968,71.4668472 307.598323,71.9465305 314.852645,76.3396545 C322.105548,80.7342682 322.896129,87.4066326 316.614065,91.212815 Z" id="Shape"></path>
                    <path d="M71.9187097,155.976014 C81.0990968,165.738015 82.4304516,176.977799 75.479871,186.038152 L74.8255484,186.88728 L132.415871,221.784982 L133.822452,221.388722 C148.773935,217.175852 167.319226,217.984759 183.428903,223.547297 L184.943355,224.071671 L234.179355,194.237458 L230.778581,192.168265 L183.681548,220.70793 C167.102065,215.313727 148.353806,214.495882 132.888516,218.500195 L80.2517419,186.602748 C86.8517419,177.231048 85.5061935,165.869109 76.604,155.822575 L123.884129,127.175652 L120.483355,125.10646 L71.0529032,155.059849 L71.9187097,155.976014 Z" id="Shape"></path>
                    <path d="M367.752,111.855582 C358.571613,102.093581 357.240258,90.8537974 364.190839,81.7934446 L364.845161,80.9443159 L307.254839,46.0466137 L305.849677,46.4428738 C290.896774,50.6527648 272.352903,49.8468373 256.243226,44.2842991 L254.728774,43.7599249 L210.361161,70.644533 L213.678194,72.7628858 L255.989161,47.1236665 C272.567226,52.5178687 291.316903,53.3357137 306.782194,49.3314013 L359.418968,81.2288485 C352.818968,90.6005485 354.163097,101.962487 363.06529,112.009021 L317.96529,139.33607 L321.283742,141.454423 L368.616387,112.771747 L367.752,111.855582 Z" id="Shape"></path>
                    <path d="M188.019097,238.202961 L185.890065,236.914371 C170.710065,227.716966 147.665419,226.712909 134.519355,234.679822 L132.675613,235.797097 L51.7028387,186.729372 L53.5465806,185.612097 C66.6926452,177.648164 65.0376774,163.68223 49.8576774,154.484825 L47.7286452,153.193255 L107.307484,117.091876 L95.680129,110.021762 L0.31083871,167.814657 L163.894323,266.937776 L258.984,209.319176 L247.356645,202.249062 L188.019097,238.202961 Z M40.592129,179.99742 L22.0454194,168.757636 L38.1068387,159.025429 C48.3489032,165.234497 49.4630968,174.624073 40.592129,179.99742 Z M162.333032,253.770322 L143.786323,242.530539 C152.65729,237.157192 168.152387,237.829047 178.394452,244.038115 L162.333032,253.770322 Z" id="Shape"></path>
                    <path d="M275.776387,0.893819742 L186.159742,55.1948588 L197.503226,62.4392678 L251.650194,29.6256554 L253.779226,30.9142455 C268.959226,40.11463 292.003871,41.1186876 305.149935,33.1487948 L306.993677,32.0315202 L387.965032,81.1007343 L386.12129,82.218009 C372.975226,90.1819429 374.630194,104.147876 389.810194,113.345282 L391.939226,114.636851 L334.137419,149.662667 L345.480903,156.904097 L439.358452,100.01545 L275.776387,0.893819742 Z M261.274839,23.7949712 L277.334839,14.0627639 L295.881548,25.2995678 C287.012,30.6758936 271.518323,30.0040391 261.274839,23.7949712 Z M399.078581,87.8341764 L417.62529,99.0709803 L401.563871,108.806167 C391.320387,102.597099 390.207613,93.2075227 399.078581,87.8341764 Z" id="Shape"></path>
                </g>
                <g id="Group" transform="translate(0.000000, 50.000000)">
                    <polygon id="Shape" points="345.218323 106.182689 345.218323 112.486783 439.442194 54.2680478 439.442194 47.9669903"></polygon>
                    <polygon id="Shape" points="0.22283871 117.561032 0.22283871 123.968372 163.342194 224.864246 258.984 165.767918 258.984 159.459269 163.343613 218.549524"></polygon>
                    <polygon id="Shape" points="0.22283871 127.888693 0.22283871 134.297552 163.342194 235.191907 258.984 176.098616 258.984 169.791485 163.343613 228.878703"></polygon>
                    <polygon id="Shape" points="345.218323 122.815962 439.442194 64.5972272 439.442194 58.297688 345.218323 116.51035"></polygon>
                    <polygon id="Shape" points="345.218323 133.143623 439.442194 74.9264066 439.442194 68.6268674 345.218323 126.839529"></polygon>
                    <polygon id="Shape" points="0.22283871 138.217872 0.22283871 144.629768 163.342194 245.524123 258.984 186.427795 258.984 180.120664 163.343613 239.210919"></polygon>
                    <polygon id="Shape" points="0.22283871 148.550089 0.22283871 154.958947 163.342194 255.853303 258.984 196.756974 258.984 190.449844 163.343613 249.540098"></polygon>
                    <polygon id="Shape" points="345.218323 143.475839 439.442194 85.2540676 439.442194 78.9560468 345.218323 137.171745"></polygon>
                    <polygon id="Shape" points="0.22283871 158.879268 0.22283871 165.286608 163.342194 266.182482 258.984 207.086154 258.984 200.777505 163.343613 259.867759"></polygon>
                    <polygon id="Shape" points="345.218323 153.805019 439.442194 95.5862837 439.442194 89.2852261 345.218323 147.499406"></polygon>
                    <polygon id="Shape" points="345.218323 164.134198 439.442194 105.915463 439.442194 99.6159238 345.218323 157.831622"></polygon>
                    <polygon id="Shape" points="0.22283871 169.209966 0.22283871 175.615788 163.342194 276.510143 258.984 217.416852 258.984 211.109721 163.343613 270.196939"></polygon>
                    <polygon id="Shape" points="0.22283871 179.539145 0.22283871 185.948004 163.342194 286.842359 258.984 227.746031 258.984 221.4389 163.343613 280.529155"></polygon>
                    <polygon id="Shape" points="345.218323 174.461859 439.442194 116.244642 439.442194 109.945103 345.218323 168.160802"></polygon>
                    <polygon id="Shape" points="0.22283871 189.868324 0.22283871 196.275665 163.342194 297.171538 258.984 238.078247 258.984 231.769598 163.343613 290.856816"></polygon>
                    <polygon id="Shape" points="345.218323 184.794075 439.442194 126.572303 439.442194 120.274283 345.218323 178.489981"></polygon>
                    <polygon id="Shape" points="0.22283871 200.197504 0.22283871 206.604844 163.342194 307.499199 258.984 248.405908 258.984 242.098777 163.343613 301.189032"></polygon>
                    <polygon id="Shape" points="345.218323 195.123255 439.442194 136.90452 439.442194 130.603462 345.218323 188.817642"></polygon>
                    <path d="M181.667484,1.39686095 L100.602452,52.0467353 L100.882065,51.8721276 L98.8949677,53.076161 L100.440645,54.069147 L100.591097,54.1663199 L261.758839,154.473083 L261.758839,247.399257 L261.758839,248.108316 L262.332258,249.152925 L263.462065,248.443866 L342.119871,199.014727 L343.519355,198.137134 L343.502323,198.106767 L343.823097,197.892683 L343.823097,104.726613 L343.823097,104.430539 L183.096774,0.487383005 L181.667484,1.39686095 Z M263.463484,246.330355 L263.463484,154.186119 L342.12129,106.305673 L342.12129,196.904252 L263.463484,246.330355 Z M262.384774,152.7513 L102.263097,53.1171559 L183.098194,2.60848599 L341.529419,104.564152 L262.384774,152.7513 Z" id="Shape"></path>
                </g>
                <path d="M317.587176,206.521586 C317.08928,203.867065 315.525057,202.045131 314.443516,200.952267 C318.249654,198.694076 322.055793,196.434405 325.861931,194.179171 C327.283701,191.140151 328.74143,188.118878 330,185 C315.711768,193.473764 301.424918,201.949007 287.138069,210.422771 C285.716299,213.461791 284.25857,216.486022 283,219.601942 C293.772533,212.898352 304.488362,206.295323 307.493717,212.50498 C300.708501,216.528909 293.923285,220.554316 287.138069,224.578245 C286.024718,226.715171 284.80349,229.505746 283.827061,231.675207 C283.517259,232.359911 282.828502,233.40841 283.164582,233.659813 C291.605303,228.772241 300.485831,223.149684 308.649943,218.720552 C307.295942,230.487697 297.324192,239.005826 285.316599,245.123795 C284.941794,247.126147 285.254362,249.459759 285.152017,251.593728 C291.981491,256.46947 300.14007,261.612882 307.327752,266.575875 C307.84916,266.933755 308.539299,267.554869 309.200394,268 L319.715681,261.766682 C319.285555,260.687127 318.208163,260.253826 317.422594,259.702218 C312.176706,256.031733 306.994438,252.347938 301.867493,248.755831 C299.786011,247.30065 297.52335,245.962298 295.909337,243.795795 C308.237795,235.864766 315.525057,225.532098 318.083689,212.948633 C320.528912,211.499367 322.974134,210.048624 325.417974,208.599359 L329.549128,199.426102 C325.56181,201.790771 321.574493,204.156918 317.587176,206.521586 Z" id="Shape"></path>
            </g>
        </g>
    </g>
</svg>