<?xml version="1.0" encoding="UTF-8"?>
<svg width="118px" height="117px" viewBox="0 0 118 117" version="1.1" xmlns="http://www.w3.org/2000/svg" xmlns:xlink="http://www.w3.org/1999/xlink">
    <!-- Generator: Sketch 48.2 (47327) - http://www.bohemiancoding.com/sketch -->
    <title>icon-notes</title>
    <desc>Created with Sketch.</desc>
    <defs></defs>
    <g id="I-know-required-loan-amount" stroke="none" stroke-width="1" fill="none" fill-rule="evenodd" transform="translate(-741.000000, -79.000000)">
        <g id="tabs" transform="translate(231.000000, 59.000000)">
            <g id="loan" transform="translate(489.000000, 0.000000)">
                <g id="icon-notes" transform="translate(21.000000, 20.000000)">
                    <rect id="Rectangle-2" fill="#FFF6F4" x="0" y="0" width="118" height="117" rx="58.5"></rect>
                    <g id="rupee" transform="translate(17.000000, 26.000000)" fill="#FB5632" fill-rule="nonzero">
                        <path d="M39.9806472,20.5676216 C39.3384062,20.318662 38.5468917,20.1883003 38.0314809,20.1150768 C38.6956432,19.762404 39.3598055,19.409491 40.0239678,19.0568182 C39.8587754,18.7055858 39.7066313,18.3543534 39.4788067,18 C36.9857841,19.3247439 34.4930226,20.6482875 32,21.9725512 C32.1654534,22.3242638 32.3178584,22.6754962 32.5451611,23.0288892 C34.3661923,21.9996799 36.1887894,20.9817542 38.2193775,21.503201 C37.035368,22.1319622 35.8516194,22.7607234 34.6676098,23.3894846 C34.7521633,23.6403649 34.9283163,23.9601472 35.0569733,24.2100672 C35.0976843,24.2888124 35.0976843,24.4167734 35.2412164,24.4304577 C36.7362992,23.6600512 38.2196385,22.8020166 39.7217674,22.0863476 C41.5514106,23.309299 40.3016372,24.4940781 38.0173887,25.5060019 C38.287751,25.7194302 38.8167321,25.9419814 39.1891328,26.159251 C42.0631679,26.4199744 45.3683213,26.6629321 48.3603137,26.9198143 C48.5779606,26.9385403 48.8921655,26.9774328 49.1653985,27 L51,26.0260083 C50.6737906,25.9316581 50.2839052,25.9246959 49.9548252,25.8956466 C47.7611323,25.7028649 45.5841414,25.5069622 43.4392495,25.3185019 C42.5689229,25.2421575 41.6691069,25.1833387 40.7993023,25.0208067 C42.8338049,23.8161012 42.9729006,22.5393726 41.3342856,21.1944622 C41.7607065,20.9675896 42.1873884,20.7409571 42.6138093,20.5145647 L42.0681263,19.4587068 C41.3721259,19.8286652 40.6761256,20.1981434 39.9806472,20.5676216 Z" id="Shape"></path>
                        <g id="Group">
                            <path d="M21.9795484,35.3290667 C24.5418194,36.7853333 28.4315613,36.9437333 30.6505161,35.6832 C32.869471,34.4221333 32.5903742,32.2117333 30.0281032,30.756 C27.4655613,29.3002667 23.5758194,29.1413333 21.3571355,30.4024 C19.1379097,31.6634667 19.4170065,33.8733333 21.9795484,35.3290667 Z M21.5980258,30.4594667 C21.6652258,30.4229333 21.7340516,30.3874667 21.8045032,30.3533333 L23.2842581,31.3314667 L23.4387097,31.2594667 L21.9584129,30.2808 C22.0318452,30.248 22.1069032,30.2168 22.1833161,30.1864 L23.5254194,31.2229333 L23.6926065,31.1605333 L22.3513161,30.124 C22.4304387,30.0954667 22.5109161,30.0682667 22.5927484,30.0421333 L23.7858194,31.1290667 L23.9638452,31.0754667 L22.772129,29.9890667 C22.8564,29.9650667 22.9417548,29.9426667 23.0281935,29.9213333 L24.0627484,31.0493333 L24.2508,31.0056 L23.2167871,29.8776 C23.3056645,29.8584 23.3953548,29.84 23.486129,29.824 L24.3548516,30.9850667 L24.5513032,30.9517333 L23.6828516,29.7904 C23.7755226,29.7757333 23.8690065,29.7626667 23.9630323,29.7514667 L24.6594194,30.9368 L24.8626452,30.9133333 L24.167071,29.728 C24.2627226,29.7181333 24.3589161,29.7098667 24.4553806,29.7029333 L24.9742839,30.904 L25.182929,30.8914667 L24.6651097,29.6909333 C24.762929,29.6861333 24.8610194,29.6826667 24.9596516,29.6810667 L25.2964645,30.8872 L25.5089032,30.8856 L25.1729032,29.6794667 C25.2720774,29.6794667 25.3715226,29.6810667 25.4717806,29.6842667 L25.6243355,30.8874667 L25.8389419,30.8962667 L25.6866581,29.6930667 C25.7869161,29.6984 25.8869032,29.7045333 25.9871613,29.7128 L25.9549161,30.904 L26.1697935,30.9226667 L26.2025806,29.7314667 C26.3028387,29.7413333 26.4030968,29.7528 26.5028129,29.7658667 L26.2857677,30.9362667 L26.4998323,30.9658667 L26.7179613,29.7949333 C26.8174065,29.8096 26.9165806,29.8261333 27.0157548,29.8434667 L26.6149935,30.9850667 L26.8260774,31.0245333 L27.2273806,29.884 C27.325471,29.9032 27.4232903,29.924 27.5205677,29.9464 L26.9393419,31.0490667 L27.1463613,31.0992 L27.7278581,29.9965333 C27.8237806,30.0210667 27.9188903,30.0466667 28.013729,30.0730667 L27.2566452,31.1288 L27.4579742,31.1882667 L28.2156,30.1325333 C28.3085419,30.1616 28.400671,30.1914667 28.4922581,30.2226667 L27.5644645,31.2226667 L27.7582065,31.2914667 L28.6865419,30.2909333 C28.7756903,30.3237333 28.8640258,30.3576 28.9512774,30.3930667 L27.8603613,31.3306667 L28.0451613,31.4077333 L29.1371613,30.4701333 C29.2219742,30.5066667 29.3057032,30.5445333 29.3883484,30.5837333 L28.1421677,31.452 L28.3164,31.5368 L29.5623097,30.6696 C29.6419742,30.7101333 29.7205548,30.7514667 29.7983226,30.7941333 L28.4077161,31.5848 L28.5702968,31.6776 L29.9614452,30.8869333 C30.0365032,30.9306667 30.1093935,30.9754667 30.1801161,31.0208 L28.6545677,31.7290667 L28.8044129,31.828 L30.3315871,31.1197333 C30.4001419,31.1666667 30.467071,31.2141333 30.5315613,31.2624 L28.8816387,31.8832 L29.0173935,31.9885333 L30.6673161,31.3682667 C30.7293677,31.4173333 30.7892516,31.4677333 30.8472387,31.5184 L29.0867613,32.0464 L29.2073419,32.1562667 L30.9675484,31.6285333 C31.0225548,31.6805333 31.0748516,31.7328 31.1252516,31.7858667 L29.2683097,32.2170667 L29.3729032,32.3312 L31.2301161,31.9 C31.2775355,31.9541333 31.3222452,32.0082667 31.3647871,32.0624 L29.4252,32.3936 L29.5129935,32.5112 L31.4531226,32.1805333 C31.4924129,32.2357333 31.5292645,32.2914667 31.5634065,32.3466667 L29.5558065,32.5752 L29.6262581,32.6954667 L31.6344,32.4669333 C31.6652903,32.5232 31.6942839,32.58 31.7202968,32.6368 L29.6595871,32.7608 L29.7118839,32.8826667 L31.7712387,32.7586667 C31.794,32.8154667 31.8143226,32.8722667 31.8319355,32.9290667 L29.7354581,32.9482667 L29.769329,33.0706667 L31.8652645,33.0514667 C31.8793548,33.1088 31.8910065,33.1656 31.8996774,33.2229333 L29.7828774,33.1370667 L29.7980516,33.2589333 L31.9151226,33.3448 C31.9208129,33.4016 31.9235226,33.4584 31.9237935,33.5152 L29.8013032,33.3245333 L29.7977806,33.4448 L31.9208129,33.636 C31.9175613,33.6922667 31.9116,33.748 31.9032,33.8037333 L29.7907355,33.5098667 L29.7687871,33.628 L31.8823355,33.9224 C31.8706839,33.9776 31.8557806,34.0322667 31.8384387,34.0864 L29.7514452,33.6917333 L29.711071,33.8074667 L31.7975226,34.2021333 C31.776929,34.2557333 31.7541677,34.3088 31.7286968,34.3616 L29.6842452,33.8688 L29.6254452,33.9802667 L31.6690839,34.4730667 C31.6403613,34.5250667 31.6086581,34.5762667 31.5745161,34.6261333 L29.5883226,34.0392 L29.5116387,34.1458667 L31.4975613,34.7333333 C31.4601677,34.7829333 31.4203355,34.8312 31.3780645,34.8792 L29.4653032,34.2021333 L29.3712774,34.3032 L31.2845806,34.9808 C31.2390581,35.0277333 31.1913677,35.0736 31.1409677,35.1184 L29.316,34.3565333 L29.2054452,34.4512 L31.0306839,35.2136 C30.9778452,35.2573333 30.9222968,35.2994667 30.8645806,35.3416 L29.1414968,34.5005333 L29.0152258,34.5885333 L30.7372258,35.4290667 C30.6773419,35.4685333 30.6147484,35.5077333 30.5499871,35.5461333 L28.9431484,34.6336 L28.8022452,34.7133333 L30.4090839,35.6264 C30.3413419,35.6634667 30.2727871,35.6986667 30.2020645,35.7325333 L28.7225806,34.7544 L28.568129,34.8264 L30.0484258,35.8056 C29.9747226,35.8384 29.8996645,35.8696 29.8229806,35.9 L28.4808774,34.8624 L28.3139613,34.9253333 L29.6552516,35.9624 C29.5758581,35.9904 29.4951097,36.0181333 29.4132774,36.0437333 L28.2204774,34.9573333 L28.0424516,35.0104 L29.2344387,36.0968 C29.1501677,36.1213333 29.0645419,36.1437333 28.9775613,36.1650667 L27.9435484,35.0370667 L27.7554968,35.0802667 L28.7895097,36.2082667 C28.7006323,36.228 28.610671,36.2458667 28.5198968,36.2624 L27.6514452,35.1010667 L27.4549935,35.1344 L28.3234452,36.2962667 C28.2305032,36.3109333 28.1370194,36.3234667 28.0429935,36.3352 L27.3471484,35.1498667 L27.1439226,35.1728 L27.8394968,36.3586667 C27.7438452,36.368 27.6476516,36.3762667 27.5506452,36.3837333 L27.0322839,35.1826667 L26.8236387,35.1952 L27.3414581,36.3952 C27.2433677,36.4 27.1450065,36.4029333 27.0463742,36.4050667 L26.7098323,35.1989333 L26.4973935,35.2010667 L26.8333935,36.4066667 C26.7339484,36.4061333 26.6342323,36.4050667 26.5342452,36.4018667 L26.3816903,35.1992 L26.1670839,35.1898667 L26.3193677,36.3930667 C26.2191097,36.3877333 26.1188516,36.3810667 26.0183226,36.3733333 L26.0511097,35.1826667 L25.8362323,35.1634667 L25.8031742,36.3546667 C25.7029161,36.3448 25.6026581,36.3328 25.5024,36.3202667 L25.7199871,35.1498667 L25.5061935,35.1202667 L25.2877935,36.2917333 C25.1880774,36.2765333 25.0889032,36.26 24.989729,36.2421333 L25.3907613,35.1016 L25.1796774,35.0616 L24.7781032,36.2021333 C24.6800129,36.1829333 24.5819226,36.1621333 24.4849161,36.1397333 L25.0664129,35.0370667 L24.8593935,34.9869333 L24.2778968,36.0890667 C24.1819742,36.0650667 24.0863226,36.0394667 23.9914839,36.0125333 L24.7491097,34.9578667 L24.5480516,34.8978667 L23.7901548,35.9530667 C23.6972129,35.9250667 23.6050839,35.8946667 23.5134968,35.8634667 L24.4415613,34.8634667 L24.2480903,34.7946667 L23.3194839,35.7952 C23.2303355,35.7624 23.141729,35.728 23.0542065,35.6930667 L24.1456645,34.7554667 L23.9608645,34.6778667 L22.8688645,35.616 C22.7840516,35.5794667 22.7000516,35.5416 22.6171355,35.5024 L23.8638581,34.6341333 L23.6896258,34.5493333 L22.4434452,35.4165333 C22.3635097,35.3765333 22.284929,35.3346667 22.2071613,35.292 L23.5983097,34.5013333 L23.435729,34.4090667 L22.0445806,35.1992 C21.9695226,35.1554667 21.8963613,35.1106667 21.8253677,35.0653333 L23.3514581,34.3570667 L23.2016129,34.2581333 L21.6744387,34.9664 C21.6053419,34.9194667 21.5386839,34.8717333 21.4741935,34.8237333 L23.1243871,34.2029333 L22.9886323,34.0981333 L21.3387097,34.7184 C21.2766581,34.6682667 21.2165032,34.6184 21.1587871,34.568 L22.9192645,34.04 L22.7986839,33.9301333 L21.0387484,34.4578667 C20.9837419,34.4058667 20.9311742,34.3530667 20.8807742,34.3005333 L22.7377161,33.8698667 L22.6331226,33.7557333 L20.7759097,34.1858667 C20.7284903,34.1322667 20.6837806,34.0781333 20.6412387,34.0234667 L22.5808258,33.6928 L22.4930323,33.5752 L20.5529032,33.9058667 C20.5136129,33.8506667 20.4770323,33.7949333 20.4426194,33.7392 L22.4502194,33.5112 L22.3797677,33.3909333 L20.3716258,33.6189333 C20.3404645,33.5626667 20.3117419,33.5064 20.285729,33.4496 L22.3461677,33.3256 L22.293871,33.2042667 L20.2342452,33.3277333 C20.2117548,33.2709333 20.1914323,33.2141333 20.1738194,33.1568 L22.2702968,33.1381333 L22.2364258,33.0157333 L20.1407613,33.0344 C20.126671,32.9776 20.1150194,32.9202667 20.1063484,32.8634667 L22.2231484,32.9493333 L22.2077032,32.8274667 L20.0909032,32.7416 C20.0852129,32.6842667 20.0827742,32.628 20.0825032,32.5712 L22.2047226,32.7618667 L22.2082452,32.6416 L20.0852129,32.4504 C20.0887355,32.3941333 20.0946968,32.3384 20.1028258,32.2826667 L22.2150194,32.5765333 L22.2369677,32.4584 L20.1234194,32.164 C20.1353419,32.1088 20.1502452,32.0541333 20.1673161,32 L22.2540387,32.3946667 L22.2944129,32.2794667 L20.2079613,31.8842667 C20.2285548,31.8306667 20.2515871,31.7776 20.277329,31.7248 L22.3215097,32.2181333 L22.3803097,32.1061333 L20.336671,31.6133333 C20.3656645,31.5618667 20.3973677,31.5101333 20.4315097,31.4597333 L22.4174323,32.0472 L22.4941161,31.9405333 L20.5084645,31.3530667 C20.5458581,31.304 20.5856903,31.2552 20.6279613,31.2072 L22.5404516,31.8842667 L22.6344774,31.7826667 L20.7211742,31.1056 C20.7666968,31.0586667 20.8146581,31.0133333 20.8647871,30.968 L22.6894839,31.7298667 L22.8000387,31.6352 L20.975071,30.8728 C21.0281806,30.8296 21.0831871,30.7869333 21.1411742,30.7448 L22.8639871,31.5858667 L22.9899871,31.4978667 L21.2682581,30.6578667 C21.3286839,30.6178667 21.3910065,30.5781333 21.4560387,30.5402667 L23.0626065,31.4528 L23.2035097,31.3730667 L21.5980258,30.4594667 Z" id="Shape"></path>
                            <path d="M23.688271,34.3584 C25.1623355,35.1965333 27.4008,35.2874667 28.6776,34.5621333 C29.954671,33.8365333 29.7937161,32.5648 28.3196516,31.7272 C26.8450452,30.8896 24.6068516,30.7981333 23.3297806,31.5234667 C22.0527097,32.2488 22.2136645,33.5208 23.688271,34.3584 Z M23.4923613,31.6162667 C24.6916645,30.9344 26.7938323,31.0205333 28.1787484,31.8074667 C29.5633935,32.5938667 29.7143226,33.7888 28.5150194,34.4698667 C27.3157161,35.1509333 25.2135484,35.0650667 23.8289032,34.2786667 C22.4442581,33.4917333 22.2930581,32.2973333 23.4923613,31.6162667 Z" id="Shape"></path>
                            <path d="M61.9573161,12.6146667 C59.3950452,11.1584 55.5053032,11 53.2863484,12.2605333 C51.0673935,13.5216 51.3467613,15.732 53.9090323,17.1877333 C56.4713032,18.6434667 60.3610452,18.8024 62.58,17.5413333 C64.7989548,16.2802667 64.5195871,14.0704 61.9573161,12.6146667 Z M62.3391097,17.4837333 C62.2713677,17.5208 62.2028129,17.5565333 62.1320903,17.5904 L60.6523355,16.6122667 L60.4981548,16.6837333 L61.9787226,17.6629333 C61.9047484,17.6957333 61.8296903,17.7269333 61.7532774,17.7573333 L60.4111742,16.7202667 L60.244529,16.7832 L61.5855484,17.8197333 C61.5061548,17.8482667 61.4256774,17.8754667 61.3435742,17.9016 L60.1510452,16.8146667 L59.9730194,16.8682667 L61.1647355,17.9541333 C61.0804645,17.9786667 60.9948387,18.0010667 60.908129,18.0224 L59.8741161,16.8944 L59.6860645,16.9381333 L60.7200774,18.0661333 C60.6312,18.0853333 60.5415097,18.1037333 60.4504645,18.1197333 L59.5820129,16.9586667 L59.3855613,16.992 L60.2540129,18.1533333 C60.161071,18.168 60.0675871,18.1810667 59.9735613,18.1928 L59.2777161,17.0069333 L59.0744903,17.0304 L59.7700645,18.2157333 C59.6744129,18.2256 59.5782194,18.2338667 59.4812129,18.2408 L58.9625806,17.04 L58.7539355,17.0525333 L59.2714839,18.2525333 C59.1736645,18.2573333 59.0750323,18.2608 58.976671,18.2629333 L58.640129,17.0568 L58.4276903,17.0584 L58.7636903,18.2645333 C58.6642452,18.264 58.5648,18.2629333 58.4645419,18.2597333 L58.3119871,17.0565333 L58.0973806,17.0477333 L58.2496645,18.2509333 C58.1494065,18.2456 58.0488774,18.2389333 57.9486194,18.2312 L57.9811355,17.04 L57.7662581,17.0208 L57.7332,18.212 C57.6329419,18.2021333 57.5326839,18.1906667 57.4324258,18.1776 L57.6502839,17.0077333 L57.4364903,16.9781333 L57.2180903,18.1490667 C57.1186452,18.1338667 57.0192,18.1178667 56.9197548,18.1 L57.3210581,16.9589333 L57.1099742,16.9194667 L56.7084,18.06 C56.6105806,18.0402667 56.5122194,18.0194667 56.4152129,17.9976 L56.9967097,16.8949333 L56.7896903,16.8448 L56.2081935,17.9469333 C56.112271,17.9229333 56.0166194,17.8973333 55.9217806,17.8704 L56.6796774,16.8152 L56.4786194,16.7557333 L55.7204516,17.8109333 C55.6275097,17.7824 55.5353806,17.7525333 55.4437935,17.7213333 L56.3718581,16.7208 L56.1783871,16.6525333 L55.2497806,17.6530667 C55.1603613,17.6202667 55.0720258,17.5858667 54.9845032,17.5504 L56.0759613,16.6128 L55.8911613,16.5357333 L54.7991613,17.4738667 C54.7143484,17.4368 54.6303484,17.3989333 54.5474323,17.3597333 L55.7941548,16.492 L55.6199226,16.4072 L54.3737419,17.2738667 C54.2938065,17.2338667 54.2152258,17.1925333 54.1374581,17.1493333 L55.5288774,16.3586667 L55.3665677,16.2666667 L53.9754194,17.0573333 C53.9003613,17.0130667 53.8272,16.9682667 53.7559355,16.9229333 L55.2820258,16.2152 L55.1321806,16.1162667 L53.6050065,16.8245333 C53.5359097,16.7776 53.4692516,16.7298667 53.4047613,16.6818667 L55.0549548,16.0610667 L54.919471,15.9557333 L53.2692774,16.576 C53.2072258,16.5264 53.147071,16.476 53.0893548,16.4256 L54.8498323,15.8978667 L54.7292516,15.788 L52.9693161,16.3152 C52.9143097,16.2632 52.8620129,16.2109333 52.8116129,16.1584 L54.6685548,15.7272 L54.5639613,15.6130667 L52.7067484,16.0437333 C52.659329,15.9896 52.6146194,15.9354667 52.5720774,15.8808 L54.5113935,15.5506667 L54.423871,15.4330667 L52.4837419,15.7637333 C52.4444516,15.7085333 52.407871,15.6528 52.3734581,15.5970667 L54.3810581,15.3685333 L54.3106065,15.2488 L52.3024645,15.4768 C52.2715742,15.4205333 52.2425806,15.3637333 52.2168387,15.3074667 L54.2772774,15.1834667 L54.2252516,15.0616 L52.1653548,15.1856 C52.1431355,15.1288 52.1228129,15.0714667 52.104929,15.0146667 L54.2014065,14.996 L54.1672645,14.8736 L52.0716,14.8922667 C52.0577806,14.8349333 52.0458581,14.7781333 52.0371871,14.7208 L54.1542581,14.8072 L54.1385419,14.6853333 L52.0217419,14.5989333 C52.0160516,14.5421333 52.0133419,14.4853333 52.0133419,14.4290667 L54.1352903,14.6197333 L54.1388129,14.4989333 L52.0157806,14.3082667 C52.0193032,14.252 52.0252645,14.1957333 52.0333935,14.14 L54.1455871,14.4344 L54.1675355,14.3162667 L52.0539871,14.0216 C52.0659097,13.9669333 52.0808129,13.9122667 52.0978839,13.8576 L54.1846065,14.2528 L54.2249806,14.1370667 L52.138529,13.7418667 C52.1591226,13.6882667 52.1821548,13.6352 52.2078968,13.5824 L54.2520774,14.0757333 L54.3111484,13.9642667 L52.2672387,13.4709333 C52.2962323,13.4194667 52.3279355,13.3682667 52.3620774,13.3178667 L54.347729,13.9053333 L54.4244129,13.7981333 L52.4387613,13.2106667 C52.4761548,13.1616 52.5159871,13.1133333 52.5582581,13.0648 L54.4707484,13.7418667 L54.5647742,13.6408 L52.651471,12.9632 C52.6969935,12.9168 52.7452258,12.8709333 52.7950839,12.8256 L54.6195097,13.588 L54.7300645,13.4928 L52.9050968,12.7309333 C52.9582065,12.6872 53.0132129,12.6445333 53.0712,12.6029333 L54.7940129,13.4434667 L54.9200129,13.356 L53.1982839,12.5154667 C53.2587097,12.476 53.3210323,12.4362667 53.3857935,12.3978667 L54.9923613,13.3109333 L55.1332645,13.2306667 L53.5266968,12.3181333 C53.5938968,12.2810667 53.6627226,12.2461333 53.7331742,12.212 L55.212929,13.1901333 L55.3673806,13.1181333 L53.8870839,12.1389333 C53.9607871,12.1061333 54.0355742,12.0749333 54.1119871,12.0450667 L55.4540903,13.0816 L55.6210065,13.0186667 L54.2799871,11.9821333 C54.3591097,11.9541333 54.4395871,11.9264 54.5214194,11.9008 L55.7144903,12.9872 L55.8925161,12.9341333 L54.7008,11.8477333 C54.785071,11.8232 54.8704258,11.8008 54.9568645,11.7794667 L55.9914194,12.9074667 L56.179471,12.8642667 L55.1454581,11.7357333 C55.2343355,11.7165333 55.3240258,11.6986667 55.414529,11.6821333 L56.2835226,12.8434667 L56.4799742,12.8101333 L55.6115226,11.6482667 C55.7041935,11.6336 55.7976774,11.6210667 55.8914323,11.6093333 L56.5878194,12.7946667 L56.7910452,12.7717333 L56.095471,11.5858667 C56.1911226,11.5765333 56.2873161,11.5682667 56.3837806,11.5608 L56.9026839,12.7618667 L57.111329,12.7493333 L56.5937806,11.5493333 C56.691329,11.5445333 56.7896903,11.5410667 56.8883226,11.5389333 L57.2251355,12.7450667 L57.4375742,12.7434667 L57.1015742,11.5378667 C57.2007484,11.5378667 57.3001935,11.5394667 57.4004516,11.5426667 L57.5530065,12.7453333 L57.7676129,12.7541333 L57.615329,11.5514667 C57.7155871,11.5562667 57.8155742,11.5629333 57.9158323,11.5712 L57.8838581,12.7618667 L58.0987355,12.7810667 L58.1315226,11.5898667 C58.2317806,11.5997333 58.3320387,11.6112 58.4317548,11.6242667 L58.2147097,12.7946667 L58.4287742,12.8242667 L58.6469032,11.6528 C58.7463484,11.668 58.8452516,11.684 58.9446968,11.7018667 L58.5439355,12.8429333 L58.7550194,12.8829333 L59.1563226,11.7418667 C59.2544129,11.7616 59.3522323,11.7824 59.4492387,11.8042667 L58.8680129,12.9074667 L59.0750323,12.9570667 L59.656529,11.8549333 C59.7524516,11.8789333 59.8475613,11.9045333 59.9424,11.9314667 L59.1850452,12.9866667 L59.3861032,13.0461333 L60.144,11.9909333 C60.2372129,12.0194667 60.3293419,12.0493333 60.4206581,12.0805333 L59.4928645,13.0810667 L59.6866065,13.1498667 L60.6149419,12.1493333 C60.7043613,12.1821333 60.7924258,12.216 60.8799484,12.2509333 L59.7890323,13.1890667 L59.9738323,13.2661333 L61.0658323,12.328 C61.1506452,12.3650667 61.2341032,12.4029333 61.3170194,12.4421333 L60.0708387,13.3104 L60.245071,13.3952 L61.4909806,12.528 C61.5709161,12.568 61.6494968,12.6093333 61.7269935,12.6525333 L60.3361161,13.4432 L60.4989677,13.5354667 L61.8901161,12.7448 C61.9651742,12.7890667 62.0383355,12.8338667 62.1090581,12.8792 L60.5835097,13.5874667 L60.7333548,13.6864 L62.2608,12.9776 C62.3293548,13.0250667 62.3962839,13.0722667 62.4605032,13.1202667 L60.8105806,13.7416 L60.9463355,13.8464 L62.5962581,13.2261333 C62.6583097,13.2757333 62.7181935,13.3261333 62.7761806,13.3765333 L61.0154323,13.9042667 L61.1360129,14.0146667 L62.8962194,13.4869333 C62.9512258,13.5389333 63.0035226,13.5912 63.0539226,13.6437333 L61.1969806,14.0749333 L61.3015742,14.1890667 L63.1587871,13.7584 C63.2062065,13.8125333 63.2509161,13.8666667 63.2934581,13.9208 L61.3541419,14.252 L61.4416645,14.3696 L63.3817935,14.0384 C63.4213548,14.0936 63.4576645,14.1493333 63.4920774,14.2050667 L61.4844774,14.4336 L61.554929,14.5538667 L63.563071,14.3253333 C63.5939613,14.3816 63.6229548,14.4384 63.6489677,14.4946667 L61.5882581,14.6192 L61.6402839,14.7405333 L63.6999097,14.6165333 C63.722671,14.6733333 63.7429935,14.7306667 63.7606065,14.7874667 L61.664129,14.8066667 L61.698271,14.9290667 L63.7939355,14.9098667 C63.8080258,14.9672 63.8196774,15.024 63.8283484,15.0808 L61.7112774,14.9949333 L61.7267226,15.1168 L63.8437935,15.2032 C63.8494839,15.26 63.8519226,15.3168 63.8524645,15.3730667 L61.7299742,15.1824 L61.7264516,15.3032 L63.8497548,15.4938667 C63.8462323,15.5501333 63.8405419,15.6064 63.8321419,15.6621333 L61.7196774,15.3682667 L61.697729,15.4864 L63.8112774,15.7808 C63.7996258,15.8354667 63.7847226,15.8901333 63.7676516,15.9448 L61.6806581,15.5501333 L61.6402839,15.6653333 L63.7267355,16.0605333 C63.7061419,16.1141333 63.6833806,16.1672 63.6579097,16.22 L61.6131871,15.7266667 L61.5543871,15.8386667 L63.5980258,16.3314667 C63.5693032,16.3829333 63.5376,16.4341333 63.5034581,16.4845333 L61.5175355,15.8970667 L61.4408516,16.0042667 L63.4267742,16.5917333 C63.3893806,16.6408 63.3495484,16.6890667 63.3072774,16.7376 L61.3945161,16.0605333 L61.3004903,16.1616 L63.2137935,16.8392 C63.168271,16.8856 63.1205806,16.9314667 63.0704516,16.9768 L61.2457548,16.2149333 L61.1352,16.3096 L62.9604387,17.072 C62.9076,17.1152 62.8520516,17.1578667 62.7943355,17.1997333 L61.0712516,16.3592 L60.9449806,16.4466667 L62.6667097,17.2872 C62.6068258,17.3272 62.5445032,17.3664 62.4797419,17.4048 L60.8726323,16.4917333 L60.731729,16.572 L62.3391097,17.4837333 Z" id="Shape"></path>
                            <path d="M60.2491355,13.5853333 C58.7748,12.7472 56.5363355,12.6562667 55.2595355,13.3816 C53.9824645,14.1072 54.1434194,15.3784 55.6177548,16.2165333 C57.0918194,17.0541333 59.3302839,17.1456 60.6070839,16.4202667 C61.8841548,15.6946667 61.7232,14.4229333 60.2491355,13.5853333 Z M60.4445032,16.3277333 C59.244929,17.0096 57.1427613,16.9234667 55.7583871,16.1365333 C54.373471,15.3501333 54.2225419,14.1552 55.4218452,13.4741333 C56.6211484,12.7930667 58.7233161,12.8789333 60.1082323,13.6653333 C61.4928774,14.452 61.6438065,15.6464 60.4445032,16.3277333 Z" id="Shape"></path>
                            <path d="M13.7299355,27.9208 C15.4825548,29.6682667 15.7367226,31.6802667 14.4097935,33.3021333 L14.2848774,33.4541333 L25.2793935,39.7010667 L25.5479226,39.6301333 C28.4022968,38.876 31.9427613,39.0208 35.0182452,40.0165333 L35.3073677,40.1104 L44.7069677,34.7698667 L44.057729,34.3994667 L35.0664774,39.5082667 C31.9013032,38.5426667 28.3220903,38.3962667 25.3696258,39.1130667 L15.3207871,33.4032 C16.5807871,31.7256 16.3239097,29.6917333 14.6244,27.8933333 L23.6506065,22.7653333 L23.0013677,22.3949333 L13.5646452,27.7568 L13.7299355,27.9208 Z" id="Shape"></path>
                            <path d="M70.2072,20.0229333 C68.4545806,18.2754667 68.2004129,16.2634667 69.5273419,14.6416 L69.6522581,14.4896 L58.6577419,8.24266667 L58.3894839,8.3136 C55.5348387,9.0672 51.9946452,8.92293333 48.9191613,7.9272 L48.6300387,7.83333333 L40.1598581,12.6458667 L40.7931097,13.0250667 L48.8706581,8.43546667 C52.0355613,9.40106667 55.6150452,9.54746667 58.5675097,8.83066667 L68.6163484,14.5405333 C67.3563484,16.2181333 67.6129548,18.252 69.3124645,20.0504 L60.7024645,24.9421333 L61.3359871,25.3213333 L70.3722194,20.1869333 L70.2072,20.0229333 Z" id="Shape"></path>
                            <path d="M35.8945548,42.64 L35.4881032,42.4093333 C32.5901032,40.7629333 28.190671,40.5832 25.6809677,42.0093333 L25.3289806,42.2093333 L9.87054194,33.4258667 L10.222529,33.2258667 C12.7322323,31.8002667 12.4162839,29.3002667 9.51828387,27.6538667 L9.11183226,27.4226667 L20.4859742,20.9602667 L18.2662065,19.6946667 L0.0593419355,30.04 L31.2889161,47.7837333 L49.4424,37.4696 L47.2226323,36.204 L35.8945548,42.64 Z M7.74940645,32.2208 L4.20867097,30.2088 L7.27494194,28.4666667 C9.23024516,29.5781333 9.44295484,31.2589333 7.74940645,32.2208 Z M30.9908516,45.4266667 L27.4501161,43.4146667 C29.1436645,42.4528 32.1018194,42.5730667 34.0571226,43.6845333 L30.9908516,45.4266667 Z" id="Shape"></path>
                            <path d="M52.6482194,0.16 L35.5395871,9.88026667 L37.7051613,11.1770667 L48.0423097,5.3032 L48.4487613,5.53386667 C51.3467613,7.1808 55.7461935,7.36053333 58.2558968,5.93386667 L58.6078839,5.73386667 L74.0660516,14.5176 L73.7140645,14.7176 C71.2043613,16.1432 71.5203097,18.6432 74.4183097,20.2896 L74.8247613,20.5208 L63.789871,26.7906667 L65.9554452,28.0869333 L83.8775226,17.9034667 L52.6482194,0.16 Z M49.8797419,4.25946667 L52.9457419,2.51733333 L56.4864774,4.5288 C54.7932,5.4912 51.8353161,5.37093333 49.8797419,4.25946667 Z M76.187729,15.7229333 L79.7284645,17.7344 L76.6621935,19.4770667 C74.7066194,18.3656 74.4941806,16.6848 76.187729,15.7229333 Z" id="Shape"></path>
                        </g>
                        <g id="Group" transform="translate(0.000000, 9.000000)">
                            <polygon id="Shape" points="65.9053161 18.9476355 65.9053161 20.0725616 83.8935097 9.6837931 83.8935097 8.55940887"></polygon>
                            <polygon id="Shape" points="0.0425419355 20.9780296 0.0425419355 22.1213793 31.1835097 40.1256158 49.4424 29.5802463 49.4424 28.4545074 31.1837806 38.9987931"></polygon>
                            <polygon id="Shape" points="0.0425419355 22.820936 0.0425419355 23.9645567 31.1835097 41.9685222 49.4424 31.4236946 49.4424 30.2982266 31.1837806 40.8419704"></polygon>
                            <polygon id="Shape" points="65.9053161 21.9157389 83.8935097 11.5269704 83.8935097 10.4028571 65.9053161 20.7905419"></polygon>
                            <polygon id="Shape" points="65.9053161 23.7586453 83.8935097 13.3701478 83.8935097 12.2460345 65.9053161 22.6337192"></polygon>
                            <polygon id="Shape" points="0.0425419355 24.6641133 0.0425419355 25.8082759 31.1835097 43.8122414 49.4424 33.2668719 49.4424 32.1414039 31.1837806 42.6856897"></polygon>
                            <polygon id="Shape" points="0.0425419355 26.5078325 0.0425419355 27.6514532 31.1835097 45.6554187 49.4424 35.1100493 49.4424 33.9845813 31.1837806 44.528867"></polygon>
                            <polygon id="Shape" points="65.9053161 25.6023645 83.8935097 15.2130542 83.8935097 14.0892118 65.9053161 24.4774384"></polygon>
                            <polygon id="Shape" points="0.0425419355 28.3510099 0.0425419355 29.4943596 31.1835097 47.4985961 49.4424 36.9532266 49.4424 35.8274877 31.1837806 46.3717734"></polygon>
                            <polygon id="Shape" points="65.9053161 27.4455419 83.8935097 17.0567734 83.8935097 15.9323892 65.9053161 26.3203448"></polygon>
                            <polygon id="Shape" points="65.9053161 29.2887192 83.8935097 18.8999507 83.8935097 17.7758374 65.9053161 28.164064"></polygon>
                            <polygon id="Shape" points="0.0425419355 30.1944581 0.0425419355 31.3375369 31.1835097 49.3415025 49.4424 38.7966749 49.4424 37.6712069 31.1837806 48.2149507"></polygon>
                            <polygon id="Shape" points="0.0425419355 32.0376355 0.0425419355 33.1812562 31.1835097 51.1852217 49.4424 40.6398522 49.4424 39.5143842 31.1837806 50.05867"></polygon>
                            <polygon id="Shape" points="65.9053161 31.1316256 83.8935097 20.7431281 83.8935097 19.6190148 65.9053161 30.0072414"></polygon>
                            <polygon id="Shape" points="0.0425419355 33.8808128 0.0425419355 35.0241626 31.1835097 53.028399 49.4424 42.4835714 49.4424 41.3578325 31.1837806 51.9015764"></polygon>
                            <polygon id="Shape" points="65.9053161 32.9753448 83.8935097 22.5860345 83.8935097 21.4621921 65.9053161 31.8504187"></polygon>
                            <polygon id="Shape" points="0.0425419355 35.7239901 0.0425419355 36.8673399 31.1835097 54.8713054 49.4424 44.3264778 49.4424 43.2010099 31.1837806 53.7452956"></polygon>
                            <polygon id="Shape" points="65.9053161 34.8185222 83.8935097 24.4297537 83.8935097 23.3053695 65.9053161 33.6933251"></polygon>
                            <path d="M34.6819742,0.249261084 L19.2059226,9.28741379 L19.2593032,9.25625616 L18.8799484,9.47110837 L19.1750323,9.64830049 L19.2037548,9.66564039 L49.9721419,27.5647537 L49.9721419,44.1468473 L49.9721419,44.2733744 L50.0816129,44.4597783 L50.2973032,44.3332512 L65.3137935,35.512931 L65.5809677,35.35633 L65.5777161,35.3509113 L65.6389548,35.3127094 L65.6389548,18.6878079 L65.6389548,18.6349754 L34.9548387,0.0869704433 L34.6819742,0.249261084 Z M50.2975742,43.9561084 L50.2975742,27.5135468 L65.3140645,18.9695813 L65.3140645,35.13633 L50.2975742,43.9561084 Z M50.0916387,27.2575123 L19.5229548,9.47842365 L34.9551097,0.46546798 L65.201071,18.6588177 L50.0916387,27.2575123 Z" id="Shape"></path>
                        </g>
                        <path d="M60.6230762,36.8894432 C60.5277345,36.4097105 60.2282023,36.0804454 60.0210988,35.8829399 C60.7499338,35.474833 61.4787688,35.0664588 62.2076038,34.6588864 C62.4798576,34.1096659 62.7589971,33.5636526 63,33 C60.2639555,34.5314031 57.5281759,36.0630735 54.7923962,37.5944766 C54.5201424,38.1436971 54.2410029,38.690245 54,39.253363 C56.0628255,38.0418708 58.1147927,36.8485523 58.6902863,37.9707795 C57.3909896,38.6979955 56.0916929,39.4254788 54.7923962,40.1526949 C54.5792014,40.5388864 54.3453491,41.0432071 54.1583733,41.4352784 C54.0990495,41.55902 53.9671601,41.7485078 54.0315158,41.7939421 C55.6478239,40.9106459 57.3483506,39.8945212 58.9116911,39.0940757 C58.6524144,41.2206682 56.7429303,42.7600891 54.4436042,43.8657461 C54.371833,44.2276169 54.4316864,44.6493541 54.4120884,45.0350111 C55.7198599,45.9161693 57.2821411,46.8457016 58.6585057,47.7426281 C58.7583498,47.8073051 58.8905041,47.9195546 59.0170968,48 L61.0306624,46.8734967 C60.9482977,46.6783964 60.7419886,46.6000891 60.5915605,46.5004009 C59.5870288,45.8370601 58.5946797,45.171314 57.6129241,44.5221381 C57.2143425,44.2591537 56.781067,44.0172829 56.4720007,43.6257461 C58.8327693,42.1924276 60.2282023,40.325078 60.7181532,38.0509577 C61.1863873,37.7890423 61.6546214,37.5268597 62.1225907,37.2649443 L62.9136627,35.6071269 C62.1501339,36.0344766 61.3866051,36.4620935 60.6230762,36.8894432 Z" id="Shape"></path>
                    </g>
                </g>
            </g>
        </g>
    </g>
</svg>