<svg xmlns="http://www.w3.org/2000/svg" xmlns:xlink="http://www.w3.org/1999/xlink" width="96" height="165" viewBox="0 0 96 165"><svg width="96" height="93" viewBox="0 0 96 93" id="mindshow-circles" y="0"><title>Group 7</title><g transform="translate(3 3)" fill="none" fill-rule="evenodd"><path d="M29.572.38C12.747 6.642.762 22.848.762 41.853.762 66.285 20.568 86.091 45 86.091s44.238-19.806 44.238-44.238c0-19.305-12.367-35.722-29.61-41.762" stroke="#D7D7D7" stroke-width="6" stroke-linecap="round" opacity=".543"></path><g transform="translate(16 37)"><circle fill="#88C339" cx="37" cy="5" r="5"></circle><circle fill="#A0CFC4" cx="29" cy="19" r="5"></circle><circle fill="#B29CCC" cx="53" cy="5" r="5"></circle><circle fill="#7BC8EB" cx="45" cy="19" r="5"></circle><circle fill="#F3B200" cx="21" cy="5" r="5"></circle><circle fill="#B29CCC" cx="13" cy="19" r="5"></circle><circle fill="#F4887F" cx="5" cy="5" r="5"></circle></g></g></svg><svg width="72" height="72" viewBox="114 49 72 72" id="play-btn" y="93"><path d="M150 121c-19.882 0-36-16.118-36-36s16.118-36 36-36 36 16.118 36 36-16.118 36-36 36zm-12-46.564v22.128c0 4.404 3.097 6.2 6.918 3.995l19.164-11.065c3.813-2.202 3.82-5.782 0-7.988l-19.164-11.065c-3.813-2.201-6.918-.417-6.918 3.995z" fill="#FFF" fill-rule="evenodd"></path></svg></svg>