<?xml version="1.0" encoding="UTF-8"?>
<svg width="86px" height="20px" viewBox="0 0 86 20" version="1.1" xmlns="http://www.w3.org/2000/svg" xmlns:xlink="http://www.w3.org/1999/xlink">
    <!-- Generator: Sketch 49.1 (51147) - http://www.bohemiancoding.com/sketch -->
    <title>Fractory.in logo</title>
    <desc>Created with Sketch.</desc>
    <defs></defs>
    <g id="Page-1" stroke="none" stroke-width="1" fill="none" fill-rule="evenodd">
        <g id="Fractory.in-logo" fill="#31383A" fill-rule="nonzero">
            <g id="Layer_1">
                <path d="M29.4839084,6.63402672 C30.2884818,6.63402672 31.0168862,6.95030948 31.5441084,7.46165259 L33.0879538,5.96438621 C32.1656231,5.06985776 30.8913796,4.51658534 29.4839093,4.51658534 C26.6689813,4.51658534 24.3869911,6.72969397 24.3869911,9.45970172 C24.3869911,12.1897095 26.6689813,14.4028336 29.4839093,14.4028336 C30.8913804,14.4028336 32.1656231,13.8495603 33.0879538,12.9550328 L31.5441084,11.4577716 C31.0168871,11.9691095 30.2884827,12.2853819 29.4839084,12.2853819 C27.8747884,12.2853819 26.5703209,11.0202862 26.5703209,9.45970172 C26.5703209,7.89913793 27.8747884,6.63402672 29.4839084,6.63402672 Z" id="XMLID_37_"></path>
                <path d="M20.8550373,5.72066207 C19.8471787,4.98570948 18.783328,4.54027414 17.5296436,4.54027414 C14.7391973,4.54027414 12.4492889,6.74223276 12.4492889,9.44846897 C12.4492889,12.1547207 14.74892,14.3566793 17.5393662,14.3566793 C18.7930498,14.3566793 19.8471787,13.9112388 20.8550373,13.1762914 L20.8550373,14.3236733 L23.0867244,14.3236733 L23.0867244,4.61899828 L20.8550373,4.61899828 L20.8550373,5.72066207 Z M17.6466551,12.5088241 C15.9647244,12.5088241 14.6012151,11.1864552 14.6012151,9.55521724 C14.6012151,7.9239681 15.9647244,6.6016 17.6466551,6.6016 C19.3286453,6.6016 20.692152,7.92396897 20.692152,9.55521724 C20.692152,11.1864552 19.3286462,12.5088241 17.6466551,12.5088241 Z" id="XMLID_20_"></path>
                <path d="M45.961952,4.54495172 C43.1623751,4.54495172 40.8844729,6.75411897 40.8844729,9.46921552 C40.8844729,12.1843224 43.1623751,14.3934948 45.961952,14.3934948 C48.7615724,14.3934948 51.0394151,12.1843224 51.0394151,9.46921552 C51.0394151,6.75411897 48.7615724,4.54495172 45.961952,4.54495172 Z M45.961936,12.5341638 C44.2776044,12.5341638 42.9121369,11.2098957 42.9121369,9.57631552 C42.9121369,7.94271983 44.2776044,6.61846207 45.961936,6.61846207 C47.6463547,6.61846207 49.0118116,7.94271983 49.0118116,9.57631552 C49.0118107,11.2098957 47.6463538,12.5341638 45.961936,12.5341638 Z" id="XMLID_17_"></path>
                <path d="M36.5693902,1.05828621 L34.4096924,1.05828621 L34.4096924,4.52670862 L34.4096924,6.92056034 L34.4096924,10.0197517 C34.4096924,12.9980043 35.7091929,14.393494 38.4711804,14.393494 L38.8605307,14.393494 L40.4568471,14.393494 L40.4568471,12.2291397 L38.4933484,12.2291397 C36.7963707,12.2291397 36.5693902,11.5230259 36.5693902,10.0126216 L36.5693902,6.50407845 L38.4933484,6.50407845 L40.0249076,6.50407845 L40.0249076,6.15028017 L40.0249076,4.86868879 L40.0249076,4.55520517 C40.0249076,4.54809138 36.5693902,4.54809138 36.5693902,4.54809138 L36.5693902,1.05828621 Z" id="XMLID_12_"></path>
                <path d="M56.0943849,4.54917672 C53.412744,4.54917672 52.1588542,6.12154741 52.1588542,8.884825 L52.1588542,14.3934948 L54.3185493,14.3934948 L54.3185493,8.89143879 C54.3185493,7.49005603 54.4683102,6.64371379 56.115896,6.64371379 L57.9900391,6.64371379 L57.9900391,4.54917672 L56.4723849,4.54917672 L56.0943849,4.54917672 Z" id="XMLID_1_"></path>
                <path d="M9.95844622,4.63305776 C7.27680533,4.63305776 6.02291289,6.20542328 6.02291289,8.96870086 L6.02291289,14.4773707 L8.18261067,14.4773707 L8.18261067,8.97531466 C8.18261067,7.5739319 8.33236889,6.72758966 9.97995467,6.72758966 L11.8540978,6.72758966 L11.8540978,4.63305776 L10.336448,4.63305776 L9.95844622,4.63305776 Z" id="XMLID_2_"></path>
                <g id="XMLID_4_">
                    <path d="M0.0139493333,4.0630681 L0.0139493333,14.3934948 L2.26159644,14.3934948 L2.27910133,6.71353017 L5.12523467,6.71353017 L5.12523467,4.54917586 L2.26858489,4.54917586 C2.26858489,4.54917586 2.26902667,4.24696724 2.27910133,4.06599828 C2.307472,3.55596552 2.683248,2.85370345 3.48350489,2.44415172 C3.9568,2.2019319 4.90926578,2.097625 5.84513511,2.10748534 L5.84513511,0.00354580805 C4.18936622,0.000856896552 2.86469333,0.212237931 1.69766222,0.921871552 C1.15762133,1.25025259 0.0139493333,2.27949483 0.0139493333,4.0630681 Z" id="XMLID_5_"></path>
                </g>
                <path d="M65.7997724,4.54917672 L65.7997724,10.0946362 C65.7997724,11.2596552 64.805328,12.2074474 63.6040693,12.2074474 C62.4028213,12.2074474 61.4083769,11.259656 61.4083769,10.0946362 L61.4083769,4.54917672 L59.2486871,4.54917586 L59.2486871,10.0946362 C59.2486871,12.4246586 61.2029298,14.3202422 63.6053387,14.3202422 C64.4060978,14.3202422 65.079872,14.1060086 65.7997724,13.7389034 L65.7997724,15.7590147 C65.7997724,16.9568138 64.575944,17.931219 63.5680773,17.931219 L61.4083769,17.931219 L61.4083769,19.9948276 L63.5680773,19.9948276 C66.0157333,19.9948276 67.9594622,18.0946241 67.9594622,15.7590138 L67.9594622,10.602306 C67.9594622,10.4355172 67.9594622,10.2667603 67.9594622,10.0946353 L67.9594622,4.54917586 L65.7997724,4.54917586 L65.7997724,4.54917672 Z" id="Shape"></path>
            </g>
            <g id="_x2E_in" transform="translate(70.000000, 1.000000)">
                <ellipse id="XMLID_9_" cx="4.91390962" cy="1.3041273" rx="1.19933405" ry="1.22102013"></ellipse>
                <ellipse id="XMLID_7_" cx="1.222176" cy="12.7170629" rx="1.19933146" ry="1.22101748"></ellipse>
                <polygon id="XMLID_6_" points="3.86753557 6.87323396 3.86753557 13.8145537 5.96028281 13.8145537 5.96028281 6.23908855 5.96028281 3.75972818 3.86753557 3.75972818"></polygon>
                <path d="M11.6329021,3.75803497 C9.29542832,3.75803497 7.32517968,5.6602317 7.32517968,7.99836906 L7.32517968,13.8145537 L9.42650984,13.8145537 L9.42650984,7.99836906 C9.42650984,6.82930038 10.3940566,5.8782073 11.5628489,5.8782073 C12.7316411,5.8782073 13.6992086,6.82930038 13.6992086,7.99836906 L13.6992086,13.8145537 L15.9406253,13.8145537 L15.9406253,7.99836906 C15.9406253,5.6602317 13.9703758,3.75803497 11.6329021,3.75803497 Z" id="XMLID_3_"></path>
            </g>
        </g>
    </g>
</svg>