<?xml version="1.0" encoding="UTF-8"?>
<svg width="34px" height="34px" viewBox="0 0 34 34" version="1.1" xmlns="http://www.w3.org/2000/svg" xmlns:xlink="http://www.w3.org/1999/xlink">
    <!-- Generator: Sketch 49.1 (51147) - http://www.bohemiancoding.com/sketch -->
    <title>noun_779821_cc</title>
    <desc>Created with Sketch.</desc>
    <defs></defs>
    <g id="Page-1" stroke="none" stroke-width="1" fill="none" fill-rule="evenodd">
        <g id="noun_779821_cc" transform="translate(1.000000, 1.000000)" fill="#F94B4B" fill-rule="nonzero" stroke="#F94B4B" stroke-width="2">
            <path d="M30.6507166,1.65002667e-15 L21.6412636,1.65002667e-15 C21.4555016,1.65002667e-15 21.2697397,0.139332366 21.1768588,0.325108853 C21.0839778,0.510885341 21.1768588,0.743105951 21.3626207,0.835994194 C22.5700732,1.71843251 23.4524423,3.43686502 23.4524423,4.8766328 C23.4524423,6.92017417 21.5019421,7.66328012 19.8300849,7.66328012 C18.1582276,7.66328012 16.2077274,6.92017417 16.2077274,4.8766328 C16.2077274,3.43686502 17.0900965,1.71843251 18.297549,0.835994194 C18.4368705,0.696661829 18.5297514,0.510885341 18.4833109,0.325108853 C18.4368705,0.139332366 18.2511085,0 18.0189061,0 L9.05589355,0 C8.2664054,0 7.66267916,0.603773585 7.66267916,1.39332366 L7.66267916,9.19593614 C6.54810764,8.2670537 5.06201229,7.61683599 3.71523838,7.61683599 C1.48609535,7.61683599 0,9.42815675 0,12.1683599 C0,14.9085631 1.48609535,16.7198839 3.71523838,16.7198839 C5.06201229,16.7198839 6.54810764,16.1161103 7.66267916,15.1407837 L7.66267916,22.9433962 C7.66267916,23.7329463 8.2664054,24.3367199 9.05589355,24.3367199 L16.8578941,24.3367199 C15.9290846,25.4513788 15.2789178,26.9375907 15.2789178,28.2844702 C15.2789178,30.5137881 17.0900965,32 19.8300849,32 C22.5700732,32 24.3812519,30.5137881 24.3812519,28.2844702 C24.3812519,26.9375907 23.7775256,25.4513788 22.8022756,24.3367199 L30.6042762,24.3367199 C31.3937643,24.3367199 31.9974905,23.7329463 31.9974905,22.9433962 L31.9974905,1.39332366 C32.043931,0.603773585 31.4402048,1.65002667e-15 30.6507166,1.65002667e-15 Z M31.1151214,22.9898403 C31.1151214,23.2685051 30.9293595,23.4542816 30.6507166,23.4542816 L21.6412636,23.4542816 C21.4555016,23.4542816 21.2697397,23.5936139 21.1768588,23.7793904 C21.0839778,23.9651669 21.1768588,24.1973875 21.3626207,24.2902758 C22.5700732,25.1727141 23.4524423,26.8911466 23.4524423,28.3309144 C23.4524423,30.3744557 21.5019421,31.1175617 19.8300849,31.1175617 C18.1582276,31.1175617 16.2077274,30.3744557 16.2077274,28.3309144 C16.2077274,26.8911466 17.0900965,25.1727141 18.297549,24.2902758 C18.4368705,24.1509434 18.5297514,23.9651669 18.4833109,23.7793904 C18.4368705,23.5936139 18.2511085,23.4542816 18.0189061,23.4542816 L9.05589355,23.4542816 C8.77725067,23.4542816 8.59148875,23.2685051 8.59148875,22.9898403 L8.59148875,13.9796807 C8.59148875,13.7939042 8.45216731,13.6081277 8.2664054,13.5152395 C8.21996492,13.5152395 8.17352444,13.5152395 8.12708396,13.5152395 C7.98776252,13.5152395 7.84844108,13.5616836 7.75556012,13.701016 C6.873191,14.9085631 5.15489325,15.7910015 3.71523838,15.7910015 C1.67185727,15.7910015 0.928809595,13.8403483 0.928809595,12.1683599 C0.928809595,10.4963716 1.67185727,8.54571843 3.71523838,8.54571843 C5.15489325,8.54571843 6.873191,9.42815675 7.75556012,10.6357039 C7.89488156,10.7750363 8.08064348,10.8679245 8.2664054,10.8214804 C8.45216731,10.7750363 8.59148875,10.5892598 8.59148875,10.3570392 L8.59148875,1.39332366 C8.59148875,1.11465893 8.77725067,0.928882438 9.05589355,0.928882438 L16.8578941,0.928882438 C15.9290846,2.04354136 15.2789178,3.52975327 15.2789178,4.8766328 C15.2789178,7.10595065 17.0900965,8.59216255 19.8300849,8.59216255 C22.5700732,8.59216255 24.3812519,7.10595065 24.3812519,4.8766328 C24.3812519,3.52975327 23.7775256,2.04354136 22.8022756,0.928882438 L30.6042762,0.928882438 C30.882919,0.928882438 31.068681,1.11465893 31.068681,1.39332366 L31.068681,22.9898403 L31.1151214,22.9898403 Z" id="Shape"></path>
        </g>
    </g>
</svg>