<?xml version="1.0" encoding="UTF-8"?>
<svg width="42px" height="42px" viewBox="0 0 42 42" version="1.1" xmlns="http://www.w3.org/2000/svg" xmlns:xlink="http://www.w3.org/1999/xlink">
    <!-- Generator: Sketch 49.1 (51147) - http://www.bohemiancoding.com/sketch -->
    <title>settings-gear-63</title>
    <desc>Created with Sketch.</desc>
    <defs></defs>
    <g id="Page-1" stroke="none" stroke-width="1" fill="none" fill-rule="evenodd" stroke-linecap="round" stroke-linejoin="round">
        <g id="settings-gear-63" transform="translate(2.000000, 2.000000)" stroke="#F94B4B" stroke-width="3">
            <circle id="Oval" cx="19.5" cy="19.5" r="6.5"></circle>
            <path d="M38,21.5333333 L38,16.4666667 L32.4849333,15.5470667 C32.1586808,14.2679215 31.6510935,13.0420342 30.9776,11.9066667 L34.2278667,7.3568 L30.6432,3.77466667 L26.0933333,7.0224 C24.9579658,6.34890647 23.7320785,5.84131917 22.4529333,5.51506667 L21.5333333,0 L16.4666667,0 L15.5470667,5.51506667 C14.2679215,5.84131917 13.0420342,6.34890647 11.9066667,7.0224 L7.3568,3.77466667 L3.77466667,7.3568 L7.0224,11.9066667 C6.34890647,13.0420342 5.84131917,14.2679215 5.51506667,15.5470667 L0,16.4666667 L0,21.5333333 L5.51506667,22.4529333 C5.84693333,23.75 6.35613333,24.9710667 7.0224,26.0933333 L3.77466667,30.6432 L7.3568,34.2253333 L11.9066667,30.9776 C13.0289333,31.6438667 14.25,32.1530667 15.5470667,32.4849333 L16.4666667,38 L21.5333333,38 L22.4529333,32.4849333 C23.7320785,32.1586808 24.9579658,31.6510935 26.0933333,30.9776 L30.6432,34.2278667 L34.2253333,30.6457333 L30.9776,26.0933333 C31.6438667,24.9710667 32.1530667,23.75 32.4849333,22.4529333 L38,21.5333333 Z" id="Shape"></path>
        </g>
    </g>
</svg>