<?xml version="1.0" encoding="UTF-8"?>
<svg width="26px" height="40px" viewBox="0 0 26 40" version="1.1" xmlns="http://www.w3.org/2000/svg" xmlns:xlink="http://www.w3.org/1999/xlink">
    <!-- Generator: Sketch 49.1 (51147) - http://www.bohemiancoding.com/sketch -->
    <title>wrench</title>
    <desc>Created with Sketch.</desc>
    <defs></defs>
    <g id="Page-1" stroke="none" stroke-width="1" fill="none" fill-rule="evenodd">
        <g id="wrench" transform="translate(1.000000, 1.000000)" stroke="#F94B4B">
            <g id="noun_254065_cc">
                <path d="M6.04580153,7.80698054 L6.04580153,1.61236408 C2.93129771,3.63135019 1.09923664,7.02691772 1.09923664,10.7436876 C1.09923664,13.8639388 2.47328244,16.846532 4.80916031,18.9114041 C6.36641221,20.2879855 7.23664122,22.2151996 7.23664122,24.1882996 L7.23664122,37.4493674 C7.23664122,37.7705698 7.00763359,38 6.6870229,38 C6.36641221,38 6.13740458,37.7705698 6.13740458,37.4493674 L6.13740458,24.1882996 C6.13740458,22.4905158 5.40458015,20.8845042 4.07633588,19.737353 C1.46564885,17.4430506 0,14.1851412 0,10.7436876 C0,6.5221712 2.19847328,2.66774318 5.81679389,0.465212886 C6.09160305,0.281668695 6.45801527,0.281668695 6.73282443,0.465212886 C7.00763359,0.648757077 7.19083969,0.924073364 7.19083969,1.29116175 L7.19083969,7.80698054 C7.19083969,9.45887826 8.51908397,10.7895736 10.1679389,10.7895736 L13.1450382,10.7895736 C14.7938931,10.7895736 16.1221374,9.45887826 16.1221374,7.80698054 L16.1221374,0.924073364 C16.1221374,0.602871029 16.3053435,0.327554742 16.5801527,0.144010551 C16.8549618,-0.0395336401 17.1755725,-0.0395336401 17.4961832,0.0981245033 C21.480916,2.16299666 24,6.24685491 24,10.7436876 C24,14.3686854 22.351145,17.810139 19.5114504,20.0585553 C18.0458015,21.2057065 17.221374,22.9034903 17.221374,24.6930461 L17.221374,37.4034814 C17.221374,37.7246837 16.9923664,37.954114 16.6717557,37.954114 C16.351145,37.954114 16.0763359,37.7705698 16.0763359,37.4493674 L16.0763359,24.7389322 C16.0763359,22.5822879 17.0381679,20.5633018 18.778626,19.1867204 C21.3435115,17.1218482 22.8549618,14.047483 22.8549618,10.7436876 C22.8549618,6.79748748 20.7022901,3.17248971 17.2671756,1.2452757 L17.2671756,7.80698054 C17.2671756,10.0553969 15.4351145,11.8908388 13.1450382,11.8908388 L10.1679389,11.8908388 C7.92366412,11.8908388 6.04580153,10.0553969 6.04580153,7.80698054 Z" id="Shape" stroke-width="2" fill="#F94B4B" fill-rule="nonzero"></path>
                <path d="M6.6870229,37.5 L16.5801527,37.5" id="Line" stroke-width="3" stroke-linecap="round"></path>
            </g>
        </g>
    </g>
</svg>