<svg xmlns="http://www.w3.org/2000/svg" width="178.959" height="240.11" viewBox="0 0 178.959 240.11">
  <g id="rubbish-bin" transform="translate(-52.016)">
    <g id="Group_1" data-name="Group 1" transform="translate(52.016)">
      <path id="Path_1" data-name="Path 1" d="M82.1,269.53A12.085,12.085,0,0,0,94.172,281.11H206.979a12.085,12.085,0,0,0,12.073-11.579l8.056-170.062H74.043Zm93.995-127.822A4.908,4.908,0,0,1,181,136.8h7.85a4.909,4.909,0,0,1,4.908,4.908v97.161a4.908,4.908,0,0,1-4.908,4.908H181a4.908,4.908,0,0,1-4.908-4.908Zm-34.351,0a4.908,4.908,0,0,1,4.908-4.908h7.85a4.908,4.908,0,0,1,4.908,4.908v97.161a4.907,4.907,0,0,1-4.908,4.908h-7.85a4.907,4.907,0,0,1-4.908-4.908V141.708Zm-34.352,0A4.908,4.908,0,0,1,112.3,136.8h7.851a4.908,4.908,0,0,1,4.908,4.908v97.161a4.908,4.908,0,0,1-4.908,4.908H112.3a4.907,4.907,0,0,1-4.908-4.908Z" transform="translate(-61.095 -41)" fill="#3db39e"/>
      <path id="Path_2" data-name="Path 2" d="M223.392,12.369H171.351V2.531A2.531,2.531,0,0,0,168.82,0H114.171a2.53,2.53,0,0,0-2.53,2.531v9.838H59.6a7.583,7.583,0,0,0-7.583,7.583V43.774H230.975V19.953A7.583,7.583,0,0,0,223.392,12.369Z" transform="translate(-52.016)" fill="#3db39e"/>
    </g>
  </g>
</svg>
